titillium_light-upright.sfdir
StartChar: exclam
Encoding: 33 33 145
Width: 222
Flags: MW
HStem: 0 100<81 142 81 142>
VStem: 82 58
LayerCount: 2
Back
Fore
SplineSet
83 223 m 1
 81 700 l 1
 142 700 l 1
 138 223 l 1
 83 223 l 1
81 0 m 1
 81 100 l 1
 142 100 l 1
 142 0 l 1
 81 0 l 1
EndSplineSet
EndChar
StartChar: quotedbl
Encoding: 34 34 228
Width: 335
Flags: MW
HStem: 474 221<68 121 68 68 214 214 214 267>
VStem: 67 55 213 55
LayerCount: 2
Back
Fore
SplineSet
121 474 m 1
 68 474 l 1
 66 695 l 1
 123 695 l 1
 121 474 l 1
267 474 m 1
 214 474 l 1
 212 695 l 1
 269 695 l 1
 267 474 l 1
EndSplineSet
EndChar
StartChar: numbersign
Encoding: 35 35 150
Width: 560
Flags: MW
HStem: 0 21G<140 196 140 140 363 419 363 363> 184 52<26 140 26 140 196 363 419 533> 432 52<26 140 26 140 196 363 419 533>
VStem: 140 56<0 184 0 184 236 432 484 667> 363 56<0 184 0 184 236 432 484 667>
LayerCount: 2
Back
Fore
SplineSet
533 184 m 1
 419 184 l 1
 419 0 l 1
 363 0 l 1
 363 184 l 1
 196 184 l 1
 196 0 l 1
 140 0 l 1
 140 184 l 1
 26 184 l 1
 26 236 l 1
 140 236 l 1
 140 432 l 1
 26 432 l 1
 26 484 l 1
 140 484 l 1
 140 667 l 1
 196 667 l 1
 196 484 l 1
 363 484 l 1
 363 667 l 1
 419 667 l 1
 419 484 l 1
 533 484 l 1
 533 432 l 1
 419 432 l 1
 419 236 l 1
 533 236 l 1
 533 184 l 1
363 236 m 1
 363 432 l 1
 196 432 l 1
 196 236 l 1
 363 236 l 1
EndSplineSet
EndChar
StartChar: dollar
Encoding: 36 36 144
Width: 560
Flags: MW
HStem: -10 52<255 281> -7 21G<209 209> 617 52<239.5 285 285 287 220.5 299> 665 21G<352 352>
VStem: 86 61<455 538 455 551.5> 414 60<140 224>
LayerCount: 2
Back
Fore
SplineSet
458 650 m 1x9c
 454 603 l 1
 454 603 399 610 345 614 c 1
 309 364 l 1
 416 337 474 303 474 192 c 0
 474 61 413 -11 281 -11 c 0
 273 -11 264 -11 255 -10 c 1x9c
 239 -119 l 1
 193 -119 l 1
 209 -7 l 1
 149 -1 92 7 92 7 c 1
 97 56 l 1
 97 56 158 48 216 44 c 1
 256 318 l 1
 147 343 86 382 86 490 c 0
 86 613 158 669 283 669 c 0
 291 669 298 669 307 668 c 1x6c
 324 784 l 1
 370 784 l 1
 352 665 l 1
 408 659 458 650 458 650 c 1x9c
414 186 m 0
 414 262 375 290 301 308 c 1
 262 42 l 1
 281 42 l 2
 373 42 414 94 414 186 c 0
147 494 m 0
 147 416 185 394 264 374 c 1
 299 617 l 1
 285 617 l 2xac
 194 617 147 582 147 494 c 0
EndSplineSet
EndChar
StartChar: percent
Encoding: 37 37 252
Width: 560
Flags: MW
HStem: -5 21G<217 217> 0 44<399.5 441 399.5 452> 233 44<399.5 441> 469 189<118.5 160> 702 21G<106 171.5>
VStem: 82 113<534.5 596 533.5 596.5> 313 51<109 171.5 109 188.5> 477 50<108.5 171>
LayerCount: 2
Back
Fore
SplineSet
139 658 m 0x7f
 181 658 195 627 195 565 c 0
 195 502 181 469 139 469 c 0
 98 469 82 503 82 566 c 0
 82 627 98 658 139 658 c 0x7f
170 6 m 1xbf
 340 706 l 1
 386 694 l 1
 217 -5 l 1
 170 6 l 1xbf
32 566 m 0
 32 469 74 425 139 425 c 0
 203 425 246 469 246 565 c 0
 246 661 204 702 139 702 c 0
 73 702 32 661 32 566 c 0
313 141 m 0
 313 236 354 277 420 277 c 0
 485 277 527 236 527 140 c 0
 527 44 484 0 420 0 c 0x7f
 355 0 313 44 313 141 c 0
364 141 m 0x7f
 364 77 379 44 420 44 c 0
 462 44 477 77 477 140 c 0
 477 202 462 233 420 233 c 0
 379 233 364 202 364 141 c 0x7f
EndSplineSet
EndChar
StartChar: ampersand
Encoding: 38 38 247
Width: 635
Flags: MW
HStem: -10 54<201 294 201 302.5> 653 52<258.5 321.5>
VStem: 36 63<158.5 235 158.5 236.5> 135 63<525 581 515 603> 384 63<520.5 585.5> 480 57<338 338>
LayerCount: 2
Back
Fore
SplineSet
288 705 m 0
 391 705 447 658 447 555 c 0
 447 486 429 415 299 361 c 1
 454 201 l 1
 470 243 478 295 480 338 c 1
 537 338 l 1
 535 286 519 207 496 159 c 1
 500 155 615 39 618 35 c 1
 618 35 579 -8 578 -8 c 2
 464 109 l 1
 416 25 350 -10 255 -10 c 0
 110 -10 36 65 36 205 c 0
 36 268 55 354 186 402 c 1
 143 456 135 496 135 554 c 0
 135 652 190 705 288 705 c 0
256 44 m 0
 332 44 387 77 424 147 c 1
 222 361 l 1
 119 325 99 266 99 204 c 0
 99 113 146 44 256 44 c 0
198 552 m 0
 198 478 213 453 265 399 c 1
 353 434 384 474 384 553 c 0
 384 618 355 653 288 653 c 0
 229 653 198 610 198 552 c 0
EndSplineSet
EndChar
StartChar: quotesingle
Encoding: 39 39 229
Width: 189
Flags: MW
HStem: 474 221<68 121 68 68>
VStem: 67 55
LayerCount: 2
Back
Fore
SplineSet
121 474 m 1
 68 474 l 1
 66 695 l 1
 123 695 l 1
 121 474 l 1
EndSplineSet
EndChar
StartChar: parenright
Encoding: 41 41 231
Width: 238
Flags: MW
HStem: -118 872<36 93 36 93>
VStem: 127 61<236 422>
LayerCount: 2
Back
Fore
SplineSet
93 -118 m 1
 36 -118 l 1
 36 -118 127 143 127 329 c 0
 127 515 36 754 36 754 c 1
 93 754 l 1
 93 754 188 534 188 329 c 0
 188 124 93 -118 93 -118 c 1
EndSplineSet
Substitution2: "'case' Case-Sensitive Forms in Latin lookup 4 subtable" parenright.cap
EndChar
StartChar: asterisk
Encoding: 42 42 248
Width: 405
Flags: MW
HStem: 514 44<230 362 230 362 228 362>
VStem: 51 311<458 514>
LayerCount: 2
Back
Fore
SplineSet
362 514 m 1
 228 514 l 1
 269 387 l 1
 227 374 l 1
 185 502 l 1
 77 423 l 1
 51 458 l 1
 160 537 l 1
 53 616 l 1
 79 652 l 1
 187 573 l 1
 228 700 l 1
 271 686 l 1
 230 558 l 1
 362 558 l 1
 362 514 l 1
EndSplineSet
EndChar
StartChar: plus
Encoding: 43 43 253
Width: 560
Flags: MW
HStem: 223 56<57 250 57 250 307 503>
VStem: 250 57<20 223 20 223 279 480>
LayerCount: 2
Back
Fore
SplineSet
57 223 m 1
 57 279 l 1
 250 279 l 1
 250 480 l 1
 307 480 l 1
 307 279 l 1
 503 279 l 1
 503 223 l 1
 307 223 l 1
 307 20 l 1
 250 20 l 1
 250 223 l 1
 57 223 l 1
EndSplineSet
EndChar
StartChar: comma
Encoding: 44 44 232
Width: 200
Flags: MW
HStem: -130 230<75 85 37 139>
VStem: 37 102
LayerCount: 2
Back
Fore
SplineSet
85 -130 m 1
 37 -130 l 1
 75 100 l 1
 139 100 l 1
 85 -130 l 1
EndSplineSet
EndChar
StartChar: hyphen
Encoding: 45 45 233
Width: 379
Flags: MW
HStem: 240 56<66 314 66 314>
VStem: 66 248<240 296 240 296>
LayerCount: 2
Back
Fore
SplineSet
66 240 m 1
 66 296 l 1
 314 296 l 1
 314 240 l 1
 66 240 l 1
EndSplineSet
EndChar
StartChar: period
Encoding: 46 46 234
Width: 192
Flags: MW
HStem: 0 100<66 127 66 127>
VStem: 66 61<0 100 0 100>
LayerCount: 2
Back
Fore
SplineSet
66 0 m 1
 66 100 l 1
 127 100 l 1
 127 0 l 1
 66 0 l 1
EndSplineSet
EndChar
StartChar: slash
Encoding: 47 47 385
Width: 379
Flags: MW
HStem: -7 21G
VStem: 31 318
LayerCount: 2
Back
Fore
SplineSet
86 -7 m 1
 31 14 l 1
 294 704 l 1
 349 684 l 1
 86 -7 l 1
EndSplineSet
Substitution2: "'frac' Diagonal Fractions in Latin lookup 3 subtable" fraction
EndChar
StartChar: zero
Encoding: 48 48 414
Width: 560
Flags: MW
HStem: -10 54<206.5 351.5 206.5 371.5> 616 54<224.5 335>
VStem: 49 62<250.5 435 250.5 458> 448 62<243.5 434.5>
LayerCount: 2
Back
Fore
SplineSet
279 670 m 0
 423 670 510 599 510 319 c 0
 510 133 463 -10 280 -10 c 0
 100 -10 49 130 49 318 c 0
 49 598 140 670 279 670 c 0
279 616 m 0
 170 616 111 553 111 317 c 0
 111 184 133 44 280 44 c 0
 423 44 448 169 448 318 c 0
 448 551 391 616 279 616 c 0
EndSplineSet
Substitution2: "'frac' Diagonal Fractions in Latin lookup 1 subtable" zerosuperior
EndChar
StartChar: one
Encoding: 49 49 415
Width: 560
Flags: MW
HStem: 0 21G<319 381 319 319>
VStem: 319 62<0 589 589 589>
LayerCount: 2
Back
Fore
SplineSet
118 523 m 1
 326 661 l 1
 381 661 l 1
 381 0 l 1
 319 0 l 1
 319 589 l 1
 147 474 l 1
 118 523 l 1
EndSplineSet
Substitution2: "'frac' Diagonal Fractions in Latin lookup 1 subtable" onesuperior
EndChar
StartChar: two
Encoding: 50 50 444
Width: 560
Flags: MW
HStem: 0 54<143 492 143 492> 616 54<228 308.5>
VStem: 411 62<451 537>
LayerCount: 2
Back
Fore
SplineSet
492 0 m 1
 69 0 l 1
 69 50 l 1
 280 270 l 2
 364 358 411 411 411 491 c 0
 411 583 355 616 262 616 c 0
 194 616 79 593 79 593 c 1
 74 643 l 1
 74 643 184 670 269 670 c 0
 392 670 473 623 473 496 c 0
 473 396 422 335 339 252 c 2
 143 54 l 1
 492 54 l 1
 492 0 l 1
EndSplineSet
Substitution2: "'frac' Diagonal Fractions in Latin lookup 1 subtable" twosuperior
EndChar
StartChar: three
Encoding: 51 51 416
Width: 560
Flags: MW
HStem: -10 54<231 324.5 224.5 348> 318 52 616 54<225.5 317.5>
VStem: 410 62<464.5 539> 427 62<137.5 234>
LayerCount: 2
Back
Fore
SplineSet
81 597 m 1xe8
 75 645 l 1
 75 645 182 670 269 670 c 0
 411 670 472 617 472 501 c 0xf0
 472 428 439 381 370 352 c 1
 440 329 489 298 489 186 c 0
 489 55 416 -10 280 -10 c 0
 182 -10 66 15 66 15 c 1
 73 64 l 1
 73 64 174 44 275 44 c 0
 374 44 427 92 427 183 c 0xe8
 427 285 362 314 283 318 c 1
 153 318 l 1
 153 369 l 1
 282 371 l 2
 334 372 410 415 410 496 c 0xf0
 410 582 368 616 267 616 c 0
 179 616 81 597 81 597 c 1xe8
EndSplineSet
Substitution2: "'frac' Diagonal Fractions in Latin lookup 1 subtable" threesuperior
EndChar
StartChar: four
Encoding: 52 52 445
Width: 560
Flags: MW
HStem: -1 181<111 367 111 428> 127 53<111 367 111 367 428 512>
VStem: 367 61<-1 127 -1 127 180 405>
LayerCount: 2
Back
Fore
SplineSet
367 -1 m 1xa0
 367 127 l 1
 48 127 l 1
 48 174 l 1
 252 661 l 1
 318 661 l 1
 111 180 l 1
 367 180 l 1
 367 405 l 1
 428 405 l 1
 428 180 l 1
 512 180 l 1
 512 127 l 1
 428 127 l 1x60
 428 -1 l 1
 367 -1 l 1xa0
EndSplineSet
Substitution2: "'frac' Diagonal Fractions in Latin lookup 1 subtable" foursuperior
EndChar
StartChar: five
Encoding: 53 53 446
Width: 560
Flags: MW
HStem: -8 54<233.5 322.5 231.5 343.5> 358 55<255 327.5> 606 55<148 470 148 148>
VStem: 87 52 436 62<161.5 271.5>
LayerCount: 2
Back
Fore
SplineSet
97 661 m 1
 470 661 l 1
 470 606 l 1
 148 606 l 1
 130 369 l 1
 130 369 217 413 293 413 c 0
 411 413 498 363 498 219 c 0
 498 65 408 -8 279 -8 c 0
 188 -8 69 19 69 19 c 1
 77 69 l 1
 77 69 186 46 277 46 c 0
 368 46 436 106 436 217 c 0
 436 326 369 358 286 358 c 0
 207 358 122 312 122 312 c 1
 77 321 l 1
 97 661 l 1
EndSplineSet
Substitution2: "'frac' Diagonal Fractions in Latin lookup 1 subtable" fivesuperior
EndChar
StartChar: six
Encoding: 54 54 213
Width: 560
Flags: MW
HStem: -10 54<235 343 235 362.5> 355 54<258 340.5> 616 54<251 345 235.5 346.5>
VStem: 57 62<221 300.5> 448 63<155 261>
LayerCount: 2
Back
Fore
SplineSet
481 651 m 1
 475 600 l 1
 475 600 385 616 308 616 c 0
 194 616 128 543 119 365 c 1
 119 365 222 409 294 409 c 0
 428 409 511 347 511 211 c 0
 511 64 432 -10 293 -10 c 0
 135 -10 57 108 57 308 c 0
 57 583 163 670 308 670 c 0
 382 670 481 651 481 651 c 1
290 355 m 0
 213 355 120 313 120 313 c 2
 119 309 119 303 119 298 c 0
 119 144 177 44 293 44 c 0
 393 44 448 99 448 211 c 0
 448 311 391 355 290 355 c 0
EndSplineSet
Substitution2: "'frac' Diagonal Fractions in Latin lookup 1 subtable" sixsuperior
EndChar
StartChar: seven
Encoding: 55 55 417
Width: 560
Flags: MW
HStem: 606 55<84 479 84 418>
VStem: 418 61<571 606 606 606>
LayerCount: 2
Back
Fore
SplineSet
84 606 m 1
 84 661 l 1
 479 661 l 1
 479 564 l 1
 225 -11 l 1
 168 8 l 1
 418 571 l 1
 418 606 l 1
 84 606 l 1
EndSplineSet
Substitution2: "'frac' Diagonal Fractions in Latin lookup 1 subtable" sevensuperior
EndChar
StartChar: eight
Encoding: 56 56 418
Width: 560
Flags: MW
HStem: -10 54<227.5 331 227.5 346.5> 316 53<222 326 222 326> 616 55<225 332>
VStem: 35 62<127.5 218.5 127.5 222> 46 62<461.5 539.5 461.5 559> 451 63<461 538> 461 63<130 227.5>
LayerCount: 2
Back
Fore
SplineSet
278 671 m 0xec
 419 671 514 617 514 501 c 0xf4
 514 415 474 377 392 346 c 1
 468 319 524 277 524 181 c 0
 524 35 415 -10 278 -10 c 0
 146 -10 35 34 35 170 c 0xf2
 35 274 89 313 159 346 c 1
 87 378 46 417 46 502 c 0
 46 616 137 671 278 671 c 0xec
278 44 m 0xf2
 384 44 461 77 461 183 c 0
 461 272 399 297 326 316 c 1
 222 316 l 1
 147 296 97 260 97 177 c 0
 97 78 177 44 278 44 c 0xf2
278 616 m 0xec
 172 616 108 583 108 496 c 0
 108 427 149 392 222 369 c 1
 326 369 l 1
 403 391 451 427 451 495 c 0
 451 581 386 616 278 616 c 0xec
EndSplineSet
Substitution2: "'frac' Diagonal Fractions in Latin lookup 1 subtable" eightsuperior
EndChar
StartChar: nine
Encoding: 57 57 214
Width: 560
Flags: MW
HStem: -10 21G -10 57<212 308.5 210 324.5> 252 56<215 293> 614 56<223.5 327.5>
VStem: 48 64<405 505 405 523> 438 63<344 344>
LayerCount: 2
Back
Fore
SplineSet
74 11 m 1xbc
 81 65 l 1
 81 65 171 47 249 47 c 0
 368 47 436 123 437 290 c 1
 437 290 328 252 258 252 c 0
 130 252 48 318 48 455 c 0
 48 591 144 670 270 670 c 0
 424 670 501 549 501 326 c 0
 501 72 400 -10 249 -10 c 0x7c
 175 -10 74 11 74 11 c 1xbc
262 308 m 0
 330 308 438 344 438 344 c 1
 437 509 385 614 270 614 c 0
 177 614 112 555 112 455 c 0
 112 355 168 308 262 308 c 0
EndSplineSet
Substitution2: "'frac' Diagonal Fractions in Latin lookup 1 subtable" ninesuperior
EndChar
StartChar: colon
Encoding: 58 58 235
Width: 192
Flags: MW
HStem: 0 100<66 127 66 127> 335 100<66 127 66 127>
VStem: 66 61<0 100 0 100 335 435>
LayerCount: 2
Back
Fore
SplineSet
66 335 m 1
 66 435 l 1
 127 435 l 1
 127 335 l 1
 66 335 l 1
66 0 m 1
 66 100 l 1
 127 100 l 1
 127 0 l 1
 66 0 l 1
EndSplineSet
EndChar
StartChar: semicolon
Encoding: 59 59 236
Width: 223
Flags: MW
HStem: 335 100<88 149 88 149>
VStem: 88 61<335 435 335 435>
LayerCount: 2
Back
Fore
SplineSet
48 -130 m 1
 96 -130 l 1
 150 100 l 1
 86 100 l 1
 48 -130 l 1
88 335 m 1
 88 435 l 1
 149 435 l 1
 149 335 l 1
 88 335 l 1
EndSplineSet
EndChar
StartChar: less
Encoding: 60 60 216
Width: 560
Flags: MW
HStem: 14 472<479 479>
VStem: 60 419<14 278 14 278>
LayerCount: 2
Back
Fore
SplineSet
479 423 m 1
 121 252 l 1
 479 78 l 1
 479 14 l 1
 60 224 l 1
 60 278 l 1
 479 486 l 1
 479 423 l 1
EndSplineSet
EndChar
StartChar: greater
Encoding: 62 62 217
Width: 560
Flags: MW
HStem: 14 472<81 81>
VStem: 81 419<14 278 78 278 224 486 224 486>
LayerCount: 2
Back
Fore
SplineSet
439 252 m 1
 81 423 l 1
 81 486 l 1
 500 278 l 1
 500 224 l 1
 81 14 l 1
 81 78 l 1
 439 252 l 1
EndSplineSet
EndChar
StartChar: question
Encoding: 63 63 238
Width: 406
Flags: MW
HStem: 1 104<138 201 138 201> 649 56<154 224>
VStem: 138 63<1 105 1 105> 305 64<517.5 584>
LayerCount: 2
Back
Fore
SplineSet
369 540 m 0
 369 480 345 443 264 351 c 0
 225 306 201 272 201 233 c 2
 201 193 l 1
 143 193 l 1
 143 193 139 221 139 240 c 0
 139 295 164 326 221 392 c 0
 284 468 305 495 305 540 c 0
 305 628 268 649 180 649 c 0
 123 649 39 628 39 628 c 1
 31 679 l 1
 31 679 124 705 184 705 c 0
 309 705 369 664 369 540 c 0
138 1 m 1
 138 105 l 1
 201 105 l 1
 201 1 l 1
 138 1 l 1
EndSplineSet
EndChar
StartChar: at
Encoding: 64 64 151
Width: 923
Flags: MW
HStem: -202 52<332.5 490 332.5 493.5> -7 53<393 469.5> 454 53<406 481.5> 664 52<348 614>
VStem: 49 58<122 408.5 122 426.5> 268 62<184.5 300 184.5 320> 577 60<159 444 444 444> 824 58<194 402>
LayerCount: 2
Back
Fore
SplineSet
475 716 m 0
 785 716 882 572 882 263 c 0
 882 125 846 -7 708 -7 c 0
 634 -7 598 20 586 93 c 1
 577 77 513 -7 426 -7 c 0
 310 -7 268 87 268 239 c 0
 268 401 306 507 467 507 c 0
 520 507 637 490 637 490 c 1
 637 125 l 2
 637 71 658 45 708 45 c 0
 768 45 824 85 824 263 c 0
 824 541 753 664 475 664 c 0
 221 664 107 556 107 261 c 0
 107 -17 194 -150 471 -150 c 0
 509 -150 606 -140 606 -140 c 1
 609 -192 l 1
 609 -192 516 -202 471 -202 c 0
 158 -202 49 -52 49 261 c 0
 49 592 187 716 475 716 c 0
436 46 m 0
 518 46 577 159 577 159 c 1
 577 444 l 2
 576 444 495 454 468 454 c 0
 344 454 330 356 330 244 c 0
 330 125 350 46 436 46 c 0
EndSplineSet
EndChar
StartChar: B
Encoding: 66 66 28
Width: 572
Flags: MW
HStem: 0 54<141 313 313 314> 328 53<141 309 309 310 141 309> 641 54<141 308 141 141>
VStem: 80 61<54 328 54 381 381 641> 437 63<479 561> 458 64<149 239 127.5 244>
LayerCount: 2
Back
Fore
SplineSet
80 695 m 1xf4
 308 695 l 2
 430 695 500 645 500 523 c 0xf8
 500 431 465 383 409 360 c 1
 491 332 522 281 522 197 c 0
 522 58 452 0 314 0 c 2
 80 0 l 1
 80 695 l 1xf4
310 328 m 2
 141 328 l 1
 141 54 l 1
 313 54 l 2
 413 54 458 99 458 199 c 0xf4
 458 289 408 328 310 328 c 2
308 641 m 2
 141 641 l 1
 141 381 l 1
 309 381 l 2
 399 381 437 440 437 518 c 0xf8
 437 604 393 641 308 641 c 2
EndSplineSet
Position2: "'cpsp' Capital Spacing in Latin lookup 0 subtable" dx=5 dy=0 dh=10 dv=0
EndChar
StartChar: D
Encoding: 68 68 35
Width: 601
Flags: MW
HStem: 0 55<141 311 141 311> 639 56<141 311 141 141>
VStem: 80 61<55 639 55 695 55 695> 480 64<263.5 454>
LayerCount: 2
Back
Fore
SplineSet
311 0 m 2
 80 0 l 1
 80 695 l 1
 311 695 l 2
 485 695 544 592 544 359 c 0
 544 121 491 0 311 0 c 2
480 359 m 0
 480 549 446 639 311 639 c 2
 141 639 l 1
 141 55 l 1
 311 55 l 2
 446 55 480 168 480 359 c 0
EndSplineSet
Position2: "'cpsp' Capital Spacing in Latin lookup 0 subtable" dx=5 dy=0 dh=10 dv=0
EndChar
StartChar: F
Encoding: 70 70 48
Width: 488
Flags: MW
HStem: 0 21G<80 80 80 141> 296 54<141 408 141 408> 640 55<141 464 141 141>
VStem: 80 61<0 296 350 640>
LayerCount: 2
Back
Fore
SplineSet
80 0 m 1
 80 695 l 1
 464 695 l 1
 464 640 l 1
 141 640 l 1
 141 350 l 1
 408 350 l 1
 408 296 l 1
 141 296 l 1
 141 0 l 1
 80 0 l 1
EndSplineSet
Position2: "'cpsp' Capital Spacing in Latin lookup 0 subtable" dx=5 dy=0 dh=10 dv=0
EndChar
StartChar: I
Encoding: 73 73 57
Width: 221
Flags: MW
HStem: 0 21G<80 80 80 141>
VStem: 80 61<0 695 0 695>
LayerCount: 2
Back
Fore
SplineSet
80 0 m 1
 80 695 l 1
 141 695 l 1
 141 0 l 1
 80 0 l 1
EndSplineSet
Position2: "'cpsp' Capital Spacing in Latin lookup 0 subtable" dx=5 dy=0 dh=10 dv=0
EndChar
StartChar: J
Encoding: 74 74 67
Width: 264
Flags: MW
HStem: -71 55<17 92>
VStem: 126 62<41.5 695>
LayerCount: 2
Back
Fore
SplineSet
187 695 m 1
 188 111 l 2
 188 -28 167 -71 17 -71 c 1
 17 -16 l 1
 121 -15 126 16 126 119 c 2
 126 695 l 1
 187 695 l 1
EndSplineSet
Position2: "'cpsp' Capital Spacing in Latin lookup 0 subtable" dx=5 dy=0 dh=10 dv=0
EndChar
StartChar: M
Encoding: 77 77 76
Width: 773
Flags: MW
HStem: 0 21G<80 80 80 139 634 634 634 693> 23 58<387 387 387 425 348 387> 640 55<139 152 139 139 621 634 621 621>
VStem: 80 59<0 640 0 695 0 695> 634 59<0 640 640 640>
LayerCount: 2
Back
Fore
SplineSet
80 0 m 1
 80 695 l 1
 191 695 l 1
 387 81 l 1x78
 582 695 l 1
 693 695 l 1
 693 0 l 1
 634 0 l 1xb8
 634 640 l 1
 621 640 l 1
 425 23 l 1
 348 23 l 1x78
 152 640 l 1
 139 640 l 1
 139 0 l 1
 80 0 l 1
EndSplineSet
Position2: "'cpsp' Capital Spacing in Latin lookup 0 subtable" dx=5 dy=0 dh=10 dv=0
EndChar
StartChar: P
Encoding: 80 80 94
Width: 549
Flags: MW
HStem: 0 21G<80 141 80 80> 239 55<141 295 295 298 141 295> 639 56<141 295 141 141>
VStem: 80 61<0 239 294 639> 450 64<411 538>
LayerCount: 2
Back
Fore
SplineSet
298 239 m 2
 141 239 l 1
 141 0 l 1
 80 0 l 1
 80 695 l 1
 297 695 l 2
 441 695 514 632 514 476 c 0
 514 312 436 239 298 239 c 2
141 294 m 1
 295 294 l 2
 397 294 450 345 450 477 c 0
 450 599 396 639 295 639 c 2
 141 639 l 1
 141 294 l 1
EndSplineSet
Position2: "'cpsp' Capital Spacing in Latin lookup 0 subtable" dx=5 dy=0 dh=10 dv=0
EndChar
StartChar: Q
Encoding: 81 81 95
Width: 617
Flags: MW
HStem: -10 56<225.5 326> 0 21G<399 399> 649 56<289 392>
VStem: 57 64<249 432.5 249 434.5> 496 64<274.5 457>
LayerCount: 2
Back
Fore
SplineSet
309 -10 m 0xb8
 101 -10 57 111 57 353 c 0
 57 516 77 619 154 669 c 0
 191 693 241 705 309 705 c 0
 517 705 560 594 560 353 c 0
 560 183 539 73 454 22 c 1
 453 22 l 1x78
 531 -110 l 1
 478 -140 l 1
 399 0 l 1
 373 -6 343 -10 309 -10 c 0xb8
309 46 m 0
 350 46 381 51 407 64 c 0
 484 101 496 196 496 353 c 0
 496 561 475 649 309 649 c 0
 269 649 238 645 213 634 c 0
 133 601 121 512 121 353 c 0
 121 145 142 46 309 46 c 0
EndSplineSet
Position2: "'cpsp' Capital Spacing in Latin lookup 0 subtable" dx=5 dy=0 dh=10 dv=0
EndChar
StartChar: R
Encoding: 82 82 96
Width: 566
Flags: MW
HStem: 0 21G<80 141 80 80 461 528 461 461> 274 54<141 307 307 328 141 307> 641 54<141 307 141 141>
VStem: 80 61<0 274 0 328 328 641> 447 64<435 538.5>
LayerCount: 2
Back
Fore
SplineSet
461 0 m 1
 328 274 l 1
 141 274 l 1
 141 0 l 1
 80 0 l 1
 80 695 l 1
 307 695 l 2
 442 695 511 628 511 488 c 0
 511 358 457 308 389 285 c 1
 528 0 l 1
 461 0 l 1
447 488 m 0
 447 589 404 641 307 641 c 2
 141 641 l 1
 141 328 l 1
 307 328 l 2
 404 328 447 382 447 488 c 0
EndSplineSet
Position2: "'cpsp' Capital Spacing in Latin lookup 0 subtable" dx=5 dy=0 dh=10 dv=0
EndChar
StartChar: S
Encoding: 83 83 100
Width: 499
Flags: MW
HStem: -10 21G<213.5 320.5> -10 55<217 299.5 217 320.5> 650 55<208 290.5>
VStem: 46 64<474.5 567 474.5 581> 391 63<148.5 241.5>
LayerCount: 2
Back
Fore
SplineSet
438 685 m 1x78
 434 635 l 1
 434 635 325 650 256 650 c 0
 160 650 110 613 110 521 c 0
 110 428 162 410 268 387 c 0
 389 359 454 324 454 203 c 0
 454 65 390 -10 251 -10 c 0x78
 176 -10 53 8 53 8 c 1xb8
 58 60 l 1
 58 60 183 45 251 45 c 0
 348 45 391 100 391 197 c 0
 391 286 341 312 245 331 c 0
 118 358 46 396 46 516 c 0
 46 646 122 705 254 705 c 0
 330 705 438 685 438 685 c 1x78
EndSplineSet
Position2: "'cpsp' Capital Spacing in Latin lookup 0 subtable" dx=5 dy=0 dh=10 dv=0
EndChar
StartChar: U
Encoding: 85 85 110
Width: 596
Flags: MW
HStem: -10 55<243.5 352.5 243.5 372.5>
VStem: 76 61<205 695> 459 62<202 205 205 695>
LayerCount: 2
Back
Fore
SplineSet
137 695 m 1
 137 202 l 2
 137 90 189 45 298 45 c 0
 407 45 459 89 459 202 c 2
 459 695 l 1
 521 695 l 1
 521 205 l 2
 521 59 447 -10 298 -10 c 0
 149 -10 76 59 76 205 c 2
 76 695 l 1
 137 695 l 1
EndSplineSet
Position2: "'cpsp' Capital Spacing in Latin lookup 0 subtable" dx=5 dy=0 dh=10 dv=0
EndChar
StartChar: V
Encoding: 86 86 121
Width: 540
Flags: MW
HStem: 0 55<247 294 247 341 199 294>
VStem: 25 489<695 695>
LayerCount: 2
Back
Fore
SplineSet
453 695 m 1
 514 695 l 1
 341 0 l 1
 199 0 l 1
 25 695 l 1
 86 695 l 1
 247 55 l 1
 294 55 l 1
 453 695 l 1
EndSplineSet
Position2: "'cpsp' Capital Spacing in Latin lookup 0 subtable" dx=5 dy=0 dh=10 dv=0
EndChar
StartChar: W
Encoding: 87 87 122
Width: 822
Flags: MW
HStem: 0 56<217 246 217 289 171 246 577 607>
VStem: 33 755<695 695>
LayerCount: 2
Back
Fore
SplineSet
33 695 m 1
 92 695 l 1
 217 56 l 1
 246 56 l 1
 377 685 l 1
 443 685 l 1
 577 56 l 1
 607 56 l 1
 729 695 l 1
 788 695 l 1
 653 0 l 1
 534 0 l 1
 410 605 l 1
 289 0 l 1
 171 0 l 1
 33 695 l 1
EndSplineSet
Position2: "'cpsp' Capital Spacing in Latin lookup 0 subtable" dx=5 dy=0 dh=10 dv=0
EndChar
StartChar: X
Encoding: 88 88 127
Width: 517
Flags: MW
HStem: 0 21G<19 86 19 19 429 497 429 429>
VStem: 19 478<0 0>
LayerCount: 2
Back
Fore
SplineSet
89 695 m 1
 259 393 l 1
 428 695 l 1
 496 695 l 1
 298 346 l 1
 497 0 l 1
 429 0 l 1
 259 300 l 1
 86 0 l 1
 19 0 l 1
 222 345 l 1
 20 695 l 1
 89 695 l 1
EndSplineSet
Position2: "'cpsp' Capital Spacing in Latin lookup 0 subtable" dx=5 dy=0 dh=10 dv=0
EndChar
StartChar: bracketleft
Encoding: 91 91 218
Width: 303
Flags: MW
HStem: -122 53<132 263 132 263> 694 53<132 263 132 132>
VStem: 75 57<-69 694 -69 747 -69 747>
LayerCount: 2
Back
Fore
SplineSet
75 747 m 1
 263 747 l 1
 263 694 l 1
 132 694 l 1
 132 -69 l 1
 263 -69 l 1
 263 -122 l 1
 75 -122 l 1
 75 747 l 1
EndSplineSet
Substitution2: "'case' Case-Sensitive Forms in Latin lookup 4 subtable" bracketleft.cap
EndChar
StartChar: backslash
Encoding: 92 92 219
Width: 438
Flags: MW
HStem: -30 731<90 347>
VStem: 29 379
LayerCount: 2
Back
Fore
SplineSet
408 -20 m 1
 347 -30 l 1
 29 691 l 1
 90 701 l 1
 408 -20 l 1
EndSplineSet
EndChar
StartChar: bracketright
Encoding: 93 93 220
Width: 303
Flags: MW
HStem: -122 53<40 171 40 228 40 171> 694 53<40 171 40 228>
VStem: 171 57<-69 694 694 694>
LayerCount: 2
Back
Fore
SplineSet
228 -122 m 1
 40 -122 l 1
 40 -69 l 1
 171 -69 l 1
 171 694 l 1
 40 694 l 1
 40 747 l 1
 228 747 l 1
 228 -122 l 1
EndSplineSet
Substitution2: "'case' Case-Sensitive Forms in Latin lookup 4 subtable" bracketright.cap
EndChar
StartChar: asciicircum
Encoding: 94 94 254
Width: 560
Flags: MW
HStem: 320 340<61 300 61 300 245 491 245 426>
VStem: 61 430<320 320>
LayerCount: 2
Back
Fore
SplineSet
426 320 m 1
 273 600 l 1
 126 320 l 1
 61 320 l 1
 245 660 l 1
 300 660 l 1
 491 320 l 1
 426 320 l 1
EndSplineSet
EndChar
StartChar: underscore
Encoding: 95 95 239
Width: 632
Flags: MW
HStem: -139 60<92 540 92 540>
VStem: 92 448<-139 -79 -139 -79>
LayerCount: 2
Back
Fore
SplineSet
92 -79 m 1
 540 -79 l 1
 540 -139 l 1
 92 -139 l 1
 92 -79 l 1
EndSplineSet
EndChar
StartChar: grave
Encoding: 96 96 11
Width: 518
Flags: MW
HStem: 602 138
VStem: 129 216<646 691>
LayerCount: 2
Back
Fore
SplineSet
149 740 m 1
 345 646 l 1
 328 602 l 1
 129 691 l 1
 149 740 l 1
EndSplineSet
EndChar
StartChar: b
Encoding: 98 98 386
Width: 489
Flags: MW
HStem: -10 53<225 293 225 310> 457 53<237.5 311.5> 702 20G<69 129 129 129>
VStem: 69 60<50 377 433 722> 377 62<188 319.5>
LayerCount: 2
Back
Fore
SplineSet
278 510 m 0
 404 510 439 413 439 260 c 0
 439 77 385 -10 235 -10 c 0
 172 -10 69 1 69 1 c 1
 69 722 l 1
 129 722 l 1
 129 433 l 1
 129 433 197 510 278 510 c 0
238 43 m 0
 348 43 377 116 377 260 c 0
 377 379 353 457 270 457 c 0
 195 457 129 377 129 377 c 1
 129 50 l 1
 129 50 212 43 238 43 c 0
EndSplineSet
EndChar
StartChar: d
Encoding: 100 100 405
Width: 489
Flags: MW
HStem: -10 53<175 254> 0 21G<360 419 360 360> 457 52<195.5 271.5 173.5 274.5> 702 20G<360 419 419 419>
VStem: 50 62<189 311 189 329.5> 360 59<0 80 80 80 147 446 446 446 497 722 0 722>
LayerCount: 2
Back
Fore
SplineSet
419 722 m 1xbc
 419 0 l 1
 360 0 l 1x7c
 360 80 l 1
 360 80 302 -10 206 -10 c 0
 86 -10 50 88 50 243 c 0
 50 416 102 509 245 509 c 0
 298 509 360 497 360 497 c 1
 360 722 l 1
 419 722 l 1xbc
360 147 m 1
 360 446 l 1
 360 446 300 457 249 457 c 0
 142 457 112 379 112 243 c 0
 112 135 129 43 221 43 c 0xbc
 301 43 360 147 360 147 c 1
EndSplineSet
EndChar
StartChar: f
Encoding: 102 102 389
Width: 306
Flags: MW
HStem: -225 21G<89 144 89 89> 447 53<29 89 29 89 149 288> 680 52<193 229.5 169.5 235> 702 20G<297 297>
VStem: 89 60<0 447 0 447 0 447 500 548>
LayerCount: 2
Back
Fore
SplineSet
149 447 m 1xe8
 149 0 l 1
 144 -225 l 1
 89 -225 l 1
 89 447 l 1
 29 447 l 1
 29 500 l 1
 89 500 l 1
 89 549 l 2
 89 683 126 732 213 732 c 0xe8
 246 732 297 722 297 722 c 1xd8
 297 672 l 1
 297 672 249 680 221 680 c 0
 165 680 149 640 149 548 c 2
 149 500 l 1
 288 500 l 1
 288 447 l 1
 149 447 l 1xe8
EndSplineSet
EndChar
StartChar: g
Encoding: 103 103 139
Width: 467
Flags: MW
HStem: -237 53<193.5 281 193.5 296> 16 53<247.5 299> 172 53<207.5 257.5 178 271.5> 448 50 458 52<180 239 163.5 258.5>
VStem: 43 58<-130.5 -70.5> 51 58<304 375.5 304 392.5> 114 57<97.5 120> 332 58<304 361.5 285.5 376.5> 384 58<-102.5 -28>
LayerCount: 2
Back
Fore
SplineSet
234 -237 m 0xec40
 123 -237 43 -214 43 -101 c 0xec40
 43 -40 92 17 138 46 c 1
 119 62 114 78 114 104 c 0xe940
 114 136 144 184 144 184 c 1
 77 207 51 264 51 339 c 0
 51 446 110 510 217 510 c 0xea40
 261 510 303 497 303 497 c 1
 446 499 l 1
 446 448 l 1
 350 448 l 1
 374 428 390 384 390 339 c 0
 390 232 328 172 215 172 c 0
 200 172 190 174 190 174 c 1
 190 174 171 134 171 110 c 0xf180
 171 85 180 69 265 69 c 0
 373 69 442 48 442 -64 c 0
 442 -168 358 -237 234 -237 c 0xec40
262 16 m 0
 233 16 198 19 181 24 c 1
 143 6 101 -43 101 -94 c 0
 101 -167 151 -184 236 -184 c 0
 326 -184 384 -141 384 -64 c 0
 384 8 336 16 262 16 c 0
215 225 m 0xea80
 300 225 332 269 332 339 c 0
 332 414 300 458 217 458 c 0
 143 458 109 412 109 339 c 0
 109 269 141 225 215 225 c 0xea80
EndSplineSet
EndChar
StartChar: i
Encoding: 105 105 390
Width: 198
Flags: MW
HStem: 0 21G<69 69 69 129> 480 20G<69 129 129 129> 618 78<68 130 68 130>
VStem: 69 60<0 500 0 500>
LayerCount: 2
Back
Fore
SplineSet
69 0 m 1
 69 500 l 1
 129 500 l 1
 129 0 l 1
 69 0 l 1
68 618 m 1
 68 696 l 1
 130 696 l 1
 130 618 l 1
 68 618 l 1
EndSplineSet
EndChar
StartChar: j
Encoding: 106 106 391
Width: 198
Flags: MW
HStem: -237 21G<-23 -23> 480 20G<69 129 129 129> 618 79<68 130 68 130>
VStem: 69 60<0 500>
LayerCount: 2
Back
Fore
SplineSet
69 0 m 2
 69 500 l 1
 129 500 l 1
 129 0 l 2
 129 -134 116 -158 -23 -237 c 1
 -47 -189 l 1
 65 -121 69 -105 69 0 c 2
68 618 m 1
 68 697 l 1
 130 697 l 1
 130 618 l 1
 68 618 l 1
EndSplineSet
EndChar
StartChar: m
Encoding: 109 109 394
Width: 775
Flags: MW
HStem: 0 21G<69 129 69 69 365 425 365 365 650 650 650 710> 457 53<237.5 301 516.5 586> 480 20G<69 128 128 128>
VStem: 69 60<0 355> 365 60<0 290 290 297> 650 60<0 293 293 301 0 349>
LayerCount: 2
Back
Fore
SplineSet
425 0 m 1xdc
 365 0 l 1
 365 290 l 2
 365 406 334 457 268 457 c 0xdc
 200 457 129 355 129 355 c 1
 129 0 l 1
 69 0 l 1
 69 500 l 1
 128 500 l 1xbc
 129 418 l 1
 129 418 197 510 278 510 c 0
 381 510 407 420 407 420 c 1
 407 420 474 510 559 510 c 0
 665 510 710 437 710 301 c 2
 710 0 l 1
 650 0 l 1
 650 293 l 2
 650 405 623 457 549 457 c 0
 478 457 421 372 421 372 c 1
 421 372 425 339 425 297 c 2
 425 0 l 1xdc
EndSplineSet
EndChar
StartChar: p
Encoding: 112 112 395
Width: 487
Flags: MW
HStem: -225 21G<69 69 69 129> -10 53<214.5 291 211.5 313.5> 457 53<231.5 315> 480 20G<69 128 128 128>
VStem: 69 60<-225 3 -225 54 54 353> 377 61<187.5 310>
LayerCount: 2
Back
Fore
SplineSet
69 -225 m 1xec
 69 500 l 1
 128 500 l 1xdc
 129 419 l 1
 129 419 188 510 275 510 c 0
 404 510 438 409 438 256 c 0
 438 85 387 -10 240 -10 c 0
 189 -10 129 3 129 3 c 1
 129 -225 l 1
 69 -225 l 1xec
270 457 m 0xec
 190 457 129 353 129 353 c 1
 129 54 l 1
 129 54 188 43 235 43 c 0
 347 43 377 119 377 256 c 0
 377 364 360 457 270 457 c 0xec
EndSplineSet
EndChar
StartChar: q
Encoding: 113 113 396
Width: 488
Flags: MW
HStem: -10 53<177 255.5> 457 52<205.5 274.5>
VStem: 50 61<181.5 322.5 181.5 333> 359 60<-220 79 79 79 144 446 446 446>
LayerCount: 2
Back
Fore
SplineSet
209 -10 m 0
 80 -10 50 105 50 242 c 0
 50 424 104 509 252 509 c 0
 302 509 419 493 419 493 c 1
 419 -220 l 1
 359 -220 l 1
 359 79 l 1
 359 79 302 -10 209 -10 c 0
260 457 m 0
 151 457 111 403 111 242 c 0
 111 121 132 43 222 43 c 0
 295 43 359 144 359 144 c 1
 359 446 l 1
 359 446 289 457 260 457 c 0
EndSplineSet
EndChar
StartChar: r
Encoding: 114 114 397
Width: 310
Flags: MW
HStem: 0 21G<69 69 69 129> 422 78<69 129> 490 20G<293 293>
VStem: 69 60<0 370 422 500>
LayerCount: 2
Back
Fore
SplineSet
69 0 m 1xb0
 69 500 l 1
 129 500 l 1
 129 422 l 1xd0
 129 422 205 487 293 510 c 1
 293 446 l 1
 219 428 129 370 129 370 c 1
 129 0 l 1
 69 0 l 1xb0
EndSplineSet
EndChar
StartChar: t
Encoding: 116 116 398
Width: 323
Flags: MW
HStem: -10 53<200.5 237.5> 447 53<27 95 27 95 154 302>
VStem: 95 59<137 140 140 447 500 653>
LayerCount: 2
Back
Fore
SplineSet
302 447 m 1
 154 447 l 1
 154 140 l 2
 154 79 174 43 227 43 c 0
 256 43 308 49 308 49 c 1
 311 1 l 1
 311 1 254 -10 221 -10 c 0
 124 -10 95 46 95 137 c 2
 95 447 l 1
 27 447 l 1
 27 500 l 1
 95 500 l 1
 95 653 l 1
 154 653 l 1
 154 500 l 1
 302 500 l 1
 302 447 l 1
EndSplineSet
EndChar
StartChar: u
Encoding: 117 117 399
Width: 496
Flags: MW
HStem: -10 53<189.5 259> 0 21G<368 427 368 368> 480 20G<65 125 125 125 367 427 427 427>
VStem: 65 60<195 207 207 500> 367 60<144 500 0 500>
LayerCount: 2
Back
Fore
SplineSet
367 500 m 1xb8
 427 500 l 1
 427 0 l 1
 368 0 l 1x78
 368 82 l 1
 368 82 302 -10 216 -10 c 0
 109 -10 65 57 65 195 c 2
 65 500 l 1
 125 500 l 1
 125 207 l 2
 125 95 153 43 226 43 c 0
 299 43 367 144 367 144 c 1
 367 500 l 1xb8
EndSplineSet
EndChar
StartChar: v
Encoding: 118 118 400
Width: 445
Flags: MW
HStem: 0 52<205 240 205 283 161 240> 480 20G<25 87 87 87 358 419 419 419>
VStem: 25 394<500 500>
LayerCount: 2
Back
Fore
SplineSet
25 500 m 1
 87 500 l 1
 205 52 l 1
 240 52 l 1
 358 500 l 1
 419 500 l 1
 283 0 l 1
 161 0 l 1
 25 500 l 1
EndSplineSet
EndChar
StartChar: w
Encoding: 119 119 401
Width: 721
Flags: MW
HStem: 0 52<193 213 193 255 145 213 508 528> 480 20G<31 92 92 92 629 689 689 689>
VStem: 31 658<500 500>
LayerCount: 2
Back
Fore
SplineSet
31 500 m 1
 92 500 l 1
 193 52 l 1
 213 52 l 1
 328 490 l 1
 392 490 l 1
 508 52 l 1
 528 52 l 1
 629 500 l 1
 689 500 l 1
 576 0 l 1
 466 0 l 1
 360 409 l 1
 255 0 l 1
 145 0 l 1
 31 500 l 1
EndSplineSet
EndChar
StartChar: x
Encoding: 120 120 402
Width: 413
Flags: MW
HStem: 0 21G<24 86 24 24 326 389 326 326> 480 20G<23 86 86 86 328 389 389 389>
VStem: 23 366<500 500>
LayerCount: 2
Back
Fore
SplineSet
23 500 m 1
 86 500 l 1
 208 293 l 1
 328 500 l 1
 389 500 l 1
 240 249 l 1
 389 0 l 1
 326 0 l 1
 206 203 l 1
 86 0 l 1
 24 0 l 1
 173 248 l 1
 23 500 l 1
EndSplineSet
EndChar
StartChar: z
Encoding: 122 122 404
Width: 422
Flags: MW
HStem: 0 52<107 382 39 39> 447 53<39 382 39 314>
VStem: 39 343<0 52 0 52 449 500>
LayerCount: 2
Back
Fore
SplineSet
39 447 m 1
 39 500 l 1
 382 500 l 1
 382 449 l 1
 107 52 l 1
 382 52 l 1
 382 0 l 1
 39 0 l 1
 39 52 l 1
 314 447 l 1
 39 447 l 1
EndSplineSet
EndChar
StartChar: braceleft
Encoding: 123 123 240
Width: 332
Flags: MW
HStem: -126 56<290 292> 696 55<290 292>
VStem: 115 59<-2 52 567 616> 121 60<407.5 459.5>
LayerCount: 2
Back
Fore
SplineSet
181 178 m 0xe0
 181 148 174 70 174 35 c 0
 174 -39 226 -69 292 -70 c 1
 290 -126 l 1
 190 -125 115 -81 115 36 c 0
 115 68 122 145 122 174 c 0
 122 257 58 271 26 284 c 1xe0
 26 336 l 1
 60 342 121 371 121 440 c 0xd0
 121 479 115 541 115 574 c 0
 115 696 165 750 290 751 c 1
 292 696 l 1
 197 694 174 656 174 576 c 0xe0
 174 558 181 473 181 451 c 0
 181 364 154 335 92 311 c 1xd0
 151 290 181 249 181 178 c 0xe0
EndSplineSet
Substitution2: "'case' Case-Sensitive Forms in Latin lookup 4 subtable" braceleft.cap
EndChar
StartChar: bar
Encoding: 124 124 221
Width: 208
Flags: MW
HStem: -225 21G<74 74 74 134> 702 20G<74 134 134 134>
VStem: 74 60<-225 722 -225 722>
LayerCount: 2
Back
Fore
SplineSet
74 -225 m 1
 74 722 l 1
 134 722 l 1
 134 -225 l 1
 74 -225 l 1
EndSplineSet
EndChar
StartChar: braceright
Encoding: 125 125 241
Width: 331
Flags: MW
HStem: -126 55<39 41> 695 56<39 41>
VStem: 150 60<165.5 217.5> 157 59<9 58 573 627>
LayerCount: 2
Back
Fore
SplineSet
150 447 m 0xd0
 150 477 157 555 157 590 c 0
 157 664 105 694 39 695 c 1
 41 751 l 1
 141 750 216 706 216 589 c 0
 216 557 209 480 209 451 c 0
 209 368 273 354 305 341 c 1xd0
 305 289 l 1
 271 283 210 254 210 185 c 0xe0
 210 146 216 84 216 51 c 0
 216 -71 166 -125 41 -126 c 1
 39 -71 l 1
 134 -69 157 -31 157 49 c 0xd0
 157 67 150 152 150 174 c 0
 150 261 177 290 239 314 c 1xe0
 180 335 150 376 150 447 c 0xd0
EndSplineSet
Substitution2: "'case' Case-Sensitive Forms in Latin lookup 4 subtable" braceright.cap
EndChar
StartChar: asciitilde
Encoding: 126 126 211
Width: 560
Flags: MW
HStem: 201 56<358.5 399.5 358.5 407> 267 56<162.5 203.5>
VStem: 68 425<255 269>
LayerCount: 2
Back
Fore
SplineSet
483 305 m 1
 493 255 l 1
 493 255 433 201 381 201 c 0xe0
 325 201 225 267 182 267 c 0
 143 267 78 218 78 218 c 1
 68 269 l 1
 68 269 130 323 182 323 c 0x60
 239 323 336 257 381 257 c 0
 418 257 483 305 483 305 c 1
EndSplineSet
EndChar
StartChar: exclamdown
Encoding: 161 161 281
Width: 205
Flags: MW
HStem: 400 100<71 132 71 132>
VStem: 73 58
LayerCount: 2
Back
Fore
SplineSet
130 277 m 1
 132 -200 l 1
 71 -200 l 1
 75 277 l 1
 130 277 l 1
132 500 m 1
 132 400 l 1
 71 400 l 1
 71 500 l 1
 132 500 l 1
EndSplineSet
Substitution2: "'case' Case-Sensitive Forms in Latin lookup 4 subtable" exclamdown.cap
EndChar
StartChar: cent
Encoding: 162 162 242
Width: 560
Flags: MW
HStem: 50 46 403 182<279 321>
VStem: 113 61<199 303 199 322> 279 52<462 585 460 585>
LayerCount: 2
Back
Fore
SplineSet
280 -82 m 1
 280 39 l 1
 144 41 113 136 113 248 c 0
 113 396 177 455 279 462 c 1
 279 585 l 1
 331 585 l 1
 331 460 l 1
 372 457 431 450 431 450 c 1
 428 395 l 1
 428 395 339 403 303 403 c 0
 207 403 174 358 174 248 c 0
 174 150 193 96 310 96 c 0
 346 96 430 104 430 104 c 1
 432 50 l 1
 432 50 371 43 332 41 c 1
 332 -82 l 1
 280 -82 l 1
EndSplineSet
EndChar
StartChar: sterling
Encoding: 163 163 249
Width: 560
Flags: MW
HStem: 0 53<79 173 235 388 79 173> 363 53<98 173 98 173 235 434> 625 54<275.5 330.5 248.5 335.5> 664 21G<445 445>
VStem: 173 62<53 363 53 363 416 467>
LayerCount: 2
Back
Fore
SplineSet
445 664 m 1xd8
 444 614 l 1
 444 614 355 625 316 625 c 0
 235 625 235 558 235 467 c 2
 235 416 l 1
 434 416 l 1
 434 363 l 1
 235 363 l 1
 235 53 l 1
 388 53 l 1
 463 69 l 1
 472 18 l 1
 396 0 l 1
 79 0 l 1
 79 53 l 1
 173 53 l 1
 173 363 l 1
 98 363 l 1
 98 416 l 1
 173 416 l 1
 173 470 l 2
 173 595 186 679 311 679 c 0xe8
 350 679 445 664 445 664 c 1xd8
EndSplineSet
EndChar
StartChar: currency
Encoding: 164 164 273
Width: 560
Flags: MW
HStem: 75 58 370 58
VStem: 103 58 399 57
LayerCount: 2
Back
Fore
SplineSet
452 37 m 1
 382 107 l 1
 321 64 238 64 177 108 c 1
 108 37 l 1
 65 80 l 1
 136 149 l 1
 92 210 92 293 135 354 c 1
 65 424 l 1
 108 467 l 1
 177 396 l 1
 238 439 321 439 382 396 c 1
 452 467 l 1
 495 424 l 1
 424 354 l 1
 467 293 467 210 424 149 c 1
 495 80 l 1
 452 37 l 1
195 167 m 0
 242 122 318 122 364 167 c 0
 410 214 410 290 364 336 c 0
 318 382 242 382 195 336 c 0
 150 290 150 214 195 167 c 0
EndSplineSet
EndChar
StartChar: yen
Encoding: 165 165 215
Width: 560
Flags: MW
HStem: 0 21G<250 312 250 250> 168 55<71 250 71 250 312 489> 317 55<71 206 71 206 71 240 354 489>
VStem: 250 62<0 168 0 168 223 300>
LayerCount: 2
Back
Fore
SplineSet
71 317 m 1
 71 372 l 1
 206 372 l 1
 35 661 l 1
 102 661 l 1
 281 362 l 1
 457 661 l 1
 525 661 l 1
 354 372 l 1
 489 372 l 1
 489 317 l 1
 323 317 l 1
 312 300 l 1
 312 223 l 1
 489 223 l 1
 489 168 l 1
 312 168 l 1
 312 0 l 1
 250 0 l 1
 250 168 l 1
 71 168 l 1
 71 223 l 1
 250 223 l 1
 250 300 l 1
 240 317 l 1
 71 317 l 1
EndSplineSet
EndChar
StartChar: brokenbar
Encoding: 166 166 204
Width: 212
Flags: MW
HStem: -225 21G<76 136 76 76> 702 20G<76 136 136 136>
VStem: 76 60<-225 152 -225 152 347 722>
LayerCount: 2
Back
Fore
SplineSet
76 722 m 1
 136 722 l 1
 136 347 l 1
 76 347 l 1
 76 722 l 1
76 152 m 1
 136 152 l 1
 136 -225 l 1
 76 -225 l 1
 76 152 l 1
EndSplineSet
EndChar
StartChar: section
Encoding: 167 167 157
Width: 462
Flags: MW
HStem: -139 56<200 265 200 285.5> 597 56<205 261.5>
VStem: 50 56<241.5 294 241.5 295> 59 58<467 540 466.5 543.5> 347 55<-13.5 43.5 -29 56.5> 350 57<223.5 279.5>
LayerCount: 2
Back
Fore
SplineSet
389 638 m 1xd8
 386 583 l 1
 386 583 284 597 239 597 c 0
 171 597 117 577 117 503 c 0
 117 430 153 414 253 394 c 0
 345 376 407 350 407 251 c 0xd4
 407 196 375 133 369 123 c 1
 394 102 402 61 402 26 c 0
 402 -84 342 -139 229 -139 c 0
 170 -139 65 -123 65 -123 c 1
 71 -69 l 1
 71 -69 174 -83 226 -83 c 0
 304 -83 347 -50 347 23 c 0
 347 90 299 102 211 118 c 0
 106 137 50 168 50 265 c 0xe8
 50 325 95 379 101 387 c 1
 75 412 59 435 59 499 c 0
 59 588 112 653 237 653 c 0
 298 653 389 638 389 638 c 1xd8
246 338 m 0
 211 346 160 355 142 365 c 0
 140 362 106 315 106 273 c 0xe8
 106 210 144 189 225 175 c 0
 268 168 302 160 324 147 c 1
 327 150 350 197 350 244 c 0
 350 315 303 327 246 338 c 0
EndSplineSet
EndChar
StartChar: dieresis
Encoding: 168 168 8
Width: 722
Flags: MW
HStem: 625 82<101 150 101 150 280 328>
VStem: 101 49<625 707 625 707> 280 48<625 707 625 707>
LayerCount: 2
Back
Fore
SplineSet
101 625 m 1
 101 707 l 1
 150 707 l 1
 150 625 l 1
 101 625 l 1
280 625 m 1
 280 707 l 1
 328 707 l 1
 328 625 l 1
 280 625 l 1
EndSplineSet
EndChar
StartChar: copyright
Encoding: 169 169 158
Width: 633
Flags: MW
HStem: 164 39<252 380 252 392> 278 48<293.5 335.5 293.5 336.5> 542 48<291.5 337> 665 39<252.5 379.5>
VStem: 56 39<370.5 497.5 370.5 509.5> 204 50<399 469 399 483.5> 537 40<370 497.5>
LayerCount: 2
Back
Fore
SplineSet
56 434 m 0
 56 585 166 704 316 704 c 0
 468 704 577 583 577 434 c 0
 577 283 468 164 316 164 c 0
 166 164 56 284 56 434 c 0
95 434 m 0
 95 307 188 203 316 203 c 0
 444 203 537 306 537 434 c 0
 537 561 443 665 316 665 c 0
 189 665 95 561 95 434 c 0
392 333 m 1
 395 288 l 1
 395 288 355 278 318 278 c 0
 230 278 204 332 204 434 c 0
 204 533 229 590 319 590 c 0
 360 590 395 581 395 581 c 1
 392 535 l 1
 392 535 353 542 321 542 c 0
 262 542 254 504 254 434 c 0
 254 364 266 326 321 326 c 0
 350 326 392 333 392 333 c 1
EndSplineSet
EndChar
StartChar: ordfeminine
Encoding: 170 170 208
Width: 370
Flags: MW
HStem: 368 45<132 160> 501.5 39.5 613 46<166 201>
VStem: 53 54<440.5 469.5 440.5 481.5> 234 52<431 504 504 504 544 564 428 566 428 583.5>
LayerCount: 2
Back
Fore
SplineSet
286 564 m 2
 286 428 l 1
 293 418 307 412 319 409 c 1
 317 368 l 1
 273 368 260 376 244 392 c 1
 244 392 187 368 133 368 c 0
 84 368 53 402 53 455 c 0
 53 508 82 534 141 538 c 2
 234 544 l 1
 234 566 l 2
 234 601 218 613 184 613 c 0
 148 613 74 606 74 606 c 1
 71 646 l 1
 71 646 141 659 186 659 c 0
 252 659 286 635 286 564 c 2
234 504 m 1
 150 499 l 2
 119 497 107 484 107 455 c 0
 107 426 120 413 144 413 c 0
 183 413 234 431 234 431 c 1
 234 504 l 1
EndSplineSet
EndChar
StartChar: guillemotleft
Encoding: 171 171 383
Width: 487
Flags: MW
HStem: 89 313<275 275 275 355>
VStem: 106 169<89 266 89 266> 186 169<89 266 89 266>
LayerCount: 2
Back
Fore
SplineSet
275 402 m 1xc0
 275 347 l 1
 153 250 l 1
 275 144 l 1
 275 89 l 1
 106 234 l 1
 106 266 l 1
 275 402 l 1xc0
355 402 m 1xa0
 355 347 l 1
 233 250 l 1
 355 144 l 1
 355 89 l 1
 186 234 l 1
 186 266 l 1
 355 402 l 1xa0
EndSplineSet
EndChar
StartChar: logicalnot
Encoding: 172 172 277
Width: 560
Flags: MW
HStem: 283 55<67 436 67 493>
VStem: 436 57<120 283 283 283>
LayerCount: 2
Back
Fore
SplineSet
67 338 m 1
 493 338 l 1
 493 120 l 1
 436 120 l 1
 436 283 l 1
 67 283 l 1
 67 338 l 1
EndSplineSet
EndChar
StartChar: registered
Encoding: 174 174 160
Width: 633
Flags: MW
HStem: 164 39<252.5 380 252.5 392> 394 41<257 324 324 325 257 324> 542 41<257 257 257 310> 665 39<252.5 379.5>
VStem: 56 39<370.5 497.5 370.5 509.5> 209 48<283 394 283 435 435 542> 379 47<469 508.5> 537 40<370 497.5>
LayerCount: 2
Back
Fore
SplineSet
56 434 m 0
 56 585 166 704 316 704 c 0
 468 704 577 583 577 434 c 0
 577 283 468 164 316 164 c 0
 166 164 56 284 56 434 c 0
95 434 m 0
 95 307 189 203 316 203 c 0
 444 203 537 306 537 434 c 0
 537 561 443 665 316 665 c 0
 189 665 95 561 95 434 c 0
380 283 m 1
 325 394 l 1
 257 394 l 1
 257 283 l 1
 209 283 l 1
 209 583 l 1
 313 583 l 2
 386 583 426 560 426 490 c 0
 426 442 413 414 373 400 c 1
 432 283 l 1
 380 283 l 1
257 542 m 1
 257 435 l 1
 324 435 l 2
 363 435 379 449 379 489 c 0
 379 528 357 542 310 542 c 2
 257 542 l 1
EndSplineSet
EndChar
StartChar: macron
Encoding: 175 175 12
Width: 433
Flags: MW
HStem: 642 47<80 346 80 346>
VStem: 80 266<642 689 642 689>
LayerCount: 2
Back
Fore
SplineSet
80 642 m 1
 80 689 l 1
 346 689 l 1
 346 642 l 1
 80 642 l 1
EndSplineSet
EndChar
StartChar: degree
Encoding: 176 176 156
Width: 560
Flags: MW
HStem: 427 42<251 309 251 321.5> 662 43<251 309>
VStem: 140 45<536 594 536 606.5> 377 42<536 594>
LayerCount: 2
Back
Fore
SplineSet
140 565 m 0
 140 648 197 705 280 705 c 0
 363 705 419 648 419 565 c 0
 419 482 363 427 280 427 c 0
 197 427 140 482 140 565 c 0
185 565 m 0
 185 507 222 469 280 469 c 0
 338 469 377 507 377 565 c 0
 377 623 338 662 280 662 c 0
 222 662 185 623 185 565 c 0
EndSplineSet
EndChar
StartChar: twosuperior
Encoding: 178 178 258
Width: 280
Flags: MW
HStem: 478 49<102 237 102 237> 748 51<113.5 140>
VStem: 177 55<690 722>
LayerCount: 2
Back
Fore
SplineSet
237 478 m 1
 33 478 l 1
 33 526 l 1
 125 619 l 2
 155 649 177 673 177 707 c 0
 177 737 155 748 125 748 c 0
 94 748 38 738 38 738 c 1
 36 787 l 1
 36 787 92 799 135 799 c 0
 201 799 232 771 232 711 c 0
 232 664 208 633 169 595 c 2
 102 527 l 1
 237 527 l 1
 237 478 l 1
EndSplineSet
Substitution2: "Single Substitution lookup 5 subtable" twoinferior
EndChar
StartChar: threesuperior
Encoding: 179 179 259
Width: 280
Flags: MW
HStem: 468 50<118.5 157 115 176> 614 47<76 140 140 141 76 140> 750 49<115 151.5>
VStem: 184 55<697.5 724.5> 192 56<551 584>
LayerCount: 2
Back
Fore
SplineSet
37 789 m 1xe8
 37 789 93 799 137 799 c 0
 206 799 239 774 239 717 c 0xf0
 239 664 201 644 196 641 c 1
 228 631 248 618 248 564 c 0
 248 498 209 468 143 468 c 0
 94 468 33 479 33 479 c 1
 36 526 l 1
 36 526 92 518 138 518 c 0
 176 518 192 537 192 565 c 0
 192 603 171 614 141 614 c 2xe8
 76 614 l 1
 76 661 l 1
 140 661 l 2
 160 661 184 683 184 712 c 0
 184 737 170 750 133 750 c 0xf0
 90 750 40 742 40 742 c 1
 37 789 l 1xe8
EndSplineSet
Substitution2: "Single Substitution lookup 5 subtable" threeinferior
EndChar
StartChar: acute
Encoding: 180 180 2
Width: 542
Flags: MW
HStem: 601 140
VStem: 126 216<645 689>
LayerCount: 2
Back
Fore
SplineSet
144 601 m 1
 126 645 l 1
 323 741 l 1
 342 689 l 1
 144 601 l 1
EndSplineSet
EndChar
StartChar: mu
Encoding: 181 181 223
Width: 560
Flags: MW
HStem: -225 21G<99 99 99 159> -10 53<231 293> 0 21G<402 461 402 402> 480 20G<99 159 159 159 401 461 461 461>
VStem: 99 60<-225 15 151 207 207 500> 401 60<144 500 0 500>
LayerCount: 2
Back
Fore
SplineSet
99 -225 m 1xdc
 99 500 l 1
 159 500 l 1
 159 207 l 2
 159 95 187 43 260 43 c 0xdc
 333 43 401 144 401 144 c 1
 401 500 l 1
 461 500 l 1
 461 0 l 1
 402 0 l 1xbc
 402 82 l 1
 402 82 336 -10 250 -10 c 0
 212 -10 182 -1 159 15 c 1
 159 -225 l 1
 99 -225 l 1xdc
EndSplineSet
EndChar
StartChar: paragraph
Encoding: 182 182 250
Width: 552
Flags: MW
HStem: 0 21G<214 266 214 214 389 441 389 389> 646 54<266 389 266 266 441 441 441 518>
VStem: 214 52<0 338 338 338> 389 52<0 646 0 646>
LayerCount: 2
Back
Fore
SplineSet
389 0 m 1
 389 646 l 1
 266 646 l 1
 266 0 l 1
 214 0 l 1
 214 338 l 1
 103 338 33 419 33 506 c 0
 33 614 87 700 208 700 c 2
 518 700 l 1
 518 646 l 1
 441 646 l 1
 441 0 l 1
 389 0 l 1
EndSplineSet
EndChar
StartChar: periodcentered
Encoding: 183 183 271
Width: 194
Flags: MW
HStem: 254 105<66 128 66 128>
VStem: 66 62<254 359 254 359>
LayerCount: 2
Back
Fore
SplineSet
66 254 m 1
 66 359 l 1
 128 359 l 1
 128 254 l 1
 66 254 l 1
EndSplineSet
Substitution2: "'case' Case-Sensitive Forms in Latin lookup 4 subtable" periodcentered.cap
EndChar
StartChar: cedilla
Encoding: 184 184 5
Width: 791
Flags: MW
HStem: -207 46<423.5 447.5 420.5 469.5> -87 39<427 434 427 434 391 434>
VStem: 391 36<-48 5 -48 5 -48 5> 477 52<-136 -106.5>
LayerCount: 2
Back
Fore
SplineSet
529 -124 m 0
 529 -182 495 -207 444 -207 c 0
 403 -207 365 -201 365 -201 c 1
 368 -157 l 1
 368 -157 407 -161 434 -161 c 0
 461 -161 477 -150 477 -122 c 0
 477 -91 457 -87 434 -87 c 2
 391 -87 l 1
 391 5 l 1
 427 5 l 1
 427 -48 l 1
 434 -48 l 2
 484 -48 529 -60 529 -124 c 0
EndSplineSet
EndChar
StartChar: onesuperior
Encoding: 185 185 257
Width: 280
Flags: MW
HStem: 478 312<139 190 139 190 136 190>
VStem: 136 54<478 731 731 731>
LayerCount: 2
Back
Fore
SplineSet
38 721 m 1
 139 790 l 1
 190 790 l 1
 190 478 l 1
 136 478 l 1
 136 731 l 1
 63 681 l 1
 38 721 l 1
EndSplineSet
Substitution2: "Single Substitution lookup 5 subtable" oneinferior
EndChar
StartChar: ordmasculine
Encoding: 186 186 209
Width: 352
Flags: MW
HStem: 366 50<156.5 202.5 156.5 216> 607 51<151.5 197>
VStem: 53 53<506.5 549 506.5 565> 247 53<477.5 521>
LayerCount: 2
Back
Fore
SplineSet
177 658 m 0
 229 658 269 640 286 597 c 0
 297 571 300 541 300 514 c 0
 300 411 255 366 177 366 c 0
 111 366 68 397 56 467 c 0
 54 481 53 496 53 514 c 0
 53 616 98 658 177 658 c 0
177 416 m 0
 228 416 247 441 247 514 c 0
 247 528 246 540 245 551 c 0
 237 594 217 607 177 607 c 0
 126 607 106 584 106 514 c 0
 106 499 108 486 109 475 c 0
 116 431 136 416 177 416 c 0
EndSplineSet
EndChar
StartChar: guillemotright
Encoding: 187 187 384
Width: 492
Flags: MW
HStem: 95 313<136 136 136 212>
VStem: 136 169<95 263 150 263 231 408 231 408> 212 169<95 263 150 263 231 408 231 408>
LayerCount: 2
Back
Fore
SplineSet
136 95 m 1xc0
 136 150 l 1
 258 247 l 1
 136 353 l 1
 136 408 l 1
 305 263 l 1
 305 231 l 1
 136 95 l 1xc0
212 95 m 1xa0
 212 150 l 1
 334 247 l 1
 212 353 l 1
 212 408 l 1
 381 263 l 1
 381 231 l 1
 212 95 l 1xa0
EndSplineSet
EndChar
StartChar: onequarter
Encoding: 188 188 421
Width: 548
Flags: MW
HStem: -7 21G 0 101<348 434 348 487> 51 50<348 434 348 434 487 518>
VStem: 120 54<478 731 731 731> 436 51
LayerCount: 2
Back
Fore
SplineSet
22 721 m 1x58
 123 790 l 1
 174 790 l 1
 174 478 l 1
 120 478 l 1
 120 731 l 1
 47 681 l 1
 22 721 l 1x58
142 -7 m 1x98
 87 14 l 1
 350 704 l 1
 405 684 l 1
 142 -7 l 1x98
434 0 m 1x58
 434 51 l 1
 292 51 l 1
 292 97 l 1x38
 368 312 l 1
 426 312 l 1
 348 101 l 1
 434 101 l 1
 438 188 l 1
 487 188 l 1
 487 101 l 1
 518 101 l 1x58
 518 51 l 1
 487 51 l 1x38
 487 0 l 1
 434 0 l 1x58
EndSplineSet
EndChar
StartChar: onehalf
Encoding: 189 189 442
Width: 569
Flags: MW
HStem: -7 21G 0 49<395 530 395 530> 270 51<406.5 433>
VStem: 120 54<478 731 731 731> 470 55<212 244>
LayerCount: 2
Back
Fore
SplineSet
22 721 m 1x78
 123 790 l 1
 174 790 l 1
 174 478 l 1
 120 478 l 1
 120 731 l 1
 47 681 l 1
 22 721 l 1x78
142 -7 m 1xb8
 87 14 l 1
 350 704 l 1
 405 684 l 1
 142 -7 l 1xb8
530 0 m 1x78
 326 0 l 1
 326 48 l 1
 418 141 l 2
 448 171 470 195 470 229 c 0
 470 259 448 270 418 270 c 0
 387 270 331 260 331 260 c 1
 329 309 l 1
 329 309 385 321 428 321 c 0
 494 321 525 293 525 233 c 0
 525 186 501 155 462 117 c 2
 395 49 l 1
 530 49 l 1
 530 0 l 1x78
EndSplineSet
EndChar
StartChar: threequarters
Encoding: 190 190 443
Width: 574
Flags: MW
HStem: -7 21G 0 101<376 462 376 515> 51 50<376 462 376 462 515 546> 468 50<126.5 165 123 184> 614 47<84 148 148 149 84 148> 750 49<123 159.5>
VStem: 192 55<697.5 724.5> 200 56<551 584> 464 51
LayerCount: 2
Back
Fore
SplineSet
45 789 m 1x5d80
 45 789 101 799 145 799 c 0
 214 799 247 774 247 717 c 0x5e80
 247 664 209 644 204 641 c 1
 236 631 256 618 256 564 c 0
 256 498 217 468 151 468 c 0
 102 468 41 479 41 479 c 1
 44 526 l 1
 44 526 100 518 146 518 c 0
 184 518 200 537 200 565 c 0
 200 603 179 614 149 614 c 2x5d80
 84 614 l 1
 84 661 l 1
 148 661 l 2
 168 661 192 683 192 712 c 0
 192 737 178 750 141 750 c 0x5e80
 98 750 48 742 48 742 c 1
 45 789 l 1x5d80
169 -7 m 1x9d80
 114 14 l 1
 377 704 l 1
 432 684 l 1
 169 -7 l 1x9d80
462 0 m 1x5d80
 462 51 l 1
 320 51 l 1
 320 97 l 1x3d80
 396 312 l 1
 454 312 l 1
 376 101 l 1
 462 101 l 1
 466 188 l 1
 515 188 l 1
 515 101 l 1
 546 101 l 1x5d80
 546 51 l 1
 515 51 l 1x3d80
 515 0 l 1
 462 0 l 1x5d80
EndSplineSet
EndChar
StartChar: questiondown
Encoding: 191 191 266
Width: 400
Flags: MW
HStem: -204 56<179 249> 396 104<202 265 202 265>
VStem: 34 64<-83 -16.5 -83 -9> 202 63<396 500 396 500>
LayerCount: 2
Back
Fore
SplineSet
34 -39 m 0
 34 21 58 58 139 150 c 0
 178 195 202 229 202 268 c 2
 202 308 l 1
 260 308 l 1
 260 308 264 280 264 261 c 0
 264 206 239 175 182 109 c 0
 119 33 98 6 98 -39 c 0
 98 -127 135 -148 223 -148 c 0
 280 -148 364 -127 364 -127 c 1
 372 -178 l 1
 372 -178 279 -204 219 -204 c 0
 94 -204 34 -163 34 -39 c 0
265 500 m 1
 265 396 l 1
 202 396 l 1
 202 500 l 1
 265 500 l 1
EndSplineSet
Substitution2: "'case' Case-Sensitive Forms in Latin lookup 4 subtable" questiondown.cap
EndChar
StartChar: Aacute
Encoding: 193 193 17
Width: 553
Flags: MW
HStem: 0 21G<24 24 24 86 467 467 467 529> 191 54<152 400 152 414 140 400> 639 56<260 260 260 293>
VStem: 24 505<0 0>
LayerCount: 2
Back
Fore
SplineSet
220 790 m 1
 201 833 l 1
 398 930 l 1
 418 878 l 1
 220 790 l 1
24 0 m 1
 213 695 l 1
 341 695 l 1
 529 0 l 1
 467 0 l 1
 414 191 l 1
 140 191 l 1
 86 0 l 1
 24 0 l 1
260 639 m 1
 152 245 l 1
 400 245 l 1
 293 639 l 1
 260 639 l 1
EndSplineSet
Position2: "'cpsp' Capital Spacing in Latin lookup 0 subtable" dx=5 dy=0 dh=10 dv=0
EndChar
StartChar: Acircumflex
Encoding: 194 194 19
Width: 553
Flags: MW
HStem: 0 21G<24 24 24 86 467 467 467 529> 191 54<152 400 152 414 140 400> 639 56<260 260 260 293> 797 134<129 290 129 290 258 361 258 421>
VStem: 24 505<0 0>
LayerCount: 2
Back
Fore
SplineSet
129 797 m 1
 258 931 l 1
 290 931 l 1
 421 797 l 1
 361 797 l 1
 275 882 l 1
 188 797 l 1
 129 797 l 1
24 0 m 1
 213 695 l 1
 341 695 l 1
 529 0 l 1
 467 0 l 1
 414 191 l 1
 140 191 l 1
 86 0 l 1
 24 0 l 1
260 639 m 1
 152 245 l 1
 400 245 l 1
 293 639 l 1
 260 639 l 1
EndSplineSet
Position2: "'cpsp' Capital Spacing in Latin lookup 0 subtable" dx=5 dy=0 dh=10 dv=0
EndChar
StartChar: Atilde
Encoding: 195 195 25
Width: 553
Flags: MW
HStem: 0 21G<24 24 24 86 467 467 467 529> 191 54<152 400 152 414 140 400> 639 56<260 260 260 293> 809 53<344.5 368 344.5 373> 868 52<194 221>
VStem: 24 505<0 0>
LayerCount: 2
Back
Fore
SplineSet
428 909 m 1
 441 868 l 1
 441 868 389 809 357 809 c 0xf4
 315 809 237 868 205 868 c 0
 183 868 129 818 129 818 c 1
 117 860 l 1
 117 860 173 920 207 920 c 0xec
 252 920 330 862 359 862 c 0
 377 862 428 909 428 909 c 1
24 0 m 1
 213 695 l 1
 341 695 l 1
 529 0 l 1
 467 0 l 1
 414 191 l 1
 140 191 l 1
 86 0 l 1
 24 0 l 1
260 639 m 1
 152 245 l 1
 400 245 l 1
 293 639 l 1
 260 639 l 1
EndSplineSet
Position2: "'cpsp' Capital Spacing in Latin lookup 0 subtable" dx=5 dy=0 dh=10 dv=0
EndChar
StartChar: Ccedilla
Encoding: 199 199 32
Width: 502
Flags: MW
HStem: -207 46<290.5 314.5 287.5 336.5> -87 39<294 301 294 301 258 301> -10 56<294 294> -8 54<258 258> 649 56<221 330.5>
VStem: 56 64<257 437 257 455> 258 36<-48 -10 -48 -8 -48 -8> 344 52<-136 -106.5>
LayerCount: 2
Back
Fore
SplineSet
459 63 m 1xdf
 463 11 l 1xdf
 463 11 370 -9 294 -10 c 1xef
 294 -48 l 1
 301 -48 l 2
 351 -48 396 -60 396 -124 c 0
 396 -182 362 -207 311 -207 c 0
 270 -207 232 -201 232 -201 c 1
 235 -157 l 1
 235 -157 274 -161 301 -161 c 0
 328 -161 344 -150 344 -122 c 0
 344 -91 324 -87 301 -87 c 2
 258 -87 l 1
 258 -8 l 1
 93 6 56 139 56 346 c 0
 56 564 103 705 290 705 c 0
 375 705 463 684 463 684 c 1
 459 631 l 1
 459 631 366 649 295 649 c 0
 147 649 120 528 120 346 c 0
 120 168 147 46 296 46 c 0
 359 46 459 63 459 63 c 1xdf
EndSplineSet
Position2: "'cpsp' Capital Spacing in Latin lookup 0 subtable" dx=5 dy=0 dh=10 dv=0
EndChar
StartChar: Egrave
Encoding: 200 200 45
Width: 508
Flags: MW
HStem: 0 55<141 463 141 463> 327 55<141 407 141 407> 640 55<141 463 141 141>
VStem: 80 61<55 327 382 640>
LayerCount: 2
Back
Fore
SplineSet
165 927 m 1
 361 831 l 1
 343 787 l 1
 145 875 l 1
 165 927 l 1
80 0 m 1
 80 695 l 1
 463 695 l 1
 463 640 l 1
 141 640 l 1
 141 382 l 1
 407 382 l 1
 407 327 l 1
 141 327 l 1
 141 55 l 1
 463 55 l 1
 463 0 l 1
 80 0 l 1
EndSplineSet
Position2: "'cpsp' Capital Spacing in Latin lookup 0 subtable" dx=5 dy=0 dh=10 dv=0
EndChar
StartChar: Ecircumflex
Encoding: 202 202 42
Width: 508
Flags: MW
HStem: 0 55<141 463 141 463> 327 55<141 407 141 407> 640 55<141 463 141 141> 798 134<126 287 126 287 255 358 255 418>
VStem: 80 61<55 327 382 640>
LayerCount: 2
Back
Fore
SplineSet
126 798 m 1
 255 932 l 1
 287 932 l 1
 418 798 l 1
 358 798 l 1
 272 883 l 1
 185 798 l 1
 126 798 l 1
80 0 m 1
 80 695 l 1
 463 695 l 1
 463 640 l 1
 141 640 l 1
 141 382 l 1
 407 382 l 1
 407 327 l 1
 141 327 l 1
 141 55 l 1
 463 55 l 1
 463 0 l 1
 80 0 l 1
EndSplineSet
Position2: "'cpsp' Capital Spacing in Latin lookup 0 subtable" dx=5 dy=0 dh=10 dv=0
EndChar
StartChar: Edieresis
Encoding: 203 203 43
Width: 508
Flags: MW
HStem: 0 55<141 463 141 463> 327 55<141 407 141 407> 640 55<141 463 141 141> 820 83<163 211 163 211 347 395>
VStem: 80 61<55 327 382 640> 163 48<820 903 820 903> 347 48<820 903 820 903>
LayerCount: 2
Back
Fore
SplineSet
163 820 m 1
 163 903 l 1
 211 903 l 1
 211 820 l 1
 163 820 l 1
347 820 m 1
 347 903 l 1
 395 903 l 1
 395 820 l 1
 347 820 l 1
80 0 m 1xfa
 80 695 l 1
 463 695 l 1
 463 640 l 1
 141 640 l 1
 141 382 l 1
 407 382 l 1
 407 327 l 1
 141 327 l 1
 141 55 l 1
 463 55 l 1
 463 0 l 1
 80 0 l 1xfa
EndSplineSet
Position2: "'cpsp' Capital Spacing in Latin lookup 0 subtable" dx=5 dy=0 dh=10 dv=0
EndChar
StartChar: Igrave
Encoding: 204 204 63
Width: 221
Flags: MW
HStem: 0 21G<80 80 80 141>
VStem: 80 61<0 695 0 695>
LayerCount: 2
Back
Fore
SplineSet
-31 927 m 1
 165 831 l 1
 147 787 l 1
 -51 875 l 1
 -31 927 l 1
80 0 m 1
 80 695 l 1
 141 695 l 1
 141 0 l 1
 80 0 l 1
EndSplineSet
Position2: "'cpsp' Capital Spacing in Latin lookup 0 subtable" dx=5 dy=0 dh=10 dv=0
EndChar
StartChar: Iacute
Encoding: 205 205 58
Width: 221
Flags: MW
HStem: 0 21G<80 80 80 141>
VStem: 80 61<0 695 0 695>
LayerCount: 2
Back
Fore
SplineSet
66 790 m 1
 47 833 l 1
 244 930 l 1
 264 878 l 1
 66 790 l 1
80 0 m 1
 80 695 l 1
 141 695 l 1
 141 0 l 1
 80 0 l 1
EndSplineSet
Position2: "'cpsp' Capital Spacing in Latin lookup 0 subtable" dx=5 dy=0 dh=10 dv=0
EndChar
StartChar: Icircumflex
Encoding: 206 206 60
Width: 221
Flags: MW
HStem: 0 21G<80 80 80 141> 794 134<-36 125 -36 125 93 196 93 256>
VStem: 80 61<0 695 0 695>
LayerCount: 2
Back
Fore
SplineSet
-36 794 m 1
 93 928 l 1
 125 928 l 1
 256 794 l 1
 196 794 l 1
 110 879 l 1
 23 794 l 1
 -36 794 l 1
80 0 m 1
 80 695 l 1
 141 695 l 1
 141 0 l 1
 80 0 l 1
EndSplineSet
Position2: "'cpsp' Capital Spacing in Latin lookup 0 subtable" dx=5 dy=0 dh=10 dv=0
EndChar
StartChar: Idieresis
Encoding: 207 207 61
Width: 221
Flags: MW
HStem: 0 21G<80 80 80 141> 823 83<-5 43 -5 43 179 227>
VStem: -5 48<823 906 823 906> 80 61<0 695 0 695> 179 48<823 906 823 906>
LayerCount: 2
Back
Fore
SplineSet
-5 823 m 1
 -5 906 l 1
 43 906 l 1
 43 823 l 1
 -5 823 l 1
179 823 m 1
 179 906 l 1
 227 906 l 1
 227 823 l 1
 179 823 l 1
80 0 m 1
 80 695 l 1
 141 695 l 1
 141 0 l 1
 80 0 l 1
EndSplineSet
Position2: "'cpsp' Capital Spacing in Latin lookup 0 subtable" dx=5 dy=0 dh=10 dv=0
EndChar
StartChar: Eth
Encoding: 208 208 407
Width: 605
Flags: MW
HStem: 0 55<145 315 145 315> 318 62<15 84 15 84 15 145 145 295> 639 56<145 315 145 145>
VStem: 84 61<55 318 55 318 55 318 380 639> 484 64<263.5 454>
LayerCount: 2
Back
Fore
SplineSet
315 0 m 2
 84 0 l 1
 84 318 l 1
 15 318 l 1
 15 380 l 1
 84 380 l 1
 84 695 l 1
 315 695 l 2
 489 695 548 592 548 359 c 0
 548 121 495 0 315 0 c 2
484 359 m 0
 484 549 450 639 315 639 c 2
 145 639 l 1
 145 380 l 1
 295 380 l 1
 295 318 l 1
 145 318 l 1
 145 55 l 1
 315 55 l 2
 450 55 484 168 484 359 c 0
EndSplineSet
Position2: "'cpsp' Capital Spacing in Latin lookup 0 subtable" dx=5 dy=0 dh=10 dv=0
EndChar
StartChar: Ntilde
Encoding: 209 209 81
Width: 623
Flags: MW
HStem: 0 61<431 484 465 484 465 544> 634 61<141 160 141 141> 807 53<379.5 403 379.5 408> 866 52<229 256>
VStem: 80 61<0 634 0 695> 484 60<61 695 0 695>
LayerCount: 2
Back
Fore
SplineSet
463 907 m 1
 476 866 l 1
 476 866 424 807 392 807 c 0xec
 350 807 272 866 240 866 c 0
 218 866 164 816 164 816 c 1
 152 858 l 1
 152 858 208 918 242 918 c 0xdc
 287 918 365 860 394 860 c 0
 412 860 463 907 463 907 c 1
80 0 m 1
 80 695 l 1
 194 695 l 1
 465 61 l 1
 484 61 l 1
 484 695 l 1
 544 695 l 1
 544 0 l 1
 431 0 l 1
 160 634 l 1
 141 634 l 1
 141 0 l 1
 80 0 l 1
EndSplineSet
Position2: "'cpsp' Capital Spacing in Latin lookup 0 subtable" dx=5 dy=0 dh=10 dv=0
EndChar
StartChar: Otilde
Encoding: 213 213 92
Width: 617
Flags: MW
HStem: -10 56<225.5 329.5 225.5 340> 649 56<289 392> 807 53<378.5 402 378.5 407> 866 52<228 255>
VStem: 57 64<249 432.5 249 434.5> 496 64<274.5 457>
LayerCount: 2
Back
Fore
SplineSet
462 907 m 1
 475 866 l 1
 475 866 423 807 391 807 c 0xec
 349 807 271 866 239 866 c 0
 217 866 163 816 163 816 c 1
 151 858 l 1
 151 858 207 918 241 918 c 0xdc
 286 918 364 860 393 860 c 0
 411 860 462 907 462 907 c 1
309 46 m 0
 350 46 381 51 407 64 c 0
 484 101 496 196 496 353 c 0
 496 561 475 649 309 649 c 0
 269 649 238 645 213 634 c 0
 133 601 121 512 121 353 c 0
 121 145 142 46 309 46 c 0
309 -10 m 0
 101 -10 57 111 57 353 c 0
 57 516 77 619 154 669 c 0
 191 693 241 705 309 705 c 0
 517 705 560 594 560 353 c 0
 560 183 539 73 454 22 c 0
 418 1 371 -10 309 -10 c 0
EndSplineSet
Position2: "'cpsp' Capital Spacing in Latin lookup 0 subtable" dx=5 dy=0 dh=10 dv=0
EndChar
StartChar: Odieresis
Encoding: 214 214 86
Width: 617
Flags: MW
HStem: -10 56<225.5 329.5 225.5 340> 649 56<289 392> 822 83<189 244 189 244 375 429>
VStem: 57 64<249 432.5 249 434.5> 189 55<822 905 822 905> 375 54<822 905 822 905> 496 64<274.5 457>
LayerCount: 2
Back
Fore
SplineSet
189 822 m 1
 189 905 l 1
 244 905 l 1
 244 822 l 1
 189 822 l 1
375 822 m 1
 375 905 l 1
 429 905 l 1
 429 822 l 1
 375 822 l 1
309 46 m 0
 350 46 381 51 407 64 c 0
 484 101 496 196 496 353 c 0
 496 561 475 649 309 649 c 0
 269 649 238 645 213 634 c 0
 133 601 121 512 121 353 c 0
 121 145 142 46 309 46 c 0
309 -10 m 0
 101 -10 57 111 57 353 c 0
 57 516 77 619 154 669 c 0
 191 693 241 705 309 705 c 0
 517 705 560 594 560 353 c 0
 560 183 539 73 454 22 c 0
 418 1 371 -10 309 -10 c 0
EndSplineSet
Position2: "'cpsp' Capital Spacing in Latin lookup 0 subtable" dx=5 dy=0 dh=10 dv=0
EndChar
StartChar: Oslash
Encoding: 216 216 90
Width: 617
Flags: MW
HStem: -10 56<289 329.5 289 340> 649 56<289 330.5>
VStem: 57 64<289.5 432.5 289.5 434.5> 496 64<274.5 413>
LayerCount: 2
Back
Fore
SplineSet
134 -113 m 1
 91 -93 l 1
 147 33 l 1
 75 88 57 194 57 353 c 0
 57 516 77 619 154 669 c 0
 191 693 241 705 309 705 c 0
 361 705 402 698 436 684 c 1
 485 794 l 1
 529 777 l 1
 477 659 l 1
 543 606 560 506 560 353 c 0
 560 183 539 73 454 22 c 0
 418 1 371 -10 309 -10 c 0
 260 -10 220 -3 188 10 c 1
 134 -113 l 1
173 91 m 1
 288 351 l 1
 412 630 l 1
 386 642 352 649 309 649 c 0
 269 649 238 645 213 634 c 0
 133 601 121 512 121 353 c 0
 121 226 128 139 173 91 c 1
309 46 m 0
 350 46 381 51 407 64 c 0
 484 101 496 196 496 353 c 0
 496 473 489 554 450 600 c 1
 332 332 l 1
 212 63 l 1
 237 51 269 46 309 46 c 0
EndSplineSet
Position2: "'cpsp' Capital Spacing in Latin lookup 0 subtable" dx=5 dy=0 dh=10 dv=0
EndChar
StartChar: Udieresis
Encoding: 220 220 114
Width: 596
Flags: MW
HStem: -10 55<243.5 352.5 243.5 372.5> 822 83<178 234 178 234 364 418>
VStem: 76 61<205 695> 178 56<822 905 822 905> 364 54<822 905 822 905> 459 62<202 205 205 695>
LayerCount: 2
Back
Fore
SplineSet
178 822 m 1
 178 905 l 1
 234 905 l 1
 234 822 l 1
 178 822 l 1
364 822 m 1
 364 905 l 1
 418 905 l 1
 418 822 l 1
 364 822 l 1
137 695 m 1
 137 202 l 2
 137 90 189 45 298 45 c 0
 407 45 459 89 459 202 c 2
 459 695 l 1
 521 695 l 1
 521 205 l 2
 521 59 447 -10 298 -10 c 0
 149 -10 76 59 76 205 c 2
 76 695 l 1
 137 695 l 1
EndSplineSet
Position2: "'cpsp' Capital Spacing in Latin lookup 0 subtable" dx=5 dy=0 dh=10 dv=0
EndChar
StartChar: Thorn
Encoding: 222 222 192
Width: 555
Flags: MW
HStem: 0 181<80 309 80 309> 125 56<140 309 140 309> 527 55<140 309 140 309>
VStem: 80 60<0 125 181 527 582 697> 452 64<306 402>
LayerCount: 2
Back
Fore
SplineSet
309 181 m 2x78
 411 181 452 256 452 356 c 0
 452 448 415 527 309 527 c 2
 140 527 l 1
 140 181 l 1
 309 181 l 2x78
309 125 m 2
 140 125 l 1x78
 140 0 l 1
 80 0 l 1xb8
 80 697 l 1
 140 697 l 1
 140 582 l 1
 309 582 l 2
 432 582 516 515 516 356 c 0
 516 214 450 125 309 125 c 2
EndSplineSet
Position2: "'cpsp' Capital Spacing in Latin lookup 0 subtable" dx=5 dy=0 dh=10 dv=0
EndChar
StartChar: germandbls
Encoding: 223 223 188
Width: 527
Flags: MW
HStem: -10 53<295.5 356.5 294 377.5> 0 21G<69 126 69 69 203 203> 680 52<206 289>
VStem: 69 57<0 544> 232 58<388.5 415.5 388.5 423> 362 58<567 625.5> 434 58<124 194>
LayerCount: 2
Back
Fore
SplineSet
126 0 m 1x7e
 69 0 l 1
 69 545 l 2
 69 693 124 732 246 732 c 0
 375 732 420 689 420 591 c 0x7e
 420 520 401 492 348 464 c 0
 305 440 290 428 290 403 c 0
 290 374 307 361 367 329 c 0
 457 280 492 254 492 166 c 0
 492 40 437 -10 318 -10 c 0xba
 273 -10 203 0 203 0 c 1x7a
 205 49 l 1
 205 49 279 43 309 43 c 0
 404 43 434 84 434 164 c 0xba
 434 224 415 240 329 286 c 0
 265 320 232 345 232 399 c 0
 232 447 247 468 307 500 c 0
 348 522 362 544 362 590 c 0
 362 661 332 680 246 680 c 0
 166 680 126 657 126 544 c 2
 126 0 l 1x7e
EndSplineSet
EndChar
StartChar: atilde
Encoding: 227 227 165
Width: 489
Flags: MW
HStem: -10 53<175 255> 0 21G<425 425> 457 53<198 272> 620 53<327 350.5 327 355> 669 21G<188.5 215 415 415> 670 21G<119 119> 702 20G<184.5 221.5>
VStem: 50 62<181 309.5 181 320> 360 59<68.5 118 156 447 447 447>
LayerCount: 2
Back
Fore
SplineSet
207 -10 m 0xa780
 90 -10 50 77 50 239 c 0
 50 401 88 510 249 510 c 0
 302 510 419 493 419 493 c 1
 419 118 l 2
 419 66 425 0 425 0 c 1
 365 -2 l 1x6780
 365 -2 360 47 360 90 c 1
 360 90 303 -10 207 -10 c 0xa780
258 457 m 0
 138 457 112 380 112 239 c 0
 112 123 132 43 218 43 c 0
 300 43 360 156 360 156 c 1
 360 447 l 1
 360 447 286 457 258 457 c 0
403 712 m 1xb380
 415 669 l 1
 415 669 371 620 339 620 c 0
 299 620 230 669 200 669 c 0
 177 669 131 626 131 626 c 1xab80
 119 670 l 1xa780
 119 670 167 722 202 722 c 0
 241 722 314 673 340 673 c 0
 361 673 403 712 403 712 c 1xb380
EndSplineSet
EndChar
StartChar: aring
Encoding: 229 229 166
Width: 489
Flags: MW
HStem: -10 53<175 255> 0 21G<425 425> 457 53<198 272> 569 41<251.5 280 251.5 292> 716 43<251.5 280>
VStem: 50 62<181 309.5 181 320> 176 38<649 678.5 649 691> 315 38<649 678.5> 360 59<68.5 118 156 447 447 447>
LayerCount: 2
Back
Fore
SplineSet
207 -10 m 0xbe80
 90 -10 50 77 50 239 c 0
 50 401 88 510 249 510 c 0
 302 510 419 493 419 493 c 1
 419 118 l 2
 419 66 425 0 425 0 c 1
 365 -2 l 1x7e80
 365 -2 360 47 360 90 c 1
 360 90 303 -10 207 -10 c 0xbe80
258 457 m 0
 138 457 112 380 112 239 c 0
 112 123 132 43 218 43 c 0
 300 43 360 156 360 156 c 1
 360 447 l 1
 360 447 286 457 258 457 c 0
176 664 m 0
 176 718 212 759 266 759 c 0
 318 759 353 718 353 664 c 0xbf
 353 605 318 569 266 569 c 0
 211 569 176 605 176 664 c 0
214 664 m 0
 214 634 237 610 266 610 c 0
 294 610 315 634 315 664 c 0xbf
 315 693 294 716 266 716 c 0
 237 716 214 693 214 664 c 0
EndSplineSet
EndChar
StartChar: ccedilla
Encoding: 231 231 189
Width: 398
Flags: MW
HStem: -207 46<230.5 254.5 227.5 276.5> -87 39<234 241 234 241 198 241> -10 53<234 244 234 234> -7 21G<198 198> 456 53<199 267 175.5 272>
VStem: 50 62<192 325 192 346> 198 36<-48 -10 -48 -7 -48 -7> 284 52<-136 -106.5>
LayerCount: 2
Back
Fore
SplineSet
244 509 m 0xef
 290 509 360 497 360 497 c 1
 357 447 l 1
 357 447 290 456 254 456 c 0
 144 456 112 392 112 258 c 0
 112 126 129 43 254 43 c 0
 290 43 357 51 357 51 c 1
 360 3 l 1
 360 3 289 -10 244 -10 c 2
 234 -10 l 1xef
 234 -48 l 1
 241 -48 l 2
 291 -48 336 -60 336 -124 c 0
 336 -182 302 -207 251 -207 c 0
 210 -207 172 -201 172 -201 c 1
 175 -157 l 1
 175 -157 214 -161 241 -161 c 0
 268 -161 284 -150 284 -122 c 0
 284 -91 264 -87 241 -87 c 2
 198 -87 l 1
 198 -7 l 1xdf
 75 10 50 104 50 258 c 0
 50 434 107 509 244 509 c 0xef
EndSplineSet
EndChar
StartChar: egrave
Encoding: 232 232 168
Width: 450
Flags: MW
HStem: -9 52<190 269.5 190 276> 228 49<110 166 110 166> 458 51<200 279.5>
VStem: 49 61<161.5 214 214 228> 349 60<338 408.5>
LayerCount: 2
Back
Fore
SplineSet
234 43 m 0
 305 43 387 63 387 63 c 1
 391 18 l 1
 391 18 321 -9 231 -9 c 0
 103 -9 49 66 49 245 c 0
 49 414 110 509 250 509 c 0
 345 509 409 470 409 380 c 0
 409 261 335 228 166 228 c 2
 110 228 l 1
 110 214 l 2
 110 109 146 43 234 43 c 0
110 277 m 1
 166 277 l 2
 298 277 349 297 349 379 c 0
 349 438 310 458 249 458 c 0
 151 458 112 393 110 277 c 1
134 740 m 1
 330 646 l 1
 313 602 l 1
 114 691 l 1
 134 740 l 1
EndSplineSet
EndChar
StartChar: edieresis
Encoding: 235 235 170
Width: 450
Flags: MW
HStem: -9 52<190 269.5 190 276> 228 49<110 166 110 166> 458 51<200 279.5> 625 82<125 181 125 181 311 365>
VStem: 49 61<161.5 214 214 228> 125 56<625 707 625 707> 311 54<625 707 625 707> 349 60<338 408.5>
LayerCount: 2
Back
Fore
SplineSet
125 625 m 1xfe
 125 707 l 1
 181 707 l 1
 181 625 l 1
 125 625 l 1xfe
311 625 m 1
 311 707 l 1
 365 707 l 1
 365 625 l 1
 311 625 l 1
234 43 m 0
 305 43 387 63 387 63 c 1
 391 18 l 1
 391 18 321 -9 231 -9 c 0
 103 -9 49 66 49 245 c 0
 49 414 110 509 250 509 c 0
 345 509 409 470 409 380 c 0
 409 261 335 228 166 228 c 2
 110 228 l 1
 110 214 l 2xf9
 110 109 146 43 234 43 c 0
110 277 m 1xf9
 166 277 l 2
 298 277 349 297 349 379 c 0
 349 438 310 458 249 458 c 0
 151 458 112 393 110 277 c 1xf9
EndSplineSet
EndChar
StartChar: igrave
Encoding: 236 236 186
Width: 198
Flags: MW
HStem: 0 21G<69 69 69 129> 480 20G<69 129 129 129>
VStem: 69 60<0 500 0 500>
LayerCount: 2
Back
Fore
SplineSet
69 0 m 1
 69 500 l 1
 129 500 l 1
 129 0 l 1
 69 0 l 1
-45 740 m 1
 151 646 l 1
 134 602 l 1
 -65 691 l 1
 -45 740 l 1
EndSplineSet
EndChar
StartChar: iacute
Encoding: 237 237 185
Width: 198
Flags: MW
HStem: 0 21G<69 69 69 129> 480 20G<69 129 129 129>
VStem: 69 60<0 500 0 500>
LayerCount: 2
Back
Fore
SplineSet
69 0 m 1
 69 500 l 1
 129 500 l 1
 129 0 l 1
 69 0 l 1
71 601 m 1
 53 645 l 1
 250 741 l 1
 269 689 l 1
 71 601 l 1
EndSplineSet
EndChar
StartChar: icircumflex
Encoding: 238 238 187
Width: 198
Flags: MW
HStem: 0 21G<69 69 69 129> 480 20G<69 129 129 129> 590 145<-42 120 -42 120 78 176 78 241>
VStem: 69 60<0 500 0 500>
LayerCount: 2
Back
Fore
SplineSet
-42 590 m 1
 78 735 l 1
 120 735 l 1
 241 590 l 1
 176 590 l 1
 100 680 l 1
 23 590 l 1
 -42 590 l 1
69 0 m 1
 69 500 l 1
 129 500 l 1
 129 0 l 1
 69 0 l 1
EndSplineSet
EndChar
StartChar: idieresis
Encoding: 239 239 171
Width: 198
Flags: MW
HStem: 0 21G<69 69 69 129> 480 20G<69 129 129 129> 625 82<-21 35 -21 35 165 219>
VStem: -21 56<625 707 625 707> 69 60<0 500 0 500> 165 54<625 707 625 707>
LayerCount: 2
Back
Fore
SplineSet
-21 625 m 1
 -21 707 l 1
 35 707 l 1
 35 625 l 1
 -21 625 l 1
165 625 m 1
 165 707 l 1
 219 707 l 1
 219 625 l 1
 165 625 l 1
69 0 m 1
 69 500 l 1
 129 500 l 1
 129 0 l 1
 69 0 l 1
EndSplineSet
EndChar
StartChar: eth
Encoding: 240 240 191
Width: 511
Flags: MW
HStem: -9 60<199.5 303 199.5 324> 370 59<196 270.5 173.5 273> 702 21G<378 378> 707 20G<107 107>
VStem: 41 62<160 256.5 160 276> 402 58
LayerCount: 2
Back
Fore
SplineSet
252 609 m 1xdc
 148 532 l 1
 119 571 l 1
 203 633 l 1
 171 647 134 660 93 672 c 1
 107 727 l 1
 162 713 213 696 258 674 c 1
 349 741 l 1xdc
 378 702 l 1
 305 648 l 1xec
 401 586 460 494 460 359 c 0
 460 89 399 -9 249 -9 c 0
 112 -9 41 72 41 206 c 0
 41 346 111 429 236 429 c 0
 305 429 401 390 401 390 c 1
 393 484 351 554 252 609 c 1xdc
240 370 m 0
 152 370 103 308 103 205 c 0
 103 115 150 51 249 51 c 0
 357 51 400 119 402 331 c 1
 397 334 306 370 240 370 c 0
EndSplineSet
EndChar
StartChar: ntilde
Encoding: 241 241 172
Width: 496
Flags: MW
HStem: 620 53<319 342.5 319 347> 669 21G<180.5 207 407 407> 670 21G<111 111> 702 20G<176.5 213.5>
VStem: 129 242<0 293 0 355 0 355 0 418>
LayerCount: 2
Back
Fore
SplineSet
69 0 m 1x38
 129 0 l 1
 129 355 l 1
 129 355 197 457 270 457 c 0
 344 457 371 405 371 293 c 2
 371 0 l 1
 431 0 l 1
 431 312 l 2
 431 437 387 510 280 510 c 0
 194 510 129 418 129 418 c 1
 128 500 l 1
 69 500 l 1
 69 0 l 1x38
395 712 m 1x98
 407 669 l 1
 407 669 363 620 331 620 c 0
 291 620 222 669 192 669 c 0
 169 669 123 626 123 626 c 1x58
 111 670 l 1x38
 111 670 159 722 194 722 c 0
 233 722 306 673 332 673 c 0
 353 673 395 712 395 712 c 1x98
EndSplineSet
EndChar
StartChar: oacute
Encoding: 243 243 173
Width: 486
Flags: MW
HStem: -10 53<180 305.5 180 328.5> 457 52<190 296>
VStem: 50 59<190.5 325.5 190.5 338> 376 59<190.5 325.5>
LayerCount: 2
Back
Fore
SplineSet
243 509 m 0
 395 509 435 419 435 257 c 0
 435 95 414 -10 243 -10 c 0
 71 -10 50 95 50 257 c 0
 50 419 91 509 243 509 c 0
243 43 m 0
 368 43 376 124 376 257 c 0
 376 394 349 457 243 457 c 0
 137 457 109 394 109 257 c 0
 109 124 117 43 243 43 c 0
173 601 m 1
 155 645 l 1
 352 741 l 1
 371 689 l 1
 173 601 l 1
EndSplineSet
EndChar
StartChar: otilde
Encoding: 245 245 177
Width: 486
Flags: MW
HStem: -10 53<180 305.5 180 328.5> 457 52<190 296> 620 53<303 326.5 303 331> 669 21G<164.5 191 391 391> 670 21G<95 95> 702 20G<160.5 197.5>
VStem: 50 59<190.5 325.5 190.5 338> 376 59<190.5 325.5>
LayerCount: 2
Back
Fore
SplineSet
243 509 m 0xcf
 395 509 435 419 435 257 c 0
 435 95 414 -10 243 -10 c 0
 71 -10 50 95 50 257 c 0
 50 419 91 509 243 509 c 0xcf
243 43 m 0
 368 43 376 124 376 257 c 0
 376 394 349 457 243 457 c 0
 137 457 109 394 109 257 c 0
 109 124 117 43 243 43 c 0
379 712 m 1xe7
 391 669 l 1
 391 669 347 620 315 620 c 0
 275 620 206 669 176 669 c 0
 153 669 107 626 107 626 c 1xd7
 95 670 l 1xcf
 95 670 143 722 178 722 c 0
 217 722 290 673 316 673 c 0
 337 673 379 712 379 712 c 1xe7
EndSplineSet
EndChar
StartChar: odieresis
Encoding: 246 246 176
Width: 486
Flags: MW
HStem: -10 53<180 305.5 180 328.5> 457 52<190 296> 625 82<127 176 127 176 306 354>
VStem: 50 59<190.5 325.5 190.5 338> 127 49<625 707 625 707> 306 48<625 707 625 707> 376 59<190.5 325.5>
LayerCount: 2
Back
Fore
SplineSet
243 509 m 0
 395 509 435 419 435 257 c 0
 435 95 414 -10 243 -10 c 0
 71 -10 50 95 50 257 c 0
 50 419 91 509 243 509 c 0
243 43 m 0
 368 43 376 124 376 257 c 0
 376 394 349 457 243 457 c 0
 137 457 109 394 109 257 c 0
 109 124 117 43 243 43 c 0
127 625 m 1xfe
 127 707 l 1
 176 707 l 1
 176 625 l 1
 127 625 l 1xfe
306 625 m 1
 306 707 l 1
 354 707 l 1
 354 625 l 1
 306 625 l 1
EndSplineSet
EndChar
StartChar: ucircumflex
Encoding: 251 251 180
Width: 496
Flags: MW
HStem: -10 53<189.5 259> 0 21G<368 427 368 368> 480 20G<65 125 125 125 367 427 427 427> 590 145<107 269 107 269 226 324 226 390>
VStem: 65 60<195 207 207 500> 367 60<144 500 0 500>
LayerCount: 2
Back
Fore
SplineSet
107 590 m 1xbc
 226 735 l 1
 269 735 l 1
 390 590 l 1
 324 590 l 1
 248 680 l 1
 172 590 l 1
 107 590 l 1xbc
367 500 m 1
 427 500 l 1
 427 0 l 1
 368 0 l 1x7c
 368 82 l 1
 368 82 302 -10 216 -10 c 0
 109 -10 65 57 65 195 c 2
 65 500 l 1
 125 500 l 1
 125 207 l 2
 125 95 153 43 226 43 c 0
 299 43 367 144 367 144 c 1
 367 500 l 1
EndSplineSet
EndChar
StartChar: udieresis
Encoding: 252 252 181
Width: 496
Flags: MW
HStem: -10 53<189.5 259> 0 21G<368 427 368 368> 480 20G<65 125 125 125 367 427 427 427> 625 82<128 184 128 184 314 368>
VStem: 65 60<195 207 207 500> 128 56<625 707 625 707> 314 54<625 707> 367 60<144 500 0 500>
LayerCount: 2
Back
Fore
SplineSet
128 625 m 1xb6
 128 707 l 1
 184 707 l 1
 184 625 l 1
 128 625 l 1xb6
314 625 m 1
 314 707 l 1
 368 707 l 1
 368 625 l 1
 314 625 l 1
367 500 m 1xb9
 427 500 l 1
 427 0 l 1
 368 0 l 1x79
 368 82 l 1
 368 82 302 -10 216 -10 c 0
 109 -10 65 57 65 195 c 2
 65 500 l 1
 125 500 l 1
 125 207 l 2
 125 95 153 43 226 43 c 0
 299 43 367 144 367 144 c 1
 367 500 l 1xb9
EndSplineSet
EndChar
StartChar: yacute
Encoding: 253 253 154
Width: 445
Flags: MW
HStem: -225 21G<162 220 162 162> 0 52<205 227 162 239> 480 20G<26 87 87 87 360 420 420 420>
VStem: 26 394<500 500>
LayerCount: 2
Back
Fore
SplineSet
26 500 m 1
 87 500 l 1
 205 52 l 1
 239 52 l 1
 360 500 l 1
 420 500 l 1
 220 -225 l 1
 162 -225 l 1
 227 0 l 1
 162 0 l 1
 26 500 l 1
168 601 m 1
 150 645 l 1
 347 741 l 1
 366 689 l 1
 168 601 l 1
EndSplineSet
EndChar
StartChar: thorn
Encoding: 254 254 447
Width: 488
Flags: MW
HStem: -10 56<214 287.5 214 308.5> -2 21G<128 128> 453 56<236.5 306.5>
VStem: 69 59<-223 -2 56 362 426 720> 377 62<184 300>
LayerCount: 2
Back
Fore
SplineSet
128 362 m 1xb8
 128 56 l 1
 128 56 196 46 232 46 c 0
 343 46 377 118 377 250 c 0
 377 350 351 453 262 453 c 0
 194 453 128 362 128 362 c 1xb8
270 509 m 0
 405 509 439 382 439 250 c 0xb8
 439 78 384 -10 233 -10 c 0
 189 -10 128 -2 128 -2 c 1x78
 128 -223 l 1
 69 -223 l 1
 69 720 l 1
 128 720 l 1
 128 426 l 1
 143 441 203 509 270 509 c 0
EndSplineSet
EndChar
StartChar: ydieresis
Encoding: 255 255 152
Width: 445
Flags: MW
HStem: -225 21G<162 220 162 162> 0 52<205 227 162 239> 480 20G<26 87 87 87 360 420 420 420> 625 82<103 159 103 159 289 343>
VStem: 103 56<625 707 625 707> 289 54<625 707 625 707>
LayerCount: 2
Back
Fore
SplineSet
103 625 m 1
 103 707 l 1
 159 707 l 1
 159 625 l 1
 103 625 l 1
289 625 m 1
 289 707 l 1
 343 707 l 1
 343 625 l 1
 289 625 l 1
26 500 m 1
 87 500 l 1
 205 52 l 1
 239 52 l 1
 360 500 l 1
 420 500 l 1
 220 -225 l 1
 162 -225 l 1
 227 0 l 1
 162 0 l 1
 26 500 l 1
EndSplineSet
EndChar
StartChar: amacron
Encoding: 257 257 301
Width: 489
Flags: MW
HStem: -10 53<175 255> 0 21G<425 425> 457 53<198 272> 642 47<123 389 123 389>
VStem: 50 62<181 309.5 181 320> 360 59<68.5 118 156 447 447 447>
LayerCount: 2
Back
Fore
SplineSet
207 -10 m 0xbc
 90 -10 50 77 50 239 c 0
 50 401 88 510 249 510 c 0
 302 510 419 493 419 493 c 1
 419 118 l 2
 419 66 425 0 425 0 c 1
 365 -2 l 1x7c
 365 -2 360 47 360 90 c 1
 360 90 303 -10 207 -10 c 0xbc
258 457 m 0
 138 457 112 380 112 239 c 0
 112 123 132 43 218 43 c 0
 300 43 360 156 360 156 c 1
 360 447 l 1
 360 447 286 457 258 457 c 0
123 642 m 1
 123 689 l 1
 389 689 l 1
 389 642 l 1
 123 642 l 1
EndSplineSet
EndChar
StartChar: Abreve
Encoding: 258 258 18
Width: 553
Flags: MW
HStem: 0 21G<24 24 24 86 467 467 467 529> 191 54<152 400 152 414 140 400> 639 56<260 260 260 293> 798 48<252.5 299 252.5 320.5>
VStem: 141 55<897 921 897 921> 357 54<897 921>
LayerCount: 2
Back
Fore
SplineSet
141 921 m 1
 196 921 l 1
 196 873 229 846 276 846 c 0
 322 846 357 873 357 921 c 1
 411 921 l 1
 411 854 365 798 276 798 c 0
 188 798 141 854 141 921 c 1
24 0 m 1
 213 695 l 1
 341 695 l 1
 529 0 l 1
 467 0 l 1
 414 191 l 1
 140 191 l 1
 86 0 l 1
 24 0 l 1
260 639 m 1
 152 245 l 1
 400 245 l 1
 293 639 l 1
 260 639 l 1
EndSplineSet
Position2: "'cpsp' Capital Spacing in Latin lookup 0 subtable" dx=5 dy=0 dh=10 dv=0
EndChar
StartChar: abreve
Encoding: 259 259 302
Width: 489
Flags: MW
HStem: -10 53<175 255> 0 21G<425 425> 457 53<198 272> 594 49<225.5 279 225.5 296.5> 707 20G<116 167 167 167 338 389 389 389>
VStem: 50 62<181 309.5 181 320> 116 51<702.5 727 702.5 727> 338 51<702.5 727> 360 59<68.5 118 156 447 447 447>
LayerCount: 2
Back
Fore
SplineSet
207 -10 m 0xbc80
 90 -10 50 77 50 239 c 0
 50 401 88 510 249 510 c 0
 302 510 419 493 419 493 c 1
 419 118 l 2
 419 66 425 0 425 0 c 1
 365 -2 l 1x7c80
 365 -2 360 47 360 90 c 1
 360 90 303 -10 207 -10 c 0xbc80
258 457 m 0
 138 457 112 380 112 239 c 0
 112 123 132 43 218 43 c 0
 300 43 360 156 360 156 c 1
 360 447 l 1
 360 447 286 457 258 457 c 0
116 727 m 1xbb
 167 727 l 1
 167 678 199 643 252 643 c 0
 306 643 338 678 338 727 c 1
 389 727 l 1
 389 650 341 594 252 594 c 0
 163 594 116 650 116 727 c 1xbb
EndSplineSet
EndChar
StartChar: Aogonek
Encoding: 260 260 23
Width: 552
Flags: MW
HStem: -202 55<482 493.5> 0 21G<24 24 24 86 524 524 524 529> 191 54<152 400 152 414 140 400> 639 56<260 260 260 293>
VStem: 398 60<-123 -103.5>
LayerCount: 2
Back
Fore
SplineSet
24 0 m 1
 213 695 l 1
 341 695 l 1
 527 5 l 1
 529 5 l 2
 528 4 528 4 528 3 c 2
 529 0 l 1
 524 0 l 1
 486 -44 458 -82 458 -113 c 0
 458 -133 472 -147 492 -147 c 0
 507 -147 543 -141 543 -141 c 1
 549 -193 l 1
 549 -193 509 -202 478 -202 c 0
 429 -202 398 -171 398 -125 c 0
 398 -82 436 -31 466 2 c 1
 414 191 l 1
 140 191 l 1
 86 0 l 1
 24 0 l 1
260 639 m 1
 152 245 l 1
 400 245 l 1
 293 639 l 1
 260 639 l 1
EndSplineSet
Position2: "'cpsp' Capital Spacing in Latin lookup 0 subtable" dx=5 dy=0 dh=10 dv=0
EndChar
StartChar: aogonek
Encoding: 261 261 304
Width: 489
Flags: MW
HStem: -202 55<375 386.5> -10 53<175 255> 0 21G<417 425 417 417> 457 53<198 272>
VStem: 50 62<181 309.5 181 320> 291 60<-123 -102.5> 360 59<73.5 118 156 447 447 447>
LayerCount: 2
Back
Fore
SplineSet
436 -141 m 1xde
 442 -193 l 1
 442 -193 402 -202 371 -202 c 0
 322 -202 291 -171 291 -125 c 0xde
 291 -80 333 -26 364 7 c 1
 362 22 360 57 360 90 c 1
 360 90 303 -10 207 -10 c 0x5a
 90 -10 50 77 50 239 c 0
 50 401 88 510 249 510 c 0
 302 510 419 493 419 493 c 1
 419 118 l 2
 419 66 425 0 425 0 c 1
 417 0 l 1x3a
 380 -44 351 -82 351 -113 c 0
 351 -133 365 -147 385 -147 c 0
 400 -147 436 -141 436 -141 c 1xde
258 457 m 0
 138 457 112 380 112 239 c 0
 112 123 132 43 218 43 c 0
 300 43 360 156 360 156 c 1
 360 447 l 1x5a
 360 447 286 457 258 457 c 0
EndSplineSet
EndChar
StartChar: Cacute
Encoding: 262 262 30
Width: 502
Flags: MW
HStem: -10 56<221.5 327.5 221.5 328.5> 649 56<221 330.5>
VStem: 56 64<257 437 257 455>
LayerCount: 2
Back
Fore
SplineSet
459 63 m 1
 463 11 l 1
 463 11 367 -10 290 -10 c 0
 98 -10 56 126 56 346 c 0
 56 564 103 705 290 705 c 0
 375 705 463 684 463 684 c 1
 459 631 l 1
 459 631 366 649 295 649 c 0
 147 649 120 528 120 346 c 0
 120 168 147 46 296 46 c 0
 359 46 459 63 459 63 c 1
224 790 m 1
 205 833 l 1
 402 930 l 1
 422 878 l 1
 224 790 l 1
EndSplineSet
Position2: "'cpsp' Capital Spacing in Latin lookup 0 subtable" dx=5 dy=0 dh=10 dv=0
EndChar
StartChar: Ccircumflex
Encoding: 264 264 33
Width: 502
Flags: MW
HStem: -10 56<221.5 327.5 221.5 328.5> 649 56<221 330.5> 797 134<149 310 149 310 278 381 278 441>
VStem: 56 64<257 437 257 455>
LayerCount: 2
Back
Fore
SplineSet
459 63 m 1
 463 11 l 1
 463 11 367 -10 290 -10 c 0
 98 -10 56 126 56 346 c 0
 56 564 103 705 290 705 c 0
 375 705 463 684 463 684 c 1
 459 631 l 1
 459 631 366 649 295 649 c 0
 147 649 120 528 120 346 c 0
 120 168 147 46 296 46 c 0
 359 46 459 63 459 63 c 1
149 797 m 1
 278 931 l 1
 310 931 l 1
 441 797 l 1
 381 797 l 1
 295 882 l 1
 208 797 l 1
 149 797 l 1
EndSplineSet
Position2: "'cpsp' Capital Spacing in Latin lookup 0 subtable" dx=5 dy=0 dh=10 dv=0
EndChar
StartChar: ccircumflex
Encoding: 265 265 307
Width: 398
Flags: MW
HStem: -10 53<191.5 266.5> 456 53<199 267 175.5 272> 590 145<102 253 102 253 221 314 221 373>
VStem: 50 62<192 325 192 346>
LayerCount: 2
Back
Fore
SplineSet
244 509 m 0
 290 509 360 497 360 497 c 1
 357 447 l 1
 357 447 290 456 254 456 c 0
 144 456 112 392 112 258 c 0
 112 126 129 43 254 43 c 0
 290 43 357 51 357 51 c 1
 360 3 l 1
 360 3 289 -10 244 -10 c 0
 82 -10 50 87 50 258 c 0
 50 434 107 509 244 509 c 0
102 590 m 1
 221 735 l 1
 253 735 l 1
 373 590 l 1
 314 590 l 1
 238 680 l 1
 161 590 l 1
 102 590 l 1
EndSplineSet
EndChar
StartChar: cdotaccent
Encoding: 267 267 309
Width: 398
Flags: MW
HStem: -10 53<191.5 266.5> 456 53<199 267 175.5 272> 610 78<201 253 201 253>
VStem: 50 62<192 325 192 346> 201 52<610 688 610 688>
LayerCount: 2
Back
Fore
SplineSet
244 509 m 0
 290 509 360 497 360 497 c 1
 357 447 l 1
 357 447 290 456 254 456 c 0
 144 456 112 392 112 258 c 0
 112 126 129 43 254 43 c 0
 290 43 357 51 357 51 c 1
 360 3 l 1
 360 3 289 -10 244 -10 c 0
 82 -10 50 87 50 258 c 0
 50 434 107 509 244 509 c 0
201 610 m 1
 201 688 l 1
 253 688 l 1
 253 610 l 1
 201 610 l 1
EndSplineSet
EndChar
StartChar: Ccaron
Encoding: 268 268 31
Width: 502
Flags: MW
HStem: -10 56<221.5 327.5 221.5 328.5> 649 56<221 330.5> 796 47<297 297 297 314 279 297>
VStem: 56 64<257 437 257 455>
LayerCount: 2
Back
Fore
SplineSet
459 63 m 1
 463 11 l 1
 463 11 367 -10 290 -10 c 0
 98 -10 56 126 56 346 c 0
 56 564 103 705 290 705 c 0
 375 705 463 684 463 684 c 1
 459 631 l 1
 459 631 366 649 295 649 c 0
 147 649 120 528 120 346 c 0
 120 168 147 46 296 46 c 0
 359 46 459 63 459 63 c 1
443 930 m 1
 314 796 l 1
 279 796 l 1
 150 930 l 1
 213 930 l 1
 297 843 l 1
 380 930 l 1
 443 930 l 1
EndSplineSet
Position2: "'cpsp' Capital Spacing in Latin lookup 0 subtable" dx=5 dy=0 dh=10 dv=0
EndChar
StartChar: Dcaron
Encoding: 270 270 36
Width: 601
Flags: MW
HStem: 695 235<131 194 131 311 80 194> 796 47<278 278 278 295 260 278>
VStem: 141 339<263.5 454 263.5 639 263.5 639>
LayerCount: 2
Back
Fore
SplineSet
80 0 m 1xa0
 311 0 l 2
 491 0 544 121 544 359 c 0
 544 592 485 695 311 695 c 2
 80 695 l 1
 80 0 l 1xa0
480 359 m 0
 480 168 446 55 311 55 c 2
 141 55 l 1
 141 639 l 1
 311 639 l 2
 446 639 480 549 480 359 c 0
424 930 m 1
 295 796 l 1
 260 796 l 1x60
 131 930 l 1
 194 930 l 1xa0
 278 843 l 1x60
 361 930 l 1
 424 930 l 1
EndSplineSet
Position2: "'cpsp' Capital Spacing in Latin lookup 0 subtable" dx=5 dy=0 dh=10 dv=0
EndChar
StartChar: dcaron
Encoding: 271 271 310
Width: 526
Flags: MW
HStem: -10 53<175 254> 0 21G<360 419 360 360> 457 52<195.5 271.5 173.5 274.5> 467 230<483 537 483 537> 702 20G<360 419 419 419>
VStem: 50 62<189 311 189 329.5> 360 59<0 80 80 80 147 446 446 446 497 722 0 722> 483 54<467 697 467 697>
LayerCount: 2
Back
Fore
SplineSet
537 697 m 1x97
 537 467 l 1
 483 467 l 1
 483 697 l 1
 537 697 l 1x97
419 722 m 1xaf
 419 0 l 1
 360 0 l 1x6f
 360 80 l 1
 360 80 302 -10 206 -10 c 0
 86 -10 50 88 50 243 c 0
 50 416 102 509 245 509 c 0
 298 509 360 497 360 497 c 1
 360 722 l 1
 419 722 l 1xaf
360 147 m 1
 360 446 l 1
 360 446 300 457 249 457 c 0
 142 457 112 379 112 243 c 0
 112 135 129 43 221 43 c 0xaf
 301 43 360 147 360 147 c 1
EndSplineSet
EndChar
StartChar: dcroat
Encoding: 273 273 311
Width: 489
Flags: MW
HStem: -10 53<175 254> 0 21G<360 419 360 360> 457 52<195.5 271.5 173.5 274.5> 598 57<202 360 202 360 419 468> 598 124<202 419 360 468 360 419>
VStem: 50 62<189 311 189 329.5> 360 59<0 80 80 80 147 446 446 446 497 598 0 598 655 722>
LayerCount: 2
Back
Fore
SplineSet
419 722 m 1xae
 419 655 l 1
 468 655 l 1xb6
 468 598 l 1
 419 598 l 1
 419 0 l 1
 360 0 l 1x6e
 360 80 l 1
 360 80 302 -10 206 -10 c 0
 86 -10 50 88 50 243 c 0
 50 416 102 509 245 509 c 0
 298 509 360 497 360 497 c 1
 360 598 l 1
 202 598 l 1xae
 202 655 l 1
 360 655 l 1xb6
 360 722 l 1
 419 722 l 1xae
360 147 m 1
 360 446 l 1
 360 446 300 457 249 457 c 0
 142 457 112 379 112 243 c 0
 112 135 129 43 221 43 c 0
 301 43 360 147 360 147 c 1
EndSplineSet
EndChar
StartChar: Ebreve
Encoding: 276 276 40
Width: 508
Flags: MW
HStem: 0 55<141 463 141 463> 327 55<141 407 141 407> 640 55<141 463 141 141> 799 48<243.5 290 243.5 311.5>
VStem: 80 61<55 327 382 640> 132 55<898 922 898 922> 348 54<898 922>
LayerCount: 2
Back
Fore
SplineSet
132 922 m 1xf6
 187 922 l 1
 187 874 220 847 267 847 c 0
 313 847 348 874 348 922 c 1
 402 922 l 1
 402 855 356 799 267 799 c 0
 179 799 132 855 132 922 c 1xf6
80 0 m 1xf8
 80 695 l 1
 463 695 l 1
 463 640 l 1
 141 640 l 1
 141 382 l 1
 407 382 l 1
 407 327 l 1
 141 327 l 1
 141 55 l 1
 463 55 l 1
 463 0 l 1
 80 0 l 1xf8
EndSplineSet
Position2: "'cpsp' Capital Spacing in Latin lookup 0 subtable" dx=5 dy=0 dh=10 dv=0
EndChar
StartChar: ebreve
Encoding: 277 277 314
Width: 450
Flags: MW
HStem: -9 52<190 269.5 190 276> 228 49<110 166 110 166> 458 51<200 279.5> 594 49<216.5 270 216.5 287.5> 707 20G<107 158 158 158 329 380 380 380>
VStem: 49 61<161.5 214 214 228> 107 51<702.5 727 702.5 727> 329 51<702.5 727> 349 60<338 408.5>
LayerCount: 2
Back
Fore
SplineSet
234 43 m 0xfc80
 305 43 387 63 387 63 c 1
 391 18 l 1
 391 18 321 -9 231 -9 c 0
 103 -9 49 66 49 245 c 0
 49 414 110 509 250 509 c 0
 345 509 409 470 409 380 c 0
 409 261 335 228 166 228 c 2
 110 228 l 1
 110 214 l 2
 110 109 146 43 234 43 c 0xfc80
110 277 m 1
 166 277 l 2
 298 277 349 297 349 379 c 0
 349 438 310 458 249 458 c 0
 151 458 112 393 110 277 c 1
107 727 m 1xfb
 158 727 l 1
 158 678 190 643 243 643 c 0
 297 643 329 678 329 727 c 1
 380 727 l 1
 380 650 332 594 243 594 c 0
 154 594 107 650 107 727 c 1xfb
EndSplineSet
EndChar
StartChar: Edotaccent
Encoding: 278 278 44
Width: 508
Flags: MW
HStem: 0 55<141 463 141 463> 327 55<141 407 141 407> 640 55<141 463 141 141> 844 78<245 297 245 297>
VStem: 80 61<55 327 382 640> 245 52<844 922 844 922>
LayerCount: 2
Back
Fore
SplineSet
245 844 m 1
 245 922 l 1
 297 922 l 1
 297 844 l 1
 245 844 l 1
80 0 m 1
 80 695 l 1
 463 695 l 1
 463 640 l 1
 141 640 l 1
 141 382 l 1
 407 382 l 1
 407 327 l 1
 141 327 l 1
 141 55 l 1
 463 55 l 1
 463 0 l 1
 80 0 l 1
EndSplineSet
Position2: "'cpsp' Capital Spacing in Latin lookup 0 subtable" dx=5 dy=0 dh=10 dv=0
EndChar
StartChar: Eogonek
Encoding: 280 280 47
Width: 508
Flags: MW
HStem: -202 55<399 410.5> 0 55<141 382 441 441 441 463> 327 55<141 407 141 407> 640 55<141 463 141 141>
VStem: 80 61<55 327 382 640> 315 60<-123 -104>
LayerCount: 2
Back
Fore
SplineSet
80 0 m 1
 80 695 l 1
 463 695 l 1
 463 640 l 1
 141 640 l 1
 141 382 l 1
 407 382 l 1
 407 327 l 1
 141 327 l 1
 141 55 l 1
 463 55 l 1
 463 0 l 1
 441 0 l 1
 403 -44 375 -82 375 -113 c 0
 375 -133 389 -147 409 -147 c 0
 424 -147 460 -141 460 -141 c 1
 466 -193 l 1
 466 -193 426 -202 395 -202 c 0
 346 -202 315 -171 315 -125 c 0
 315 -83 352 -33 382 0 c 1
 80 0 l 1
EndSplineSet
Position2: "'cpsp' Capital Spacing in Latin lookup 0 subtable" dx=5 dy=0 dh=10 dv=0
EndChar
StartChar: eogonek
Encoding: 281 281 316
Width: 450
Flags: MW
HStem: -182 55<342 353.5> -9 52<190 244.5> 228 49<110 166 110 166> 458 51<200 279.5>
VStem: 49 61<161.5 214 214 228> 258 60<-103 -88.5> 349 60<338 408.5>
LayerCount: 2
Back
Fore
SplineSet
403 -121 m 1
 409 -173 l 1
 409 -173 369 -182 338 -182 c 0
 289 -182 258 -151 258 -105 c 0
 258 -72 280 -34 305 -3 c 1
 282 -7 258 -9 231 -9 c 0
 103 -9 49 66 49 245 c 0
 49 414 110 509 250 509 c 0
 345 509 409 470 409 380 c 0
 409 261 335 228 166 228 c 2
 110 228 l 1
 110 214 l 2
 110 109 146 43 234 43 c 0
 305 43 387 63 387 63 c 1
 391 18 l 1
 391 18 385 15 379 13 c 0
 344 -27 318 -63 318 -93 c 0
 318 -113 332 -127 352 -127 c 0
 367 -127 403 -121 403 -121 c 1
110 277 m 1
 166 277 l 2
 298 277 349 297 349 379 c 0
 349 438 310 458 249 458 c 0
 151 458 112 393 110 277 c 1
EndSplineSet
EndChar
StartChar: Gcircumflex
Encoding: 284 284 51
Width: 575
Flags: MW
HStem: -10 55<232 336 232 340.5> 303 53<334 511 334 450> 650 55<224 351> 787 145<169 331 169 331 288 386 288 452>
VStem: 55 64<267.5 433.5 267.5 453.5> 450 61<61 303 303 303>
LayerCount: 2
Back
Fore
SplineSet
169 787 m 1
 288 932 l 1
 331 932 l 1
 452 787 l 1
 386 787 l 1
 310 878 l 1
 234 787 l 1
 169 787 l 1
334 303 m 1
 334 356 l 1
 511 356 l 1
 511 13 l 1
 511 13 378 -10 303 -10 c 0
 110 -10 55 152 55 347 c 0
 55 560 101 705 305 705 c 0
 409 705 511 679 511 679 c 1
 507 629 l 1
 507 629 393 650 309 650 c 0
 139 650 119 520 119 347 c 0
 119 188 156 45 308 45 c 0
 364 45 450 61 450 61 c 1
 450 303 l 1
 334 303 l 1
EndSplineSet
Position2: "'cpsp' Capital Spacing in Latin lookup 0 subtable" dx=5 dy=0 dh=10 dv=0
EndChar
StartChar: Gcommaaccent
Encoding: 290 290 52
Width: 574
Flags: MW
HStem: -10 55<231 335 231 339.5> 303 53<333 510 333 449> 650 55<223 350>
VStem: 54 64<267.5 433.5 267.5 453.5> 449 61<61 303 303 303>
LayerCount: 2
Back
Fore
SplineSet
333 303 m 1
 333 356 l 1
 510 356 l 1
 510 13 l 1
 510 13 377 -10 302 -10 c 0
 109 -10 54 152 54 347 c 0
 54 560 100 705 304 705 c 0
 408 705 510 679 510 679 c 1
 506 629 l 1
 506 629 392 650 308 650 c 0
 138 650 118 520 118 347 c 0
 118 188 155 45 307 45 c 0
 363 45 449 61 449 61 c 1
 449 303 l 1
 333 303 l 1
292 -73 m 1
 255 -276 l 1
 302 -276 l 1
 348 -73 l 1
 292 -73 l 1
EndSplineSet
Position2: "'cpsp' Capital Spacing in Latin lookup 0 subtable" dx=5 dy=0 dh=10 dv=0
EndChar
StartChar: Hcircumflex
Encoding: 292 292 56
Width: 621
Flags: MW
HStem: 0 21G<80 141 80 80 480 541 480 480> 322 55<141 480 141 480> 797 134<167 328 167 328 296 399 296 459>
VStem: 80 61<0 322 0 377 377 695> 480 61<0 322 322 322 377 695 0 695>
LayerCount: 2
Back
Fore
SplineSet
480 0 m 1
 480 322 l 1
 141 322 l 1
 141 0 l 1
 80 0 l 1
 80 695 l 1
 141 695 l 1
 141 377 l 1
 480 377 l 1
 480 695 l 1
 541 695 l 1
 541 0 l 1
 480 0 l 1
167 797 m 1
 296 931 l 1
 328 931 l 1
 459 797 l 1
 399 797 l 1
 313 882 l 1
 226 797 l 1
 167 797 l 1
EndSplineSet
Position2: "'cpsp' Capital Spacing in Latin lookup 0 subtable" dx=5 dy=0 dh=10 dv=0
EndChar
StartChar: Hbar
Encoding: 294 294 55
Width: 643
Flags: MW
HStem: 0 21G<90 147 90 90 493 552 493 493> 320 61<147 493 147 493> 508 57<8 90 8 90 147 493 552 635>
VStem: 90 57<0 320 381 508 565 695> 493 59<0 320 320 320 381 508 0 508 565 695>
LayerCount: 2
Back
Fore
SplineSet
8 508 m 1
 8 565 l 1
 90 565 l 1
 90 695 l 1
 147 695 l 1
 147 565 l 1
 493 565 l 1
 493 695 l 1
 552 695 l 1
 552 565 l 1
 635 565 l 1
 635 508 l 1
 552 508 l 1
 552 0 l 1
 493 0 l 1
 493 320 l 1
 147 320 l 1
 147 0 l 1
 90 0 l 1
 90 508 l 1
 8 508 l 1
147 381 m 1
 493 381 l 1
 493 508 l 1
 147 508 l 1
 147 381 l 1
EndSplineSet
Position2: "'cpsp' Capital Spacing in Latin lookup 0 subtable" dx=5 dy=0 dh=10 dv=0
EndChar
StartChar: hbar
Encoding: 295 295 322
Width: 496
Flags: MW
HStem: 0 21G<69 129 69 69 371 431 371 371> 457 53<237 307> 591 53<8 69 8 69 129 274> 591 131<8 129 8 129 69 129 69 274>
VStem: 69 60<0 357 418 591 644 722> 371 60<0 293 293 312 0 349>
LayerCount: 2
Back
Fore
SplineSet
8 591 m 1xdc
 8 644 l 1
 69 644 l 1xec
 69 722 l 1
 129 722 l 1xdc
 129 644 l 1
 274 644 l 1xec
 274 591 l 1
 129 591 l 1
 129 418 l 1
 129 418 194 510 280 510 c 0
 387 510 431 437 431 312 c 2
 431 0 l 1
 371 0 l 1
 371 293 l 2
 371 405 344 457 270 457 c 0
 197 457 129 357 129 357 c 1
 129 0 l 1
 69 0 l 1
 69 591 l 1
 8 591 l 1xdc
EndSplineSet
EndChar
StartChar: Itilde
Encoding: 296 296 66
Width: 221
Flags: MW
HStem: 0 21G<80 80 80 141> 805 53<177.5 201 177.5 206> 864 52<27 54>
VStem: 80 61<0 695 0 695>
LayerCount: 2
Back
Fore
SplineSet
261 905 m 1
 274 864 l 1
 274 864 222 805 190 805 c 0xd0
 148 805 70 864 38 864 c 0
 16 864 -38 814 -38 814 c 1
 -50 856 l 1
 -50 856 6 916 40 916 c 0xb0
 85 916 163 858 192 858 c 0
 210 858 261 905 261 905 c 1
80 0 m 1
 80 695 l 1
 141 695 l 1
 141 0 l 1
 80 0 l 1
EndSplineSet
Position2: "'cpsp' Capital Spacing in Latin lookup 0 subtable" dx=5 dy=0 dh=10 dv=0
EndChar
StartChar: itilde
Encoding: 297 297 323
Width: 198
Flags: MW
HStem: 0 21G<69 69 69 129> 480 20G<69 129 129 129> 620 53<159 182.5 159 187> 669 21G<20.5 47 247 247> 670 21G<-49 -49> 702 20G<16.5 53.5>
VStem: 69 60<0 500 0 500>
LayerCount: 2
Back
Fore
SplineSet
69 0 m 1xce
 69 500 l 1
 129 500 l 1
 129 0 l 1
 69 0 l 1xce
235 712 m 1xe6
 247 669 l 1
 247 669 203 620 171 620 c 0
 131 620 62 669 32 669 c 0
 9 669 -37 626 -37 626 c 1xd6
 -49 670 l 1xce
 -49 670 -1 722 34 722 c 0
 73 722 146 673 172 673 c 0
 193 673 235 712 235 712 c 1xe6
EndSplineSet
EndChar
StartChar: Imacron
Encoding: 298 298 64
Width: 221
Flags: MW
HStem: 0 21G<80 80 80 141> 838 46<-33 252 -33 252>
VStem: 80 61<0 695 0 695>
LayerCount: 2
Back
Fore
SplineSet
-33 838 m 1
 -33 884 l 1
 252 884 l 1
 252 838 l 1
 -33 838 l 1
80 0 m 1
 80 695 l 1
 141 695 l 1
 141 0 l 1
 80 0 l 1
EndSplineSet
Position2: "'cpsp' Capital Spacing in Latin lookup 0 subtable" dx=5 dy=0 dh=10 dv=0
EndChar
StartChar: imacron
Encoding: 299 299 324
Width: 198
Flags: MW
HStem: 0 21G<69 69 69 129> 480 20G<69 129 129 129> 642 47<-34 232 -34 232>
VStem: 69 60<0 500 0 500>
LayerCount: 2
Back
Fore
SplineSet
69 0 m 1
 69 500 l 1
 129 500 l 1
 129 0 l 1
 69 0 l 1
-34 642 m 1
 -34 689 l 1
 232 689 l 1
 232 642 l 1
 -34 642 l 1
EndSplineSet
EndChar
StartChar: Ibreve
Encoding: 300 300 59
Width: 221
Flags: MW
HStem: 0 21G<80 80 80 141> 798 48<84.5 131 84.5 152.5>
VStem: -27 55<897 921 897 921> 80 61<0 695 0 695> 189 54<897 921>
LayerCount: 2
Back
Fore
SplineSet
-27 921 m 1
 28 921 l 1
 28 873 61 846 108 846 c 0
 154 846 189 873 189 921 c 1
 243 921 l 1
 243 854 197 798 108 798 c 0
 20 798 -27 854 -27 921 c 1
80 0 m 1
 80 695 l 1
 141 695 l 1
 141 0 l 1
 80 0 l 1
EndSplineSet
Position2: "'cpsp' Capital Spacing in Latin lookup 0 subtable" dx=5 dy=0 dh=10 dv=0
EndChar
StartChar: ibreve
Encoding: 301 301 325
Width: 198
Flags: MW
HStem: 0 21G<69 69 69 129> 480 20G<69 129 129 129> 594 49<71.5 125 71.5 142.5> 707 20G<-38 13 13 13 184 235 235 235>
VStem: -38 51<702.5 727 702.5 727> 69 60<0 500 0 500> 184 51<702.5 727>
LayerCount: 2
Back
Fore
SplineSet
69 0 m 1
 69 500 l 1
 129 500 l 1
 129 0 l 1
 69 0 l 1
-38 727 m 1
 13 727 l 1
 13 678 45 643 98 643 c 0
 152 643 184 678 184 727 c 1
 235 727 l 1
 235 650 187 594 98 594 c 0
 9 594 -38 650 -38 727 c 1
EndSplineSet
EndChar
StartChar: Iogonek
Encoding: 302 302 65
Width: 221
Flags: MW
HStem: -202 55<93 104.5>
VStem: 9 60<-123 -103.5> 80 61<2 695 0 695>
LayerCount: 2
Back
Fore
SplineSet
154 -141 m 1
 160 -193 l 1
 160 -193 120 -202 89 -202 c 0
 40 -202 9 -171 9 -125 c 0xe0
 9 -82 49 -31 80 2 c 1
 80 695 l 1
 141 695 l 1
 141 0 l 1xa0
 98 -46 69 -81 69 -113 c 0
 69 -133 83 -147 103 -147 c 0
 118 -147 154 -141 154 -141 c 1
EndSplineSet
Position2: "'cpsp' Capital Spacing in Latin lookup 0 subtable" dx=5 dy=0 dh=10 dv=0
EndChar
StartChar: iogonek
Encoding: 303 303 326
Width: 199
Flags: MW
HStem: -202 55<79.5 91.5> 0 21G<130 130> 480 20G<70 130 130 130> 618 78<69 131 69 131>
VStem: -5 60<-123 -102.5> 70 60<6 500 0 500>
LayerCount: 2
Back
Fore
SplineSet
141 -141 m 1
 146 -193 l 1
 146 -193 107 -202 76 -202 c 0
 26 -202 -5 -171 -5 -125 c 0xfc
 -5 -80 39 -27 70 6 c 1
 70 500 l 1
 130 500 l 1
 130 0 l 1xf4
 89 -37 55 -81 55 -113 c 0
 55 -133 70 -147 89 -147 c 0
 105 -147 141 -141 141 -141 c 1
69 618 m 1xf4
 69 696 l 1
 131 696 l 1
 131 618 l 1
 69 618 l 1xf4
EndSplineSet
EndChar
StartChar: Idotaccent
Encoding: 304 304 62
Width: 221
Flags: MW
HStem: 0 21G<80 80 80 141> 844 78<83 135 83 135>
VStem: 80 61<0 695 0 695> 83 52<844 922 844 922>
LayerCount: 2
Back
Fore
SplineSet
83 844 m 1xd0
 83 922 l 1
 135 922 l 1
 135 844 l 1
 83 844 l 1xd0
80 0 m 1xe0
 80 695 l 1
 141 695 l 1
 141 0 l 1
 80 0 l 1xe0
EndSplineSet
Position2: "'cpsp' Capital Spacing in Latin lookup 0 subtable" dx=5 dy=0 dh=10 dv=0
EndChar
StartChar: dotlessi
Encoding: 305 305 184
Width: 198
Flags: MW
HStem: 0 21G<69 69 69 129> 480 20G<69 129 129 129>
VStem: 69 60<0 500 0 500>
LayerCount: 2
Back
Fore
SplineSet
69 0 m 1
 69 500 l 1
 129 500 l 1
 129 0 l 1
 69 0 l 1
EndSplineSet
EndChar
StartChar: Jcircumflex
Encoding: 308 308 68
Width: 264
Flags: MW
HStem: -71 55<17 92> 797 134<7 168 7 168 136 239 136 299>
VStem: 126 62<41.5 695>
LayerCount: 2
Back
Fore
SplineSet
187 695 m 1
 188 111 l 2
 188 -28 167 -71 17 -71 c 1
 17 -16 l 1
 121 -15 126 16 126 119 c 2
 126 695 l 1
 187 695 l 1
7 797 m 1
 136 931 l 1
 168 931 l 1
 299 797 l 1
 239 797 l 1
 153 882 l 1
 66 797 l 1
 7 797 l 1
EndSplineSet
Position2: "'cpsp' Capital Spacing in Latin lookup 0 subtable" dx=5 dy=0 dh=10 dv=0
EndChar
StartChar: jcircumflex
Encoding: 309 309 327
Width: 198
Flags: MW
HStem: -237 21G<-23 -23> 480 20G<69 129 129 129> 590 145<-38 113 -38 113 81 174 81 233>
VStem: 69 60<0 500>
LayerCount: 2
Back
Fore
SplineSet
69 0 m 2
 69 500 l 1
 129 500 l 1
 129 0 l 2
 129 -134 116 -158 -23 -237 c 1
 -47 -189 l 1
 65 -121 69 -105 69 0 c 2
-38 590 m 1
 81 735 l 1
 113 735 l 1
 233 590 l 1
 174 590 l 1
 98 680 l 1
 21 590 l 1
 -38 590 l 1
EndSplineSet
EndChar
StartChar: Kcommaaccent
Encoding: 310 310 70
Width: 518
Flags: MW
HStem: 0 21G<80 141 80 80 434 503 434 434> 315 54
VStem: 80 61<0 314 0 368 368 695>
LayerCount: 2
Back
Fore
SplineSet
243 -73 m 1
 206 -276 l 1
 253 -276 l 1
 299 -73 l 1
 243 -73 l 1
434 0 m 1
 241 316 l 1
 141 314 l 1
 141 0 l 1
 80 0 l 1
 80 695 l 1
 141 695 l 1
 141 368 l 1
 240 370 l 1
 423 695 l 1
 492 695 l 1
 292 349 l 1
 503 0 l 1
 434 0 l 1
EndSplineSet
Position2: "'cpsp' Capital Spacing in Latin lookup 0 subtable" dx=5 dy=0 dh=10 dv=0
EndChar
StartChar: kcommaaccent
Encoding: 311 311 328
Width: 446
Flags: MW
HStem: -276 203<149 242 186 196> 0 21G<69 129 69 69 356 356 356 424> 241 52 480 20G<353 422 422 422> 702 20G<69 129 129 129>
VStem: 69 60<0 240 292 722>
LayerCount: 2
Back
Fore
SplineSet
149 -276 m 1
 186 -73 l 1
 242 -73 l 1
 196 -276 l 1
 149 -276 l 1
129 0 m 1
 69 0 l 1
 69 722 l 1
 129 722 l 1
 129 292 l 1
 199 294 l 1
 353 500 l 1
 422 500 l 1
 251 271 l 1
 424 0 l 1
 356 0 l 1
 200 242 l 1
 129 240 l 1
 129 0 l 1
EndSplineSet
EndChar
StartChar: Lacute
Encoding: 313 313 72
Width: 441
Flags: MW
HStem: 0 55<141 428 141 428>
VStem: 80 61<55 695 55 695 55 695>
LayerCount: 2
Back
Fore
SplineSet
140 790 m 1
 121 833 l 1
 318 930 l 1
 338 878 l 1
 140 790 l 1
428 0 m 1
 80 0 l 1
 80 695 l 1
 141 695 l 1
 141 55 l 1
 428 55 l 1
 428 0 l 1
EndSplineSet
Position2: "'cpsp' Capital Spacing in Latin lookup 0 subtable" dx=5 dy=0 dh=10 dv=0
EndChar
StartChar: lacute
Encoding: 314 314 329
Width: 207
Flags: MW
HStem: 0 21G<74 74 74 133> 702 20G<74 133 133 133>
VStem: 74 59<0 722 0 722>
LayerCount: 2
Back
Fore
SplineSet
74 0 m 1
 74 722 l 1
 133 722 l 1
 133 0 l 1
 74 0 l 1
74 790 m 1
 55 833 l 1
 252 930 l 1
 272 878 l 1
 74 790 l 1
EndSplineSet
EndChar
StartChar: Lcommaaccent
Encoding: 315 315 74
Width: 441
Flags: MW
HStem: -73 128<222 222 222 278> 0 55<141 428 141 428>
VStem: 80 61<55 695 55 695 55 695>
LayerCount: 2
Back
Fore
SplineSet
222 -73 m 1xa0
 185 -276 l 1
 232 -276 l 1
 278 -73 l 1
 222 -73 l 1xa0
428 0 m 1x60
 80 0 l 1
 80 695 l 1
 141 695 l 1
 141 55 l 1
 428 55 l 1
 428 0 l 1x60
EndSplineSet
Position2: "'cpsp' Capital Spacing in Latin lookup 0 subtable" dx=5 dy=0 dh=10 dv=0
EndChar
StartChar: lcommaaccent
Encoding: 316 316 331
Width: 207
Flags: MW
HStem: 0 21G<74 74 74 133> 702 20G<74 133 133 133>
VStem: 74 59<0 722 0 722>
LayerCount: 2
Back
Fore
SplineSet
75 -73 m 1
 38 -276 l 1
 85 -276 l 1
 131 -73 l 1
 75 -73 l 1
74 0 m 1
 74 722 l 1
 133 722 l 1
 133 0 l 1
 74 0 l 1
EndSplineSet
EndChar
StartChar: Lcaron
Encoding: 317 317 73
Width: 458
Flags: MW
HStem: 0 55<141 428 141 428> 467 230<348 403 348 403>
VStem: 80 61<55 695 55 695 55 695> 348 55<467 697 467 697>
LayerCount: 2
Back
Fore
SplineSet
403 697 m 1
 403 467 l 1
 348 467 l 1
 348 697 l 1
 403 697 l 1
428 0 m 1
 80 0 l 1
 80 695 l 1
 141 695 l 1
 141 55 l 1
 428 55 l 1
 428 0 l 1
EndSplineSet
Position2: "'cpsp' Capital Spacing in Latin lookup 0 subtable" dx=5 dy=0 dh=10 dv=0
EndChar
StartChar: lcaron
Encoding: 318 318 330
Width: 239
Flags: MW
HStem: 0 21G<74 74 74 133> 467 230<196 251 196 251> 702 20G<74 133 133 133>
VStem: 74 59<0 722 0 722> 196 55<467 697 467 697>
LayerCount: 2
Back
Fore
SplineSet
251 697 m 1
 251 467 l 1
 196 467 l 1
 196 697 l 1
 251 697 l 1
74 0 m 1
 74 722 l 1
 133 722 l 1xb8
 133 0 l 1
 74 0 l 1
EndSplineSet
EndChar
StartChar: Lslash
Encoding: 321 321 75
Width: 443
Flags: MW
HStem: 0 55<143 430 143 430> 482 20G<288 288>
VStem: 82 61<55 282 282 282 395 695>
LayerCount: 2
Back
Fore
SplineSet
430 0 m 1
 82 0 l 1
 82 282 l 1
 31 245 l 1
 2 291 l 1
 82 350 l 1
 82 695 l 1
 143 695 l 1
 143 395 l 1
 288 502 l 1
 318 457 l 1
 143 327 l 1
 143 55 l 1
 430 55 l 1
 430 0 l 1
EndSplineSet
Position2: "'cpsp' Capital Spacing in Latin lookup 0 subtable" dx=5 dy=0 dh=10 dv=0
EndChar
StartChar: lslash
Encoding: 322 322 190
Width: 274
Flags: MW
HStem: 0 21G<106 106 106 165> 702 20G<106 165 165 165>
VStem: 106 59<0 292 292 292 402 722>
LayerCount: 2
Back
Fore
SplineSet
106 0 m 1
 106 292 l 1
 42 245 l 1
 12 291 l 1
 106 359 l 1
 106 722 l 1
 165 722 l 1
 165 402 l 1
 229 449 l 1
 260 405 l 1
 165 335 l 1
 165 0 l 1
 106 0 l 1
EndSplineSet
EndChar
StartChar: Nacute
Encoding: 323 323 78
Width: 623
Flags: MW
HStem: 0 61<431 484 465 484 465 544> 634 61<141 160 141 141>
VStem: 80 61<0 634 0 695> 484 60<61 695 0 695>
LayerCount: 2
Back
Fore
SplineSet
236 790 m 1
 217 833 l 1
 414 930 l 1
 434 878 l 1
 236 790 l 1
80 0 m 1
 80 695 l 1
 194 695 l 1
 465 61 l 1
 484 61 l 1
 484 695 l 1
 544 695 l 1
 544 0 l 1
 431 0 l 1
 160 634 l 1
 141 634 l 1
 141 0 l 1
 80 0 l 1
EndSplineSet
Position2: "'cpsp' Capital Spacing in Latin lookup 0 subtable" dx=5 dy=0 dh=10 dv=0
EndChar
StartChar: nacute
Encoding: 324 324 332
Width: 496
Flags: MW
HStem: 0 741<69 348 129 348 348 431 348 431>
VStem: 129 242<0 293 0 355 0 355 0 418>
LayerCount: 2
Back
Fore
SplineSet
69 0 m 1
 129 0 l 1
 129 355 l 1
 129 355 197 457 270 457 c 0
 344 457 371 405 371 293 c 2
 371 0 l 1
 431 0 l 1
 431 312 l 2
 431 437 387 510 280 510 c 0
 194 510 129 418 129 418 c 1
 128 500 l 1
 69 500 l 1
 69 0 l 1
169 601 m 1
 151 645 l 1
 348 741 l 1
 367 689 l 1
 169 601 l 1
EndSplineSet
EndChar
StartChar: ncommaaccent
Encoding: 326 326 334
Width: 496
Flags: MW
HStem: 0 21G<69 129 69 69 371 371 371 431> 457 53<237 307> 480 20G<69 128 128 128>
VStem: 69 60<0 355> 371 60<0 293 293 312 0 349>
LayerCount: 2
Back
Fore
SplineSet
129 0 m 1xd8
 69 0 l 1
 69 500 l 1
 128 500 l 1xb8
 129 418 l 1
 129 418 194 510 280 510 c 0
 387 510 431 437 431 312 c 2
 431 0 l 1
 371 0 l 1
 371 293 l 2
 371 405 344 457 270 457 c 0
 197 457 129 355 129 355 c 1
 129 0 l 1xd8
196 -276 m 1
 233 -73 l 1
 289 -73 l 1
 243 -276 l 1
 196 -276 l 1
EndSplineSet
EndChar
StartChar: Ncaron
Encoding: 327 327 79
Width: 623
Flags: MW
HStem: 0 61<431 484 465 484 465 544> 634 61<141 160 141 141> 792 134<168 332 168 297>
VStem: 80 61<0 634 0 695> 484 60<61 695 0 695>
LayerCount: 2
Back
Fore
SplineSet
461 926 m 1
 332 792 l 1
 297 792 l 1
 168 926 l 1
 231 926 l 1
 315 839 l 1
 398 926 l 1
 461 926 l 1
80 0 m 1
 80 695 l 1
 194 695 l 1
 465 61 l 1
 484 61 l 1
 484 695 l 1
 544 695 l 1
 544 0 l 1
 431 0 l 1
 160 634 l 1
 141 634 l 1
 141 0 l 1
 80 0 l 1
EndSplineSet
Position2: "'cpsp' Capital Spacing in Latin lookup 0 subtable" dx=5 dy=0 dh=10 dv=0
EndChar
StartChar: ncaron
Encoding: 328 328 333
Width: 496
Flags: MW
HStem: 0 21G<69 129 69 69 371 371 371 431> 457 53<237 307> 480 20G<69 128 128 128> 590 145<122 273 122 241>
VStem: 69 60<0 355> 371 60<0 293 293 312 0 349>
LayerCount: 2
Back
Fore
SplineSet
129 0 m 1xdc
 69 0 l 1
 69 500 l 1
 128 500 l 1xbc
 129 418 l 1
 129 418 194 510 280 510 c 0
 387 510 431 437 431 312 c 2
 431 0 l 1
 371 0 l 1
 371 293 l 2
 371 405 344 457 270 457 c 0
 197 457 129 355 129 355 c 1
 129 0 l 1xdc
273 590 m 1
 241 590 l 1
 122 735 l 1
 182 735 l 1
 257 642 l 1
 333 735 l 1
 393 735 l 1
 273 590 l 1
EndSplineSet
EndChar
StartChar: Eng
Encoding: 330 330 300
Width: 623
Flags: MW
HStem: -181 55<374 425 374 448> 0 61<431 484 465 484 465 484 465 544> 636 61<141 160 141 141>
VStem: 80 61<0 636 0 697> 484 60<-69.5 0 61 697>
LayerCount: 2
Back
Fore
SplineSet
80 0 m 1
 80 697 l 1
 194 697 l 1
 465 61 l 1
 484 61 l 1
 484 697 l 1
 544 697 l 1
 544 0 l 2
 544 -139 522 -181 374 -181 c 1
 374 -126 l 1
 476 -126 483 -95 484 0 c 1
 431 0 l 1
 160 636 l 1
 141 636 l 1
 141 0 l 1
 80 0 l 1
EndSplineSet
Position2: "'cpsp' Capital Spacing in Latin lookup 0 subtable" dx=5 dy=0 dh=10 dv=0
EndChar
StartChar: eng
Encoding: 331 331 448
Width: 491
Flags: MW
HStem: -233 21G<279 279> 0 21G<69 125 69 69> 451 58<238.5 285.5> 480 20G<69 125 125 125>
VStem: 69 56<0 367 429 500> 370 56<-3 241>
LayerCount: 2
Back
Fore
SplineSet
125 0 m 1xec
 69 0 l 1
 69 500 l 1
 125 500 l 1xdc
 125 429 l 1
 153 457 206 509 271 509 c 0
 357 509 400 468 413 396 c 1
 427 347 426 310 426 241 c 2
 426 -4 l 2
 426 -126 398 -164 279 -233 c 1
 254 -179 l 1
 350 -121 370 -92 370 -3 c 2
 370 241 l 2
 370 308 366 362 353 396 c 0
 341 437 307 451 264 451 c 0
 195 451 125 367 125 367 c 1
 125 0 l 1xec
EndSplineSet
EndChar
StartChar: obreve
Encoding: 335 335 336
Width: 486
Flags: MW
HStem: -10 53<180 305.5 180 328.5> 457 52<190 296> 594 49<216.5 270 216.5 287.5> 707 20G<107 158 158 158 329 380 380 380>
VStem: 50 59<190.5 325.5 190.5 338> 107 51<702.5 727 702.5 727> 329 51<702.5 727> 376 59<190.5 325.5>
LayerCount: 2
Back
Fore
SplineSet
243 509 m 0xf9
 395 509 435 419 435 257 c 0
 435 95 414 -10 243 -10 c 0
 71 -10 50 95 50 257 c 0
 50 419 91 509 243 509 c 0xf9
243 43 m 0
 368 43 376 124 376 257 c 0
 376 394 349 457 243 457 c 0
 137 457 109 394 109 257 c 0
 109 124 117 43 243 43 c 0
107 727 m 1xf6
 158 727 l 1
 158 678 190 643 243 643 c 0
 297 643 329 678 329 727 c 1
 380 727 l 1
 380 650 332 594 243 594 c 0
 154 594 107 650 107 727 c 1xf6
EndSplineSet
EndChar
StartChar: ohungarumlaut
Encoding: 337 337 337
Width: 486
Flags: MW
HStem: -10 53<180 305.5 180 328.5> 457 52<190 296>
VStem: 50 59<190.5 325.5 190.5 338> 376 59<190.5 325.5>
LayerCount: 2
Back
Fore
SplineSet
243 509 m 0
 395 509 435 419 435 257 c 0
 435 95 414 -10 243 -10 c 0
 71 -10 50 95 50 257 c 0
 50 419 91 509 243 509 c 0
243 43 m 0
 368 43 376 124 376 257 c 0
 376 394 349 457 243 457 c 0
 137 457 109 394 109 257 c 0
 109 124 117 43 243 43 c 0
298 586 m 1
 263 621 l 1
 407 747 l 1
 444 711 l 1
 298 586 l 1
120 586 m 1
 85 621 l 1
 229 746 l 1
 266 711 l 1
 120 586 l 1
EndSplineSet
EndChar
StartChar: OE
Encoding: 338 338 93
Width: 866
Flags: MW
HStem: -10 62<255.5 317 255.5 319.5> -1 53 -1 62<499 821 499 821 443 821> 325 60<499 765 499 765> 636 61<499 821 499 499> 646 61<232 319 209.5 326>
VStem: 55 60<313.5 445 313.5 462.5> 441 58<61 325 385 636>
LayerCount: 2
Back
Fore
SplineSet
821 -1 m 1x3b
 443 -1 l 1x3b
 398 -5 337 -10 302 -10 c 0
 175 -10 108 45 77 151 c 0
 62 203 55 268 55 345 c 0
 55 580 117 707 302 707 c 0x97
 336 707 400 703 441 697 c 1
 821 697 l 1
 821 636 l 1
 499 636 l 1
 499 385 l 1
 765 385 l 1
 765 325 l 1
 499 325 l 1
 499 61 l 1
 821 61 l 1
 821 -1 l 1x3b
307 52 m 0x57
 327 52 402 56 441 59 c 1
 441 637 l 1
 408 640 345 646 307 646 c 0
 157 646 115 544 115 346 c 0
 115 281 119 226 130 183 c 0
 153 96 204 52 307 52 c 0x57
EndSplineSet
Position2: "'cpsp' Capital Spacing in Latin lookup 0 subtable" dx=5 dy=0 dh=10 dv=0
EndChar
StartChar: oe
Encoding: 339 339 226
Width: 809
Flags: MW
HStem: -10 57<217.5 292.5 539.5 606> 223 53<443 706 442 763 443 443> 453 56<194 278.5>
VStem: 50 58<226 330 221 345> 385 57<198.5 276> 706 57<223 302>
LayerCount: 2
Back
Fore
SplineSet
572 47 m 0
 640 47 744 56 744 56 c 1
 746 4 l 1
 746 4 645 -10 569 -10 c 0
 492 -10 440 28 414 83 c 1
 387 21 337 -10 248 -10 c 0
 149 -10 96 23 71 92 c 0
 54 141 50 194 50 258 c 0
 50 432 102 509 248 509 c 0
 331 509 387 474 416 406 c 1
 447 479 507 509 578 509 c 0
 665 509 723 473 748 392 c 0
 758 359 763 320 763 273 c 2
 763 223 l 1
 443 223 l 1
 443 185 447 153 455 127 c 0
 472 75 507 47 572 47 c 0
248 47 m 0
 376 47 385 140 385 257 c 0
 385 295 384 337 369 377 c 0
 348 430 309 453 248 453 c 0
 140 453 108 402 108 258 c 0
 108 184 113 131 132 97 c 0
 152 63 187 47 248 47 c 0
442 276 m 1
 706 276 l 1
 706 328 699 366 687 394 c 0
 667 435 632 452 579 452 c 0
 494 452 443 402 442 276 c 1
EndSplineSet
EndChar
StartChar: Racute
Encoding: 340 340 97
Width: 566
Flags: MW
HStem: 328 313<141 307 141 307> 695 21G<80 307 80 80>
VStem: 80 448<0 695 0 0> 141 306<0 538.5 274 538.5 435 538.5 435 641 435 641>
LayerCount: 2
Back
Fore
SplineSet
328 274 m 1xe0
 461 0 l 1
 528 0 l 1
 389 285 l 1
 457 308 511 358 511 488 c 0
 511 628 442 695 307 695 c 2
 80 695 l 1
 80 0 l 1
 141 0 l 1
 141 274 l 1
 328 274 l 1xe0
447 488 m 0xd0
 447 382 404 328 307 328 c 2
 141 328 l 1
 141 641 l 1
 307 641 l 2
 404 641 447 589 447 488 c 0xd0
191 790 m 1
 172 833 l 1
 369 930 l 1
 389 878 l 1
 191 790 l 1
EndSplineSet
Position2: "'cpsp' Capital Spacing in Latin lookup 0 subtable" dx=5 dy=0 dh=10 dv=0
EndChar
StartChar: Rcaron
Encoding: 344 344 98
Width: 566
Flags: MW
HStem: 328 313<141 307 141 307> 695 231<115 178 115 307 80 178> 792 134<115 279 115 244>
VStem: 80 448<0 695 0 0> 141 306<0 538.5 274 538.5 435 538.5 435 641 435 641>
LayerCount: 2
Back
Fore
SplineSet
408 926 m 1xd0
 279 792 l 1
 244 792 l 1xb0
 115 926 l 1
 178 926 l 1xd0
 262 839 l 1xb0
 345 926 l 1
 408 926 l 1xd0
328 274 m 1
 461 0 l 1
 528 0 l 1
 389 285 l 1
 457 308 511 358 511 488 c 0
 511 628 442 695 307 695 c 2
 80 695 l 1xd0
 80 0 l 1
 141 0 l 1
 141 274 l 1
 328 274 l 1
447 488 m 0xc8
 447 382 404 328 307 328 c 2
 141 328 l 1
 141 641 l 1
 307 641 l 2
 404 641 447 589 447 488 c 0xc8
EndSplineSet
Position2: "'cpsp' Capital Spacing in Latin lookup 0 subtable" dx=5 dy=0 dh=10 dv=0
EndChar
StartChar: rcaron
Encoding: 345 345 340
Width: 310
Flags: MW
HStem: 0 21G<69 69 69 129> 422 78<69 129> 490 20G<293 293> 590 145<27 178 27 146>
VStem: 69 60<0 370 422 500>
LayerCount: 2
Back
Fore
SplineSet
69 0 m 1xb8
 69 500 l 1
 129 500 l 1
 129 422 l 1xd8
 129 422 205 487 293 510 c 1
 293 446 l 1
 219 428 129 370 129 370 c 1
 129 0 l 1
 69 0 l 1xb8
178 590 m 1
 146 590 l 1
 27 735 l 1
 87 735 l 1
 162 642 l 1
 238 735 l 1
 298 735 l 1
 178 590 l 1
EndSplineSet
EndChar
StartChar: Scedilla
Encoding: 350 350 103
Width: 499
Flags: MW
HStem: -207 46<263.5 287.5 260.5 309.5> -87 39<267 274 267 274 231 274> -9 54<231 231 267 267> 650 55<208 290.5>
VStem: 46 64<474.5 567 474.5 581> 231 36<-48 -9 -48 -9 -48 -9> 317 52<-136 -106.5> 391 63<148.5 241.5>
LayerCount: 2
Back
Fore
SplineSet
438 685 m 1
 434 635 l 1
 434 635 325 650 256 650 c 0
 160 650 110 613 110 521 c 0
 110 428 162 410 268 387 c 0
 389 359 454 324 454 203 c 0xfd
 454 70 395 -4 267 -9 c 1
 267 -48 l 1
 274 -48 l 2
 324 -48 369 -60 369 -124 c 0
 369 -182 335 -207 284 -207 c 0
 243 -207 205 -201 205 -201 c 1
 208 -157 l 1
 208 -157 247 -161 274 -161 c 0
 301 -161 317 -150 317 -122 c 0
 317 -91 297 -87 274 -87 c 2xff
 231 -87 l 1
 231 -9 l 1
 156 -7 53 8 53 8 c 1
 58 60 l 1
 58 60 183 45 251 45 c 0
 348 45 391 100 391 197 c 0
 391 286 341 312 245 331 c 0
 118 358 46 396 46 516 c 0
 46 646 122 705 254 705 c 0
 330 705 438 685 438 685 c 1
EndSplineSet
Substitution2: "'locl' Localized Forms in Latin lookup 0 subtable" Scommaaccent
Position2: "'cpsp' Capital Spacing in Latin lookup 0 subtable" dx=5 dy=0 dh=10 dv=0
EndChar
StartChar: scedilla
Encoding: 351 351 343
Width: 426
Flags: MW
HStem: -207 46<216.5 240.5 213.5 262.5> -87 39<220 227 220 227 184 227> -10 53<220 220> -9 21G<184 184> 457 52<181 239.5>
VStem: 45 61<342 403 342 420.5> 184 36<-48 -10 -48 -9 -48 -9> 270 52<-136 -106.5> 323 61<103 174>
LayerCount: 2
Back
Fore
SplineSet
322 -124 m 0xef
 322 -182 288 -207 237 -207 c 0
 196 -207 158 -201 158 -201 c 1
 161 -157 l 1
 161 -157 200 -161 227 -161 c 0
 254 -161 270 -150 270 -122 c 0
 270 -91 250 -87 227 -87 c 2
 184 -87 l 1
 184 -9 l 1xef
 123 -6 47 9 47 9 c 1xde80
 51 59 l 1
 51 59 153 43 201 43 c 0
 282 43 323 65 323 141 c 0
 323 207 274 215 202 229 c 0
 110 246 45 269 45 367 c 0
 45 474 125 509 205 509 c 0
 285 509 368 495 368 495 c 1
 365 446 l 1
 365 446 272 457 207 457 c 0
 155 457 106 434 106 372 c 0
 106 312 142 298 218 283 c 0
 318 263 384 248 384 146 c 0xee80
 384 30 321 -7 220 -10 c 1
 220 -48 l 1
 227 -48 l 2
 277 -48 322 -60 322 -124 c 0xef
EndSplineSet
Substitution2: "'locl' Localized Forms in Latin lookup 0 subtable" scommaaccent
EndChar
StartChar: Scaron
Encoding: 352 352 102
Width: 499
Flags: MW
HStem: -10 21G<213.5 320.5> -10 55<217 299.5 217 320.5> 650 55<208 290.5> 796 134<120 284 120 249>
VStem: 46 64<474.5 567 474.5 581> 391 63<148.5 241.5>
LayerCount: 2
Back
Fore
SplineSet
413 930 m 1x7c
 284 796 l 1
 249 796 l 1
 120 930 l 1
 183 930 l 1
 267 843 l 1
 350 930 l 1
 413 930 l 1x7c
438 685 m 1
 434 635 l 1
 434 635 325 650 256 650 c 0
 160 650 110 613 110 521 c 0
 110 428 162 410 268 387 c 0
 389 359 454 324 454 203 c 0
 454 65 390 -10 251 -10 c 0x7c
 176 -10 53 8 53 8 c 1xbc
 58 60 l 1
 58 60 183 45 251 45 c 0
 348 45 391 100 391 197 c 0
 391 286 341 312 245 331 c 0
 118 358 46 396 46 516 c 0
 46 646 122 705 254 705 c 0
 330 705 438 685 438 685 c 1
EndSplineSet
Position2: "'cpsp' Capital Spacing in Latin lookup 0 subtable" dx=5 dy=0 dh=10 dv=0
EndChar
StartChar: scaron
Encoding: 353 353 153
Width: 425
Flags: MW
HStem: -10 21G<174 260> -10 53<177 241.5 177 260> 457 52<181 239.5> 590 145<85 236 85 204>
VStem: 45 61<342 403 342 420.5> 323 61<103 174>
LayerCount: 2
Back
Fore
SplineSet
368 495 m 1x6c
 365 446 l 1
 365 446 272 457 207 457 c 0
 155 457 106 434 106 372 c 0
 106 312 142 298 218 283 c 0
 318 263 384 248 384 146 c 0
 384 25 315 -10 205 -10 c 0x7c
 143 -10 47 9 47 9 c 1xac
 51 59 l 1
 51 59 153 43 201 43 c 0
 282 43 323 65 323 141 c 0
 323 207 274 215 202 229 c 0
 110 246 45 269 45 367 c 0
 45 474 125 509 205 509 c 0
 285 509 368 495 368 495 c 1x6c
236 590 m 1
 204 590 l 1
 85 735 l 1
 145 735 l 1
 220 642 l 1
 296 735 l 1
 356 735 l 1
 236 590 l 1
EndSplineSet
EndChar
StartChar: Tcedilla
Encoding: 354 354 450
Width: 475
Flags: MW
HStem: -207 46<255.5 279.5 252.5 301.5> -87 39<259 266 259 266 223 266> 0 21G<209 223 209 209 259 259 259 270> 640 55<13 209 13 462 270 270 270 462>
VStem: 209 61<0 640 0 640> 309 52<-136 -106.5>
LayerCount: 2
Back
Fore
SplineSet
361 -124 m 0
 361 -182 327 -207 276 -207 c 0
 235 -207 197 -201 197 -201 c 1
 200 -157 l 1
 200 -157 239 -161 266 -161 c 0
 293 -161 309 -150 309 -122 c 0
 309 -91 289 -87 266 -87 c 2
 223 -87 l 1
 223 0 l 1
 209 0 l 1
 209 640 l 1
 13 640 l 1
 13 695 l 1
 462 695 l 1
 462 640 l 1
 270 640 l 1
 270 0 l 1
 259 0 l 1
 259 -48 l 1
 266 -48 l 2
 316 -48 361 -60 361 -124 c 0
EndSplineSet
Substitution2: "'locl' Localized Forms in Latin lookup 0 subtable" Tcommaaccent
EndChar
StartChar: tcedilla
Encoding: 355 355 451
Width: 323
Flags: MW
HStem: -207 46<211.5 235.5 208.5 257.5> -87 39<215 222 215 222 179 222> -10 53<215 221 215 215> -6 21G<179 179> 447 53<27 95 27 95 154 302>
VStem: 95 59<137 140 140 447 500 653> 179 36<-48 -10 -48 -6 -48 -6> 265 52<-136 -106.5>
LayerCount: 2
Back
Fore
SplineSet
317 -124 m 0xed
 317 -182 283 -207 232 -207 c 0
 191 -207 153 -201 153 -201 c 1
 156 -157 l 1
 156 -157 195 -161 222 -161 c 0
 249 -161 265 -150 265 -122 c 0
 265 -91 245 -87 222 -87 c 2
 179 -87 l 1
 179 -6 l 1xdf
 115 9 95 61 95 137 c 2
 95 447 l 1
 27 447 l 1
 27 500 l 1
 95 500 l 1
 95 653 l 1
 154 653 l 1
 154 500 l 1
 302 500 l 1
 302 447 l 1
 154 447 l 1
 154 140 l 2
 154 79 174 43 227 43 c 0xed
 256 43 308 49 308 49 c 1
 311 1 l 1
 311 1 254 -10 221 -10 c 2
 215 -10 l 1xef
 215 -48 l 1
 222 -48 l 2
 272 -48 317 -60 317 -124 c 0xed
EndSplineSet
Substitution2: "'locl' Localized Forms in Latin lookup 0 subtable" tcommaaccent
EndChar
StartChar: tcaron
Encoding: 357 357 345
Width: 389
Flags: MW
HStem: -10 53<200.5 237.5> 447 53<27 95 27 95 154 302> 467 33
VStem: 95 59<137 140 140 447 500 653> 339 55<467 697 467 697>
LayerCount: 2
Back
Fore
SplineSet
302 447 m 1xd8
 154 447 l 1
 154 140 l 2
 154 79 174 43 227 43 c 0
 256 43 308 49 308 49 c 1
 311 1 l 1
 311 1 254 -10 221 -10 c 0
 124 -10 95 46 95 137 c 2
 95 447 l 1
 27 447 l 1
 27 500 l 1
 95 500 l 1
 95 653 l 1
 154 653 l 1
 154 500 l 1
 302 500 l 1
 302 447 l 1xd8
394 697 m 1
 394 467 l 1
 339 467 l 1xb8
 339 697 l 1
 394 697 l 1
EndSplineSet
EndChar
StartChar: Tbar
Encoding: 358 358 107
Width: 481
Flags: MW
HStem: 0 21G<211 272 211 211> 307 57<54 211 54 211 272 434> 640 55<15 464 15 211 272 272 272 464>
VStem: 211 61<0 307 0 307 364 640>
LayerCount: 2
Back
Fore
SplineSet
15 640 m 1
 15 695 l 1
 464 695 l 1
 464 640 l 1
 272 640 l 1
 272 364 l 1
 434 364 l 1
 434 307 l 1
 272 307 l 1
 272 0 l 1
 211 0 l 1
 211 307 l 1
 54 307 l 1
 54 364 l 1
 211 364 l 1
 211 640 l 1
 15 640 l 1
EndSplineSet
Position2: "'cpsp' Capital Spacing in Latin lookup 0 subtable" dx=5 dy=0 dh=10 dv=0
EndChar
StartChar: tbar
Encoding: 359 359 347
Width: 327
Flags: MW
HStem: -10 53<203.5 240.5> 253 53<42 98 42 98 157 301> 447 53<30 98 30 98 157 305>
VStem: 98 59<137 140 140 253 306 447 500 653>
LayerCount: 2
Back
Fore
SplineSet
305 447 m 1
 157 447 l 1
 157 306 l 1
 301 306 l 1
 301 253 l 1
 157 253 l 1
 157 140 l 2
 157 79 177 43 230 43 c 0
 259 43 311 49 311 49 c 1
 314 1 l 1
 314 1 257 -10 224 -10 c 0
 127 -10 98 46 98 137 c 2
 98 253 l 1
 42 253 l 1
 42 306 l 1
 98 306 l 1
 98 447 l 1
 30 447 l 1
 30 500 l 1
 98 500 l 1
 98 653 l 1
 157 653 l 1
 157 500 l 1
 305 500 l 1
 305 447 l 1
EndSplineSet
EndChar
StartChar: Utilde
Encoding: 360 360 120
Width: 596
Flags: MW
HStem: -10 55<243.5 352.5 243.5 372.5> 808 53<366.5 390 366.5 395> 867 52<216 243>
VStem: 76 61<205 695> 459 62<202 205 205 695>
LayerCount: 2
Back
Fore
SplineSet
137 695 m 1
 137 202 l 2
 137 90 189 45 298 45 c 0
 407 45 459 89 459 202 c 2
 459 695 l 1
 521 695 l 1
 521 205 l 2
 521 59 447 -10 298 -10 c 0
 149 -10 76 59 76 205 c 2
 76 695 l 1
 137 695 l 1
450 908 m 1xd8
 463 867 l 1
 463 867 411 808 379 808 c 0xd8
 337 808 259 867 227 867 c 0
 205 867 151 817 151 817 c 1
 139 859 l 1
 139 859 195 919 229 919 c 0xb8
 274 919 352 861 381 861 c 0
 399 861 450 908 450 908 c 1xd8
EndSplineSet
Position2: "'cpsp' Capital Spacing in Latin lookup 0 subtable" dx=5 dy=0 dh=10 dv=0
EndChar
StartChar: utilde
Encoding: 361 361 348
Width: 496
Flags: MW
HStem: -10 53<189.5 259> 0 21G<368 427 368 368> 480 20G<65 125 125 125 367 427 427 427> 620 53<308 331.5 308 336> 669 21G<169.5 196 396 396> 670 21G<100 100> 702 20G<165.5 202.5>
VStem: 65 60<195 207 207 500> 367 60<144 500 0 500>
LayerCount: 2
Back
Fore
SplineSet
384 712 m 1xb380
 396 669 l 1
 396 669 352 620 320 620 c 0
 280 620 211 669 181 669 c 0
 158 669 112 626 112 626 c 1xab80
 100 670 l 1xa780
 100 670 148 722 183 722 c 0
 222 722 295 673 321 673 c 0
 342 673 384 712 384 712 c 1xb380
367 500 m 1
 427 500 l 1
 427 0 l 1
 368 0 l 1x6780
 368 82 l 1
 368 82 302 -10 216 -10 c 0
 109 -10 65 57 65 195 c 2
 65 500 l 1
 125 500 l 1
 125 207 l 2
 125 95 153 43 226 43 c 0
 299 43 367 144 367 144 c 1
 367 500 l 1
EndSplineSet
EndChar
StartChar: Ubreve
Encoding: 364 364 112
Width: 596
Flags: MW
HStem: -10 55<243.5 352.5 243.5 372.5> 799 48<274.5 321 274.5 342.5>
VStem: 76 61<205 695> 163 55<898 922 898 922> 379 54<898 922> 459 62<202 205 205 695>
LayerCount: 2
Back
Fore
SplineSet
137 695 m 1
 137 202 l 2
 137 90 189 45 298 45 c 0
 407 45 459 89 459 202 c 2
 459 695 l 1
 521 695 l 1
 521 205 l 2
 521 59 447 -10 298 -10 c 0
 149 -10 76 59 76 205 c 2
 76 695 l 1
 137 695 l 1
163 922 m 1xfc
 218 922 l 1
 218 874 251 847 298 847 c 0
 344 847 379 874 379 922 c 1
 433 922 l 1
 433 855 387 799 298 799 c 0
 210 799 163 855 163 922 c 1xfc
EndSplineSet
Position2: "'cpsp' Capital Spacing in Latin lookup 0 subtable" dx=5 dy=0 dh=10 dv=0
EndChar
StartChar: Uring
Encoding: 366 366 119
Width: 596
Flags: MW
HStem: -10 55<243.5 352.5 243.5 372.5> 747 43<281.5 317 281.5 328> 895 43<281.5 317>
VStem: 76 61<205 695> 202 40<825 859 825 874> 355 42<825 859> 459 62<202 205 205 695>
LayerCount: 2
Back
Fore
SplineSet
137 695 m 1
 137 202 l 2
 137 90 189 45 298 45 c 0
 407 45 459 89 459 202 c 2
 459 695 l 1
 521 695 l 1
 521 205 l 2
 521 59 447 -10 298 -10 c 0
 149 -10 76 59 76 205 c 2
 76 695 l 1
 137 695 l 1
397 842 m 0
 397 778 357 747 299 747 c 0
 239 747 202 778 202 842 c 0
 202 906 239 938 299 938 c 0
 357 938 397 906 397 842 c 0
242 842 m 0
 242 808 264 790 299 790 c 0
 335 790 355 808 355 842 c 0
 355 876 335 895 299 895 c 0
 264 895 242 876 242 842 c 0
EndSplineSet
Position2: "'cpsp' Capital Spacing in Latin lookup 0 subtable" dx=5 dy=0 dh=10 dv=0
EndChar
StartChar: uring
Encoding: 367 367 351
Width: 496
Flags: MW
HStem: -10 53<189.5 259> 0 21G<368 427 368 368> 480 20G<65 125 125 125 367 427 427 427> 549 41<230.5 259 230.5 271> 696 43<230.5 259>
VStem: 65 60<195 207 207 500> 155 38<629 658.5 629 671> 294 38<629 658.5> 367 60<144 500 0 500>
LayerCount: 2
Back
Fore
SplineSet
155 644 m 0xbf80
 155 698 191 739 245 739 c 0
 297 739 332 698 332 644 c 0
 332 585 297 549 245 549 c 0
 190 549 155 585 155 644 c 0xbf80
193 644 m 0
 193 614 216 590 245 590 c 0
 273 590 294 614 294 644 c 0
 294 673 273 696 245 696 c 0
 216 696 193 673 193 644 c 0
367 500 m 1
 427 500 l 1
 427 0 l 1
 368 0 l 1x7d80
 368 82 l 1
 368 82 302 -10 216 -10 c 0
 109 -10 65 57 65 195 c 2
 65 500 l 1
 125 500 l 1
 125 207 l 2xbd80
 125 95 153 43 226 43 c 0
 299 43 367 144 367 144 c 1
 367 500 l 1
EndSplineSet
EndChar
StartChar: Uogonek
Encoding: 370 370 118
Width: 598
Flags: MW
HStem: -202 55<308 319.5> -9 54
VStem: 77 61<205 695> 224 60<-123 -105.5> 460 62<202 205 205 695>
LayerCount: 2
Back
Fore
SplineSet
138 695 m 1
 138 202 l 2
 138 90 190 45 299 45 c 0
 408 45 460 89 460 202 c 2
 460 695 l 1
 522 695 l 1
 522 205 l 2
 522 74 463 5 344 -7 c 1
 309 -48 284 -84 284 -113 c 0
 284 -133 298 -147 318 -147 c 0
 333 -147 369 -141 369 -141 c 1
 375 -193 l 1
 375 -193 335 -202 304 -202 c 0
 255 -202 224 -171 224 -125 c 0
 224 -86 254 -42 282 -9 c 1
 144 -4 77 64 77 205 c 2
 77 695 l 1
 138 695 l 1
EndSplineSet
Position2: "'cpsp' Capital Spacing in Latin lookup 0 subtable" dx=5 dy=0 dh=10 dv=0
EndChar
StartChar: uogonek
Encoding: 371 371 353
Width: 496
Flags: MW
HStem: -202 55<379 390.5> -10 53<189.5 259> 0 21G<427 427> 480 20G<65 125 125 125 367 427 427 427>
VStem: 65 60<195 207 207 500> 295 60<-123 -103> 367 60<144 500 0 500>
LayerCount: 2
Back
Fore
SplineSet
367 500 m 1xda
 427 500 l 1
 427 0 l 1xba
 385 -42 355 -81 355 -113 c 0
 355 -133 369 -147 389 -147 c 0
 404 -147 440 -141 440 -141 c 1
 446 -193 l 1
 446 -193 406 -202 375 -202 c 0
 326 -202 295 -171 295 -125 c 0xde
 295 -81 336 -28 368 5 c 1
 368 82 l 1
 368 82 302 -10 216 -10 c 0
 109 -10 65 57 65 195 c 2
 65 500 l 1
 125 500 l 1
 125 207 l 2
 125 95 153 43 226 43 c 0
 299 43 367 144 367 144 c 1
 367 500 l 1xda
EndSplineSet
EndChar
StartChar: Wcircumflex
Encoding: 372 372 124
Width: 822
Flags: MW
HStem: 0 56<217 246 217 289 171 246 577 607> 793 134<264 425 264 425 393 496 393 556>
VStem: 33 755<695 695>
LayerCount: 2
Back
Fore
SplineSet
264 793 m 1
 393 927 l 1
 425 927 l 1
 556 793 l 1
 496 793 l 1
 410 878 l 1
 323 793 l 1
 264 793 l 1
33 695 m 1
 92 695 l 1
 217 56 l 1
 246 56 l 1
 377 685 l 1
 443 685 l 1
 577 56 l 1
 607 56 l 1
 729 695 l 1
 788 695 l 1
 653 0 l 1
 534 0 l 1
 410 605 l 1
 289 0 l 1
 171 0 l 1
 33 695 l 1
EndSplineSet
Position2: "'cpsp' Capital Spacing in Latin lookup 0 subtable" dx=5 dy=0 dh=10 dv=0
EndChar
StartChar: wcircumflex
Encoding: 373 373 356
Width: 721
Flags: MW
HStem: 0 52<193 213 193 255 145 213 508 528> 480 20G<31 92 92 92 629 689 689 689> 590 145<222 373 222 373 341 434 341 493>
VStem: 31 658<500 500>
LayerCount: 2
Back
Fore
SplineSet
31 500 m 1
 92 500 l 1
 193 52 l 1
 213 52 l 1
 328 490 l 1
 392 490 l 1
 508 52 l 1
 528 52 l 1
 629 500 l 1
 689 500 l 1
 576 0 l 1
 466 0 l 1
 360 409 l 1
 255 0 l 1
 145 0 l 1
 31 500 l 1
222 590 m 1
 341 735 l 1
 373 735 l 1
 493 590 l 1
 434 590 l 1
 358 680 l 1
 281 590 l 1
 222 590 l 1
EndSplineSet
EndChar
StartChar: Ydieresis
Encoding: 376 376 131
Width: 497
Flags: MW
HStem: 0 21G<219 278 219 219> 817 83<132 180 132 180 316 364>
VStem: 132 48<817 900 817 900> 219 59<0 293 0 293> 316 48<817 900 817 900>
LayerCount: 2
Back
Fore
SplineSet
132 817 m 1
 132 900 l 1
 180 900 l 1
 180 817 l 1
 132 817 l 1
316 817 m 1
 316 900 l 1
 364 900 l 1
 364 817 l 1
 316 817 l 1
482 695 m 1
 278 293 l 1
 278 0 l 1
 219 0 l 1
 219 293 l 1
 12 695 l 1
 80 695 l 1
 249 361 l 1
 415 695 l 1
 482 695 l 1
EndSplineSet
Position2: "'cpsp' Capital Spacing in Latin lookup 0 subtable" dx=5 dy=0 dh=10 dv=0
EndChar
StartChar: Zacute
Encoding: 377 377 134
Width: 497
Flags: MW
HStem: -1 55<107 456 107 456> 640 55<41 456 41 389>
VStem: 41 66<54 78 54 86 54 86> 389 67<615 640 640 640>
LayerCount: 2
Back
Fore
SplineSet
190 790 m 1
 171 833 l 1
 368 930 l 1
 388 878 l 1
 190 790 l 1
41 640 m 1
 41 695 l 1
 456 695 l 1
 456 607 l 1
 107 78 l 1
 107 54 l 1
 456 54 l 1
 456 -1 l 1
 41 -1 l 1
 41 86 l 1
 389 615 l 1
 389 640 l 1
 41 640 l 1
EndSplineSet
Position2: "'cpsp' Capital Spacing in Latin lookup 0 subtable" dx=5 dy=0 dh=10 dv=0
EndChar
StartChar: zacute
Encoding: 378 378 360
Width: 422
Flags: MW
HStem: 0 741<311 311 311 382 311 382>
VStem: 39 343<0 52 0 52 449 500>
LayerCount: 2
Back
Fore
SplineSet
39 500 m 1
 39 447 l 1
 314 447 l 1
 39 52 l 1
 39 0 l 1
 382 0 l 1
 382 52 l 1
 107 52 l 1
 382 449 l 1
 382 500 l 1
 39 500 l 1
132 601 m 1
 114 645 l 1
 311 741 l 1
 330 689 l 1
 132 601 l 1
EndSplineSet
EndChar
StartChar: zdotaccent
Encoding: 380 380 361
Width: 422
Flags: MW
HStem: 610 78<186 238 186 238>
VStem: 186 52<610 688 610 688>
LayerCount: 2
Back
Fore
SplineSet
39 500 m 1
 39 447 l 1
 314 447 l 1
 39 52 l 1
 39 0 l 1
 382 0 l 1
 382 52 l 1
 107 52 l 1
 382 449 l 1
 382 500 l 1
 39 500 l 1
186 610 m 1
 186 688 l 1
 238 688 l 1
 238 610 l 1
 186 610 l 1
EndSplineSet
EndChar
StartChar: Zcaron
Encoding: 381 381 135
Width: 497
Flags: MW
HStem: -1 55<107 456 107 456> 640 55<41 456 41 389> 791 134<112 276 112 241>
VStem: 41 66<54 78 54 86 54 86> 389 67<615 640 640 640>
LayerCount: 2
Back
Fore
SplineSet
405 925 m 1
 276 791 l 1
 241 791 l 1
 112 925 l 1
 175 925 l 1
 259 838 l 1
 342 925 l 1
 405 925 l 1
41 640 m 1
 41 695 l 1
 456 695 l 1
 456 607 l 1
 107 78 l 1
 107 54 l 1
 456 54 l 1
 456 -1 l 1
 41 -1 l 1
 41 86 l 1
 389 615 l 1
 389 640 l 1
 41 640 l 1
EndSplineSet
Position2: "'cpsp' Capital Spacing in Latin lookup 0 subtable" dx=5 dy=0 dh=10 dv=0
EndChar
StartChar: zcaron
Encoding: 382 382 155
Width: 422
Flags: MW
HStem: 0 52<107 382 39 39> 447 53<39 382 39 314> 590 145<81 232 81 200>
VStem: 39 343<0 52 0 52 449 500>
LayerCount: 2
Back
Fore
SplineSet
232 590 m 1
 200 590 l 1
 81 735 l 1
 141 735 l 1
 216 642 l 1
 292 735 l 1
 352 735 l 1
 232 590 l 1
39 447 m 1
 39 500 l 1
 382 500 l 1
 382 449 l 1
 107 52 l 1
 382 52 l 1
 382 0 l 1
 39 0 l 1
 39 52 l 1
 314 447 l 1
 39 447 l 1
EndSplineSet
EndChar
StartChar: florin
Encoding: 402 402 225
Width: 560
Flags: MW
HStem: -236 50 355 58<117 224 117 224 282 444> 622 59<324 369.5 305 372.5>
VStem: 224 58<-63 355 413 456>
LayerCount: 2
Back
Fore
SplineSet
282 355 m 1
 282 -63 l 2
 282 -199 232 -243 149 -243 c 0
 116 -243 85 -236 85 -236 c 1
 87 -183 l 1
 87 -183 122 -186 149 -186 c 0
 195 -186 224 -156 224 -63 c 2
 224 355 l 1
 117 355 l 1
 117 413 l 1
 224 413 l 1
 224 472 l 2
 224 633 261 681 349 681 c 0
 390 681 451 676 460 674 c 1
 458 620 l 1
 458 620 387 622 358 622 c 0
 290 622 282 562 282 456 c 2
 282 413 l 1
 444 413 l 1
 444 355 l 1
 282 355 l 1
EndSplineSet
EndChar
StartChar: Aringacute
Encoding: 506 506 299
Width: 553
Flags: MW
HStem: 0 21G<24 24 24 86 467 467 467 529> 191 54<152 400 152 414 140 400> 639 56<260 260 260 293> 798 43<259.5 295>
VStem: 180 40<731.5 762 731.5 777> 333 42<731 762>
LayerCount: 2
Back
Fore
SplineSet
24 0 m 1
 207 672 l 1
 189 688 180 712 180 745 c 0
 180 809 217 841 277 841 c 0
 335 841 375 809 375 745 c 0
 375 712 365 688 347 672 c 1
 529 0 l 1
 467 0 l 1
 414 191 l 1
 140 191 l 1
 86 0 l 1
 24 0 l 1
260 639 m 1
 152 245 l 1
 400 245 l 1
 293 639 l 1
 260 639 l 1
185 873 m 1
 167 917 l 1
 364 1013 l 1
 383 961 l 1
 185 873 l 1
220 745 m 0
 220 718 234 700 257 695 c 1
 296 695 l 1
 320 700 333 717 333 745 c 0
 333 779 313 798 277 798 c 0
 242 798 220 779 220 745 c 0
EndSplineSet
Position2: "'cpsp' Capital Spacing in Latin lookup 0 subtable" dx=5 dy=0 dh=10 dv=0
EndChar
StartChar: aringacute
Encoding: 507 507 303
Width: 489
Flags: MW
HStem: -10 53<175 255> 0 21G<425 425> 457 53<198 272> 549 41<240.5 269 240.5 281> 696 43<240.5 269>
VStem: 50 62<181 309.5 181 320> 165 38<629 658.5 629 671> 304 38<629 658.5> 360 59<68.5 118 156 447 447 447>
LayerCount: 2
Back
Fore
SplineSet
166 769 m 1xbe80
 145 820 l 1
 342 916 l 1
 364 858 l 1
 166 769 l 1xbe80
207 -10 m 0
 90 -10 50 77 50 239 c 0
 50 401 88 510 249 510 c 0
 302 510 419 493 419 493 c 1
 419 118 l 2
 419 66 425 0 425 0 c 1
 365 -2 l 1x7e80
 365 -2 360 47 360 90 c 1
 360 90 303 -10 207 -10 c 0
258 457 m 0
 138 457 112 380 112 239 c 0
 112 123 132 43 218 43 c 0
 300 43 360 156 360 156 c 1
 360 447 l 1
 360 447 286 457 258 457 c 0
165 644 m 0
 165 698 201 739 255 739 c 0
 307 739 342 698 342 644 c 0xbf80
 342 585 307 549 255 549 c 0
 200 549 165 585 165 644 c 0
203 644 m 0
 203 614 226 590 255 590 c 0
 283 590 304 614 304 644 c 0xbf80
 304 673 283 696 255 696 c 0
 226 696 203 673 203 644 c 0
EndSplineSet
EndChar
StartChar: AEacute
Encoding: 508 508 27
Width: 781
Flags: MW
HStem: 0 57<412 737 412 737> 191 56<149 353 149 353 136 353> 326 56<412 680 412 680> 640 57<256 256 256 353 412 737 412 412>
VStem: 353 59<57 191 191 191 247 326 382 640>
LayerCount: 2
Back
Fore
SplineSet
353 0 m 1
 353 191 l 1
 136 191 l 1
 83 0 l 1
 24 0 l 1
 213 697 l 1
 737 697 l 1
 737 640 l 1
 412 640 l 1
 412 382 l 1
 680 382 l 1
 680 326 l 1
 412 326 l 1
 412 57 l 1
 737 57 l 1
 737 0 l 1
 353 0 l 1
256 640 m 1
 149 247 l 1
 353 247 l 1
 353 640 l 1
 256 640 l 1
378 790 m 1
 359 833 l 1
 556 930 l 1
 576 878 l 1
 378 790 l 1
EndSplineSet
Position2: "'cpsp' Capital Spacing in Latin lookup 0 subtable" dx=5 dy=0 dh=10 dv=0
EndChar
StartChar: aeacute
Encoding: 509 509 305
Width: 758
Flags: MW
HStem: -10 57<489 556 489 557.5> 223 53<394 655 394 713 394 655> 255 51<334 334> 450 59<212.5 281.5 211 292> 454 55<497.5 555.5>
VStem: 41 58<120.5 173 120.5 185> 334 60<206 255> 655 58<223 302>
LayerCount: 2
Back
Fore
SplineSet
523 47 m 0xd7
 589 47 693 56 693 56 c 1
 695 4 l 1
 695 4 595 -10 520 -10 c 0
 456 -10 410 10 381 47 c 1
 318 18 242 -10 168 -10 c 0
 79 -10 41 59 41 141 c 0
 41 229 75 266 149 282 c 0
 195 292 256 299 335 306 c 1xb7
 335 373 337 450 247 450 c 0
 178 450 68 439 68 439 c 1
 66 496 l 1
 66 496 174 509 248 509 c 0
 315 509 359 482 378 426 c 1
 412 487 465 509 530 509 c 0
 620 509 679 468 701 379 c 0
 709 346 713 313 713 267 c 2
 713 223 l 1
 394 223 l 1
 394 189 397 160 404 135 c 0
 420 78 455 47 523 47 c 0xd7
174 46 m 0
 244 46 337 78 359 86 c 1
 338 134 334 193 334 255 c 1
 272 250 207 241 185 238 c 0
 126 228 99 203 99 143 c 0
 99 98 118 46 174 46 c 0
394 276 m 1
 655 276 l 1
 655 328 649 366 636 394 c 0
 617 436 582 454 529 454 c 0xcf
 443 454 394 398 394 276 c 1
312 601 m 1
 294 645 l 1
 491 741 l 1
 510 689 l 1
 312 601 l 1
EndSplineSet
EndChar
StartChar: Oslashacute
Encoding: 510 510 91
Width: 618
Flags: MW
HStem: -10 56<289 329.5 289 340> 649 56<289 331>
VStem: 57 64<289 432.5 289 434.5> 496 64<274.5 413>
LayerCount: 2
Back
Fore
SplineSet
134 -113 m 1
 91 -93 l 1
 147 33 l 1
 76 87 57 194 57 353 c 0
 57 516 77 619 154 669 c 0
 191 693 241 705 309 705 c 0
 361 705 403 698 436 684 c 1
 485 794 l 1
 529 777 l 1
 477 659 l 1
 543 606 560 506 560 353 c 0
 560 183 539 73 454 22 c 0
 418 1 371 -10 309 -10 c 0
 260 -10 220 -3 188 10 c 1
 134 -113 l 1
173 91 m 1
 289 351 l 1
 412 630 l 1
 386 643 353 649 309 649 c 0
 269 649 238 645 213 634 c 0
 133 601 121 512 121 353 c 0
 121 225 129 139 173 91 c 1
309 46 m 0
 350 46 381 51 407 64 c 0
 484 101 496 196 496 353 c 0
 496 473 489 554 450 600 c 1
 332 332 l 1
 212 63 l 1
 237 51 269 46 309 46 c 0
253 783 m 1
 231 833 l 1
 428 930 l 1
 451 872 l 1
 253 783 l 1
EndSplineSet
Position2: "'cpsp' Capital Spacing in Latin lookup 0 subtable" dx=5 dy=0 dh=10 dv=0
EndChar
StartChar: oslashacute
Encoding: 511 511 280
Width: 486
Flags: MW
HStem: -10 53<231.5 305.5 231.5 328.5> -1 21G<167 167> 457 52<190 253> 480 20G<315 315>
VStem: 50 59<213.5 325.5 213.5 338> 376 59<190.5 299>
LayerCount: 2
Back
Fore
SplineSet
243 509 m 0xac
 270 509 295 506 315 500 c 1
 355 604 l 1
 397 589 l 1
 355 483 l 1
 416 445 435 368 435 257 c 0
 435 95 414 -10 243 -10 c 0x9c
 213 -10 188 -7 167 -1 c 1x6c
 125 -112 l 1
 84 -97 l 1
 128 15 l 1
 60 56 50 142 50 257 c 0
 50 419 91 509 243 509 c 0xac
243 43 m 0
 368 43 376 124 376 257 c 0
 376 341 365 397 333 428 c 1
 259 241 l 1
 186 50 l 1
 202 45 220 43 243 43 c 0
150 71 m 1
 223 256 l 1
 296 450 l 1
 281 455 263 457 243 457 c 0
 137 457 109 394 109 257 c 0
 109 170 112 105 150 71 c 1
150 601 m 1
 132 645 l 1
 329 741 l 1
 348 689 l 1
 150 601 l 1
EndSplineSet
EndChar
StartChar: Scommaaccent
Encoding: 536 536 105
Width: 498
Flags: MW
HStem: -10 21G<212.5 319.5> -10 55<216 298.5 216 319.5> 650 55<207 289.5>
VStem: 45 64<474.5 567 474.5 581> 390 63<148.5 241.5>
LayerCount: 2
Back
Fore
SplineSet
234 -73 m 1x78
 197 -276 l 1
 244 -276 l 1
 290 -73 l 1
 234 -73 l 1x78
437 685 m 1
 433 635 l 1
 433 635 324 650 255 650 c 0
 159 650 109 613 109 521 c 0
 109 428 161 410 267 387 c 0
 388 359 453 324 453 203 c 0
 453 65 389 -10 250 -10 c 0x78
 175 -10 52 8 52 8 c 1xb8
 57 60 l 1
 57 60 182 45 250 45 c 0
 347 45 390 100 390 197 c 0
 390 286 340 312 244 331 c 0
 117 358 45 396 45 516 c 0
 45 646 121 705 253 705 c 0
 329 705 437 685 437 685 c 1
EndSplineSet
Position2: "'cpsp' Capital Spacing in Latin lookup 0 subtable" dx=5 dy=0 dh=10 dv=0
EndChar
StartChar: Tcommaaccent
Encoding: 538 538 109
Width: 475
Flags: MW
HStem: 0 21G<209 270 209 209> 640 55<13 462 13 209 270 270 270 462>
VStem: 209 61<0 640 0 640>
LayerCount: 2
Back
Fore
SplineSet
209 -73 m 1
 172 -276 l 1
 219 -276 l 1
 265 -73 l 1
 209 -73 l 1
13 640 m 1
 13 695 l 1
 462 695 l 1
 462 640 l 1
 270 640 l 1
 270 0 l 1
 209 0 l 1
 209 640 l 1
 13 640 l 1
EndSplineSet
Position2: "'cpsp' Capital Spacing in Latin lookup 0 subtable" dx=5 dy=0 dh=10 dv=0
EndChar
StartChar: circumflex
Encoding: 710 710 6
Width: 791
Flags: MW
HStem: 590 145<251 402 251 402 370 463 370 522>
VStem: 251 271<590 590>
LayerCount: 2
Back
Fore
SplineSet
251 590 m 1
 370 735 l 1
 402 735 l 1
 522 590 l 1
 463 590 l 1
 387 680 l 1
 310 590 l 1
 251 590 l 1
EndSplineSet
EndChar
StartChar: caron
Encoding: 711 711 4
Width: 791
Flags: MW
HStem: 590 145<251 402 251 370>
VStem: 251 271<735 735>
LayerCount: 2
Back
Fore
SplineSet
402 590 m 1
 370 590 l 1
 251 735 l 1
 311 735 l 1
 386 642 l 1
 462 735 l 1
 522 735 l 1
 402 590 l 1
EndSplineSet
EndChar
StartChar: breve
Encoding: 728 728 3
Width: 433
Flags: MW
HStem: 594 49<182.5 236 182.5 253.5> 707 20G<73 124 124 124 295 346 346 346>
VStem: 73 51<702.5 727 702.5 727> 295 51<702.5 727>
LayerCount: 2
Back
Fore
SplineSet
73 727 m 1
 124 727 l 1
 124 678 156 643 209 643 c 0
 263 643 295 678 295 727 c 1
 346 727 l 1
 346 650 298 594 209 594 c 0
 120 594 73 650 73 727 c 1
EndSplineSet
EndChar
StartChar: dotaccent
Encoding: 729 729 9
Width: 217
Flags: MW
HStem: 610 78<81 133 81 133>
VStem: 81 52<610 688 610 688>
LayerCount: 2
Back
Fore
SplineSet
81 610 m 1
 81 688 l 1
 133 688 l 1
 133 610 l 1
 81 610 l 1
EndSplineSet
EndChar
StartChar: ring
Encoding: 730 730 14
Width: 791
Flags: MW
HStem: 549 41<239.5 268 239.5 280> 696 43<239.5 268>
VStem: 164 38<629 658.5 629 671> 303 38<629 658.5>
LayerCount: 2
Back
Fore
SplineSet
164 644 m 0
 164 698 200 739 254 739 c 0
 306 739 341 698 341 644 c 0
 341 585 306 549 254 549 c 0
 199 549 164 585 164 644 c 0
202 644 m 0
 202 614 225 590 254 590 c 0
 282 590 303 614 303 644 c 0
 303 673 282 696 254 696 c 0
 225 696 202 673 202 644 c 0
EndSplineSet
EndChar
StartChar: ogonek
Encoding: 731 731 13
Width: 421
Flags: MW
HStem: -202 55<255 266.5>
VStem: 171 60<-123 -101.5>
LayerCount: 2
Back
Fore
SplineSet
316 -141 m 1
 322 -193 l 1
 322 -193 282 -202 251 -202 c 0
 202 -202 171 -171 171 -125 c 0
 171 -78 217 -22 248 11 c 1
 302 5 l 1
 262 -41 231 -81 231 -113 c 0
 231 -133 245 -147 265 -147 c 0
 280 -147 316 -141 316 -141 c 1
EndSplineSet
EndChar
StartChar: tilde
Encoding: 732 732 15
Width: 422
Flags: MW
HStem: 620 53<275 298.5 275 303> 669 21G<136.5 163 363 363> 670 21G<67 67> 702 20G<132.5 169.5>
VStem: 67 296<669 670>
LayerCount: 2
Back
Fore
SplineSet
351 712 m 1x98
 363 669 l 1
 363 669 319 620 287 620 c 0
 247 620 178 669 148 669 c 0
 125 669 79 626 79 626 c 1x58
 67 670 l 1x38
 67 670 115 722 150 722 c 0
 189 722 262 673 288 673 c 0
 309 673 351 712 351 712 c 1x98
EndSplineSet
EndChar
StartChar: hungarumlaut
Encoding: 733 733 10
Width: 660
Flags: MW
HStem: 586 161<348 457>
VStem: 135 359<621 711>
LayerCount: 2
Back
Fore
SplineSet
348 586 m 1
 313 621 l 1
 457 747 l 1
 494 711 l 1
 348 586 l 1
170 586 m 1
 135 621 l 1
 279 746 l 1
 316 711 l 1
 170 586 l 1
EndSplineSet
EndChar
StartChar: pi
Encoding: 960 960 206
Width: 560
Flags: MW
HStem: -3 53<483 519 483 519> 0 21G<105 165 105 105> 447 53<135 393 194 368 194 194>
VStem: 368 60<154 447 447 447>
LayerCount: 2
Back
Fore
SplineSet
368 154 m 2xb0
 368 447 l 1
 194 447 l 1
 165 0 l 1
 105 0 l 1x70
 135 447 l 1
 62 446 22 434 22 434 c 1
 22 486 l 1
 22 486 80 500 163 500 c 2
 393 500 l 2
 470 500 529 515 529 515 c 1
 529 463 l 1
 529 463 500 451 428 449 c 1
 428 154 l 2
 428 68 447 50 519 50 c 1
 519 -3 l 1
 398 -3 368 27 368 154 c 2xb0
EndSplineSet
EndChar
StartChar: Wdieresis
Encoding: 7812 7812 125
Width: 822
Flags: MW
HStem: 0 56<217 246 217 289 171 246 577 607> 820 83<294 342 294 342 478 526>
VStem: 294 48<820 903 820 903> 478 48<820 903 820 903>
LayerCount: 2
Back
Fore
SplineSet
294 820 m 1
 294 903 l 1
 342 903 l 1
 342 820 l 1
 294 820 l 1
478 820 m 1
 478 903 l 1
 526 903 l 1
 526 820 l 1
 478 820 l 1
33 695 m 1
 92 695 l 1
 217 56 l 1
 246 56 l 1
 377 685 l 1
 443 685 l 1
 577 56 l 1
 607 56 l 1
 729 695 l 1
 788 695 l 1
 653 0 l 1
 534 0 l 1
 410 605 l 1
 289 0 l 1
 171 0 l 1
 33 695 l 1
EndSplineSet
Position2: "'cpsp' Capital Spacing in Latin lookup 0 subtable" dx=5 dy=0 dh=10 dv=0
EndChar
StartChar: wdieresis
Encoding: 7813 7813 357
Width: 721
Flags: MW
HStem: 0 52<193 213 193 255 145 213 508 528> 480 20G<31 92 92 92 629 689 689 689> 625 82<245 294 245 294 424 472>
VStem: 245 49<625 707 625 707> 424 48<625 707 625 707>
LayerCount: 2
Back
Fore
SplineSet
31 500 m 1
 92 500 l 1
 193 52 l 1
 213 52 l 1
 328 490 l 1
 392 490 l 1
 508 52 l 1
 528 52 l 1
 629 500 l 1
 689 500 l 1
 576 0 l 1
 466 0 l 1
 360 409 l 1
 255 0 l 1
 145 0 l 1
 31 500 l 1
245 625 m 1
 245 707 l 1
 294 707 l 1
 294 625 l 1
 245 625 l 1
424 625 m 1
 424 707 l 1
 472 707 l 1
 472 625 l 1
 424 625 l 1
EndSplineSet
EndChar
StartChar: uni1EAB
Encoding: 7851 7851 369
Width: 489
Flags: MW
HStem: -10 53<175 255> 0 21G<425 425> 457 53<198 272> 560 145<114 265 114 265 233 326 233 385> 735 53<320 343.5 320 348> 784 53<181.5 208>
VStem: 50 62<181 309.5 181 320> 360 59<68.5 118 156 447 447 447>
LayerCount: 2
Back
Fore
SplineSet
207 -10 m 0xa7
 90 -10 50 77 50 239 c 0
 50 401 88 510 249 510 c 0
 302 510 419 493 419 493 c 1
 419 118 l 2
 419 66 425 0 425 0 c 1
 365 -2 l 1x67
 365 -2 360 47 360 90 c 1
 360 90 303 -10 207 -10 c 0xa7
258 457 m 0
 138 457 112 380 112 239 c 0
 112 123 132 43 218 43 c 0
 300 43 360 156 360 156 c 1
 360 447 l 1
 360 447 286 457 258 457 c 0
396 827 m 1xab
 408 784 l 1
 408 784 364 735 332 735 c 0xab
 292 735 223 784 193 784 c 0
 170 784 124 741 124 741 c 1
 112 785 l 1
 112 785 160 837 195 837 c 0xa7
 234 837 307 788 333 788 c 0
 354 788 396 827 396 827 c 1xab
114 560 m 1xb7
 233 705 l 1
 265 705 l 1
 385 560 l 1
 326 560 l 1
 250 650 l 1
 173 560 l 1
 114 560 l 1xb7
EndSplineSet
EndChar
StartChar: uni1EB0
Encoding: 7856 7856 365
Width: 553
Flags: MW
HStem: 0 21G<24 24 24 86 467 467 467 529> 191 54<152 400 152 414 140 400> 639 56<260 260 260 293> 759 48<252.5 299 252.5 320.5>
VStem: 141 55<858 882 858 882> 357 54<858 882>
LayerCount: 2
Back
Fore
SplineSet
189 1078 m 1
 385 984 l 1
 368 940 l 1
 169 1029 l 1
 189 1078 l 1
24 0 m 1
 213 695 l 1
 341 695 l 1
 529 0 l 1
 467 0 l 1
 414 191 l 1
 140 191 l 1
 86 0 l 1
 24 0 l 1
260 639 m 1
 152 245 l 1
 400 245 l 1
 293 639 l 1
 260 639 l 1
141 882 m 1
 196 882 l 1
 196 834 229 807 276 807 c 0
 322 807 357 834 357 882 c 1
 411 882 l 1
 411 815 365 759 276 759 c 0
 188 759 141 815 141 882 c 1
EndSplineSet
EndChar
StartChar: uni1EC5
Encoding: 7877 7877 367
Width: 450
Flags: MW
HStem: -9 52<190 269.5 190 276> 228 49<110 166 110 166> 458 51<200 279.5> 560 145<104 255 104 255 223 316 223 375> 735 53<303 326.5 303 331> 784 53<164.5 191>
VStem: 49 61<161.5 214 214 228> 349 60<338 408.5>
LayerCount: 2
Back
Fore
SplineSet
234 43 m 0xeb
 305 43 387 63 387 63 c 1
 391 18 l 1
 391 18 321 -9 231 -9 c 0
 103 -9 49 66 49 245 c 0
 49 414 110 509 250 509 c 0
 345 509 409 470 409 380 c 0
 409 261 335 228 166 228 c 2
 110 228 l 1
 110 214 l 2
 110 109 146 43 234 43 c 0xeb
110 277 m 1
 166 277 l 2
 298 277 349 297 349 379 c 0
 349 438 310 458 249 458 c 0
 151 458 112 393 110 277 c 1
379 827 m 1
 391 784 l 1
 391 784 347 735 315 735 c 0xeb
 275 735 206 784 176 784 c 0
 153 784 107 741 107 741 c 1
 95 785 l 1
 95 785 143 837 178 837 c 0xe7
 217 837 290 788 316 788 c 0
 337 788 379 827 379 827 c 1
104 560 m 1xfb
 223 705 l 1
 255 705 l 1
 375 560 l 1
 316 560 l 1
 240 650 l 1
 163 560 l 1
 104 560 l 1xfb
EndSplineSet
EndChar
StartChar: uni1ED7
Encoding: 7895 7895 368
Width: 486
Flags: MW
HStem: -10 53<180 305.5 180 328.5> 457 52<190 296> 560 145<103 254 103 254 222 315 222 374> 735 53<305 328.5 305 333> 784 53<166.5 193>
VStem: 50 59<190.5 325.5 190.5 338> 376 59<190.5 325.5>
LayerCount: 2
Back
Fore
SplineSet
243 509 m 0xd6
 395 509 435 419 435 257 c 0
 435 95 414 -10 243 -10 c 0
 71 -10 50 95 50 257 c 0
 50 419 91 509 243 509 c 0xd6
243 43 m 0
 368 43 376 124 376 257 c 0
 376 394 349 457 243 457 c 0
 137 457 109 394 109 257 c 0
 109 124 117 43 243 43 c 0
381 827 m 1
 393 784 l 1
 393 784 349 735 317 735 c 0xd6
 277 735 208 784 178 784 c 0
 155 784 109 741 109 741 c 1
 97 785 l 1
 97 785 145 837 180 837 c 0xce
 219 837 292 788 318 788 c 0
 339 788 381 827 381 827 c 1
103 560 m 1xf6
 222 705 l 1
 254 705 l 1
 374 560 l 1
 315 560 l 1
 239 650 l 1
 162 560 l 1
 103 560 l 1xf6
EndSplineSet
EndChar
StartChar: Ygrave
Encoding: 7922 7922 132
Width: 497
Flags: MW
HStem: 0 21G<219 278 219 219>
VStem: 219 59<0 293 0 293>
LayerCount: 2
Back
Fore
SplineSet
153 927 m 1
 349 831 l 1
 331 787 l 1
 133 875 l 1
 153 927 l 1
482 695 m 1
 278 293 l 1
 278 0 l 1
 219 0 l 1
 219 293 l 1
 12 695 l 1
 80 695 l 1
 249 361 l 1
 415 695 l 1
 482 695 l 1
EndSplineSet
Position2: "'cpsp' Capital Spacing in Latin lookup 0 subtable" dx=5 dy=0 dh=10 dv=0
EndChar
StartChar: uni1EF8
Encoding: 7928 7928 366
Width: 497
Flags: MW
HStem: 0 21G<219 278 219 219> 818 53<313 336.5 313 341> 867 53<174.5 201>
VStem: 219 59<0 293 0 293>
LayerCount: 2
Back
Fore
SplineSet
389 910 m 1xd0
 401 867 l 1
 401 867 357 818 325 818 c 0xd0
 285 818 216 867 186 867 c 0
 163 867 117 824 117 824 c 1
 105 868 l 1
 105 868 153 920 188 920 c 0xb0
 227 920 300 871 326 871 c 0
 347 871 389 910 389 910 c 1xd0
482 695 m 1
 278 293 l 1
 278 0 l 1
 219 0 l 1
 219 293 l 1
 12 695 l 1
 80 695 l 1
 249 361 l 1
 415 695 l 1
 482 695 l 1
EndSplineSet
EndChar
StartChar: uni1EF9
Encoding: 7929 7929 364
Width: 445
Flags: MW
HStem: -225 21G<162 220 162 162> 0 52<205 227 162 239> 480 20G<26 87 87 87 360 420 420 420> 620 53<287 310.5 287 315> 669 21G<148.5 175 375 375> 670 21G<79 79> 702 20G<144.5 181.5>
VStem: 26 394<500 500>
LayerCount: 2
Back
Fore
SplineSet
363 712 m 1xf3
 375 669 l 1
 375 669 331 620 299 620 c 0
 259 620 190 669 160 669 c 0
 137 669 91 626 91 626 c 1xeb
 79 670 l 1xe7
 79 670 127 722 162 722 c 0
 201 722 274 673 300 673 c 0
 321 673 363 712 363 712 c 1xf3
26 500 m 1
 87 500 l 1
 205 52 l 1
 239 52 l 1
 360 500 l 1
 420 500 l 1
 220 -225 l 1
 162 -225 l 1
 227 0 l 1
 162 0 l 1
 26 500 l 1
EndSplineSet
EndChar
StartChar: endash
Encoding: 8211 8211 143
Width: 632
Flags: MW
HStem: 241 54<66 566 66 566>
VStem: 66 500<241 295 241 295>
LayerCount: 2
Back
Fore
SplineSet
66 295 m 1
 566 295 l 1
 566 241 l 1
 66 241 l 1
 66 295 l 1
EndSplineSet
Substitution2: "'case' Case-Sensitive Forms in Latin lookup 4 subtable" endash.cap
EndChar
StartChar: quoteleft
Encoding: 8216 8216 243
Width: 193
Flags: MW
HStem: 479 216<101 108 50 144>
VStem: 50 94
LayerCount: 2
Back
Fore
SplineSet
101 695 m 1
 144 695 l 1
 108 479 l 1
 50 479 l 1
 101 695 l 1
EndSplineSet
EndChar
StartChar: quoteright
Encoding: 8217 8217 244
Width: 192
Flags: MW
HStem: 479 216<89 96 53 147>
VStem: 53 94
LayerCount: 2
Back
Fore
SplineSet
96 479 m 1
 53 479 l 1
 89 695 l 1
 147 695 l 1
 96 479 l 1
EndSplineSet
EndChar
StartChar: quotesinglbase
Encoding: 8218 8218 283
Width: 185
Flags: MW
HStem: -85 108<68 71 42 89>
VStem: 42 47
LayerCount: 2
Back
Fore
SplineSet
68 23 m 1
 89 23 l 1
 71 -85 l 1
 42 -85 l 1
 68 23 l 1
EndSplineSet
EndChar
StartChar: quotedblleft
Encoding: 8220 8220 210
Width: 344
Flags: MW
HStem: 479 216<101 108 50 144 101 200 251 258>
VStem: 50 244<479 695>
LayerCount: 2
Back
Fore
SplineSet
101 695 m 1
 144 695 l 1
 108 479 l 1
 50 479 l 1
 101 695 l 1
251 695 m 1
 294 695 l 1
 258 479 l 1
 200 479 l 1
 251 695 l 1
EndSplineSet
EndChar
StartChar: quotedblright
Encoding: 8221 8221 255
Width: 342
Flags: MW
HStem: 479 216<89 96 53 147 89 203 239 246>
VStem: 53 244<479 695>
LayerCount: 2
Back
Fore
SplineSet
96 479 m 1
 53 479 l 1
 89 695 l 1
 147 695 l 1
 96 479 l 1
246 479 m 1
 203 479 l 1
 239 695 l 1
 297 695 l 1
 246 479 l 1
EndSplineSet
EndChar
StartChar: quotedblbase
Encoding: 8222 8222 380
Width: 312
Flags: MW
HStem: -157 216<123 162 72 198>
VStem: 72 126
LayerCount: 2
Back
Fore
SplineSet
123 59 m 1
 198 59 l 1
 162 -157 l 1
 72 -157 l 1
 123 59 l 1
EndSplineSet
EndChar
StartChar: dagger
Encoding: 8224 8224 251
Width: 443
Flags: MW
HStem: 438 60<30 193 30 193 30 250 250 413>
VStem: 193 57<-76 438 -76 438 498 690>
LayerCount: 2
Back
Fore
SplineSet
30 438 m 1
 30 498 l 1
 193 498 l 1
 193 690 l 1
 250 690 l 1
 250 498 l 1
 413 498 l 1
 413 438 l 1
 250 438 l 1
 250 -76 l 1
 193 -76 l 1
 193 438 l 1
 30 438 l 1
EndSplineSet
EndChar
StartChar: daggerdbl
Encoding: 8225 8225 227
Width: 487
Flags: MW
HStem: 116 60<52 215 52 215 52 272 272 435> 438 60<52 215 52 215 52 272 272 434>
VStem: 215 57<-76 116 -76 116 176 438 498 690>
LayerCount: 2
Back
Fore
SplineSet
215 -76 m 1
 215 116 l 1
 52 116 l 1
 52 176 l 1
 215 176 l 1
 215 438 l 1
 52 438 l 1
 52 498 l 1
 215 498 l 1
 215 690 l 1
 272 690 l 1
 272 498 l 1
 434 498 l 1
 434 438 l 1
 272 438 l 1
 272 176 l 1
 435 176 l 1
 435 116 l 1
 272 116 l 1
 272 -76 l 1
 215 -76 l 1
EndSplineSet
EndChar
StartChar: bullet
Encoding: 8226 8226 207
Width: 466
Flags: MW
HStem: 107 288<108 358 108 358>
VStem: 108 250<107 395 107 395>
LayerCount: 2
Back
Fore
SplineSet
108 107 m 1
 108 395 l 1
 358 395 l 1
 358 107 l 1
 108 107 l 1
EndSplineSet
EndChar
StartChar: ellipsis
Encoding: 8230 8230 268
Width: 667
Flags: MW
HStem: 0 100<66 127 66 127 303 364 540 601>
VStem: 66 61<0 100 0 100> 303 61<0 100 0 100> 540 61<0 100 0 100>
LayerCount: 2
Back
Fore
SplineSet
66 0 m 1
 66 100 l 1
 127 100 l 1
 127 0 l 1
 66 0 l 1
303 0 m 1
 303 100 l 1
 364 100 l 1
 364 0 l 1
 303 0 l 1
540 0 m 1
 540 100 l 1
 601 100 l 1
 601 0 l 1
 540 0 l 1
EndSplineSet
EndChar
StartChar: perthousand
Encoding: 8240 8240 274
Width: 822
Flags: MW
HStem: -5 21G<215 215> 0 44<403.5 445 403.5 456 661.5 703> 233 44<403.5 445 661.5 703> 468 189<121.5 163> 701 21G<109 174.5>
VStem: 85 113<533.5 595.5 533 596> 317 51<109 171.5 109 188.5> 481 50<108.5 171> 575 50<109 171.5 109 188.5> 738 51<108.5 171>
LayerCount: 2
Back
Fore
SplineSet
142 657 m 0x7fc0
 184 657 198 627 198 564 c 0
 198 502 184 468 142 468 c 0
 101 468 85 502 85 565 c 0
 85 627 101 657 142 657 c 0x7fc0
169 5 m 1xae
 355 706 l 1
 402 694 l 1
 215 -5 l 1
 169 5 l 1xae
35 565 m 0
 35 468 77 424 142 424 c 0
 206 424 249 468 249 564 c 0
 249 660 207 701 142 701 c 0
 76 701 35 660 35 565 c 0
317 141 m 0
 317 236 358 277 424 277 c 0
 489 277 531 236 531 140 c 0
 531 44 488 0 424 0 c 0x63
 359 0 317 44 317 141 c 0
368 141 m 0x63c0
 368 77 383 44 424 44 c 0
 466 44 481 77 481 140 c 0
 481 202 466 233 424 233 c 0
 383 233 368 202 368 141 c 0x63c0
575 141 m 0
 575 236 616 277 682 277 c 0
 747 277 789 236 789 140 c 0
 789 44 746 0 682 0 c 0
 617 0 575 44 575 141 c 0
625 141 m 0
 625 77 641 44 682 44 c 0
 724 44 738 77 738 140 c 0
 738 202 724 233 682 233 c 0
 641 233 625 202 625 141 c 0
EndSplineSet
EndChar
StartChar: guilsinglleft
Encoding: 8249 8249 381
Width: 276
Flags: MW
HStem: 89 313<210 210>
VStem: 41 169<89 266 89 266>
LayerCount: 2
Back
Fore
SplineSet
210 402 m 1
 210 347 l 1
 88 250 l 1
 210 144 l 1
 210 89 l 1
 41 234 l 1
 41 266 l 1
 210 402 l 1
EndSplineSet
EndChar
StartChar: guilsinglright
Encoding: 8250 8250 382
Width: 276
Flags: MW
HStem: 170 156<66 66>
VStem: 66 169<170 254 197 254 238 326 238 326>
LayerCount: 2
Back
Fore
SplineSet
66 170 m 1
 66 197 l 1
 188 246 l 1
 66 299 l 1
 66 326 l 1
 235 254 l 1
 235 238 l 1
 66 170 l 1
EndSplineSet
EndChar
StartChar: fraction
Encoding: 8260 8260 419
Width: 2
Flags: MW
HStem: -8 21G<-104 -104>
VStem: -159 318
LayerCount: 2
Back
Fore
SplineSet
-104 -8 m 1
 -159 12 l 1
 104 703 l 1
 159 682 l 1
 -104 -8 l 1
EndSplineSet
EndChar
StartChar: zerosuperior
Encoding: 8304 8304 256
Width: 280
Flags: MW
HStem: 468 50<120.5 155.5> 750 49<123.5 160.5>
VStem: 23 55<589 669.5> 201 55<598.5 675.5>
LayerCount: 2
Back
Fore
SplineSet
139 799 m 0
 213 799 256 758 256 634 c 0
 256 563 241 520 216 495 c 0
 196 476 171 468 140 468 c 0
 69 468 23 508 23 634 c 0
 23 705 38 749 64 773 c 0
 83 792 108 799 139 799 c 0
139 750 m 0
 98 750 78 720 78 634 c 0
 78 544 101 518 140 518 c 0
 179 518 201 543 201 634 c 0
 201 717 182 750 139 750 c 0
EndSplineSet
Substitution2: "Single Substitution lookup 5 subtable" zeroinferior
EndChar
StartChar: foursuperior
Encoding: 8308 8308 260
Width: 280
Flags: MW
HStem: 529 50<83 169 83 169 222 253>
VStem: 171 51
LayerCount: 2
Back
Fore
SplineSet
169 478 m 1
 169 529 l 1
 27 529 l 1
 27 575 l 1
 103 790 l 1
 161 790 l 1
 83 579 l 1
 169 579 l 1
 173 666 l 1
 222 666 l 1
 222 579 l 1
 253 579 l 1
 253 529 l 1
 222 529 l 1
 222 478 l 1
 169 478 l 1
EndSplineSet
Substitution2: "Single Substitution lookup 5 subtable" fourinferior
EndChar
StartChar: fivesuperior
Encoding: 8309 8309 261
Width: 280
Flags: MW
HStem: 469 49<120.5 154.5 118.5 174.5> 628 48<135.5 158.5> 741 49<100 236 100 100>
VStem: 49 48 192 57<556.5 596>
LayerCount: 2
Back
Fore
SplineSet
54 790 m 1
 236 790 l 1
 236 741 l 1
 100 741 l 1
 94 658 l 1
 94 658 117 676 154 676 c 0
 207 676 249 652 249 576 c 0
 249 505 205 469 144 469 c 0
 97 469 40 482 40 482 c 1
 44 529 l 1
 44 529 98 518 139 518 c 0
 170 518 192 537 192 576 c 0
 192 616 171 628 146 628 c 0
 114 628 87 610 87 610 c 1
 44 615 l 1
 54 790 l 1
EndSplineSet
Substitution2: "Single Substitution lookup 5 subtable" fiveinferior
EndChar
StartChar: sixsuperior
Encoding: 8310 8310 262
Width: 280
Flags: MW
HStem: 468 49<122.5 163.5 122.5 178> 635 47<140 164> 751 48<131.5 171.5>
VStem: 30 56<585 616 585 692> 198 55<561.5 599.5>
LayerCount: 2
Back
Fore
SplineSet
239 790 m 1
 236 744 l 1
 236 744 189 751 154 751 c 0
 109 751 87 727 86 666 c 1
 102 672 129 682 151 682 c 0
 221 682 253 645 253 580 c 0
 253 511 211 468 145 468 c 0
 66 468 30 516 30 632 c 0
 30 752 71 799 153 799 c 0
 190 799 239 790 239 790 c 1
145 635 m 0
 124 635 101 624 86 616 c 1
 86 554 102 517 143 517 c 0
 184 517 198 544 198 579 c 0
 198 620 183 635 145 635 c 0
EndSplineSet
Substitution2: "Single Substitution lookup 5 subtable" sixinferior
EndChar
StartChar: sevensuperior
Encoding: 8311 8311 263
Width: 280
Flags: MW
HStem: 738 52<31 233 31 174>
VStem: 174 59<719 738 738 738>
LayerCount: 2
Back
Fore
SplineSet
31 738 m 1
 31 790 l 1
 233 790 l 1
 233 719 l 1
 126 469 l 1
 67 481 l 1
 174 716 l 1
 174 738 l 1
 31 738 l 1
EndSplineSet
Substitution2: "Single Substitution lookup 5 subtable" seveninferior
EndChar
StartChar: eightsuperior
Encoding: 8312 8312 264
Width: 280
Flags: MW
HStem: 468 47<121 159 121 176> 617 46<125 155 125 155> 753 46<119.5 160.5>
VStem: 23 56<547 580.5 547 589> 28 55<698 725.5 698 744.5> 197 55<697.5 725> 201 56<547 579>
LayerCount: 2
Back
Fore
SplineSet
140 799 m 0xec
 213 799 252 773 252 715 c 0xf4
 252 672 236 651 204 641 c 1
 234 632 257 616 257 563 c 0
 257 493 212 468 140 468 c 0
 67 468 23 493 23 563 c 0xf2
 23 615 48 630 77 642 c 1
 48 652 28 671 28 716 c 0
 28 773 66 799 140 799 c 0xec
140 515 m 0xf2
 178 515 201 531 201 563 c 0
 201 595 187 608 155 617 c 1
 125 617 l 1
 95 608 79 598 79 563 c 0
 79 531 102 515 140 515 c 0xf2
140 753 m 0xec
 99 753 83 739 83 712 c 0
 83 684 95 673 125 663 c 1
 155 663 l 1
 186 673 197 684 197 711 c 0
 197 739 181 753 140 753 c 0xec
EndSplineSet
Substitution2: "Single Substitution lookup 5 subtable" eightinferior
EndChar
StartChar: ninesuperior
Encoding: 8313 8313 265
Width: 280
Flags: MW
HStem: 468 50<109 149.5 106.5 170.5> 587 46<117.5 143.5> 751 48<121 159.5>
VStem: 27 55<675 711.5 675 726.5> 197 54<649 649>
LayerCount: 2
Back
Fore
SplineSet
40 479 m 1
 44 524 l 1
 44 524 88 518 125 518 c 0
 174 518 195 546 196 601 c 1
 196 601 159 587 128 587 c 0
 65 587 27 627 27 692 c 0
 27 761 74 799 137 799 c 0
 215 799 251 746 251 632 c 0
 251 511 212 468 129 468 c 0
 89 468 40 479 40 479 c 1
134 633 m 0
 161 633 197 649 197 649 c 1
 196 712 181 751 138 751 c 0
 104 751 82 731 82 692 c 0
 82 658 101 633 134 633 c 0
EndSplineSet
Substitution2: "Single Substitution lookup 5 subtable" nineinferior
EndChar
StartChar: zeroinferior
Encoding: 8320 8320 422
Width: 280
Flags: MW
HStem: -10 50<120.5 155.5> 272 49<123.5 160.5>
VStem: 23 55<111 191.5> 201 55<120.5 197.5>
LayerCount: 2
Back
Fore
SplineSet
139 321 m 0
 213 321 256 280 256 156 c 0
 256 85 241 42 216 17 c 0
 196 -2 171 -10 140 -10 c 0
 69 -10 23 30 23 156 c 0
 23 227 38 271 64 295 c 0
 83 314 108 321 139 321 c 0
139 272 m 0
 98 272 78 242 78 156 c 0
 78 66 101 40 140 40 c 0
 179 40 201 65 201 156 c 0
 201 239 182 272 139 272 c 0
EndSplineSet
Substitution2: "'frac' Diagonal Fractions in Latin lookup 1 subtable" zerosuperior
EndChar
StartChar: oneinferior
Encoding: 8321 8321 423
Width: 280
Flags: MW
HStem: -25 312<153 204 153 204 150 204>
VStem: 150 54<-25 228 228 228>
LayerCount: 2
Back
Fore
SplineSet
52 218 m 1
 153 287 l 1
 204 287 l 1
 204 -25 l 1
 150 -25 l 1
 150 228 l 1
 77 178 l 1
 52 218 l 1
EndSplineSet
Substitution2: "'frac' Diagonal Fractions in Latin lookup 1 subtable" onesuperior
EndChar
StartChar: twoinferior
Encoding: 8322 8322 424
Width: 280
Flags: MW
HStem: -25 49<110 245 110 245> 245 51<121.5 148>
VStem: 185 55<187 219>
LayerCount: 2
Back
Fore
SplineSet
245 -25 m 1
 41 -25 l 1
 41 23 l 1
 133 116 l 2
 163 146 185 170 185 204 c 0
 185 234 163 245 133 245 c 0
 102 245 46 235 46 235 c 1
 44 284 l 1
 44 284 100 296 143 296 c 0
 209 296 240 268 240 208 c 0
 240 161 216 130 177 92 c 2
 110 24 l 1
 245 24 l 1
 245 -25 l 1
EndSplineSet
Substitution2: "'frac' Diagonal Fractions in Latin lookup 1 subtable" twosuperior
EndChar
StartChar: threeinferior
Encoding: 8323 8323 425
Width: 280
Flags: MW
HStem: -35 50<118.5 157 115 176> 111 47<76 140 140 141 76 140> 247 49<115 151.5>
VStem: 184 55<194.5 221.5> 192 56<48 81>
LayerCount: 2
Back
Fore
SplineSet
37 286 m 1xe8
 37 286 93 296 137 296 c 0
 206 296 239 271 239 214 c 0xf0
 239 161 201 141 196 138 c 1
 228 128 248 115 248 61 c 0
 248 -5 209 -35 143 -35 c 0
 94 -35 33 -24 33 -24 c 1
 36 23 l 1
 36 23 92 15 138 15 c 0
 176 15 192 34 192 62 c 0
 192 100 171 111 141 111 c 2xe8
 76 111 l 1
 76 158 l 1
 140 158 l 2
 160 158 184 180 184 209 c 0
 184 234 170 247 133 247 c 0xf0
 90 247 40 239 40 239 c 1
 37 286 l 1xe8
EndSplineSet
Substitution2: "'frac' Diagonal Fractions in Latin lookup 1 subtable" threesuperior
EndChar
StartChar: fourinferior
Encoding: 8324 8324 426
Width: 280
Flags: MW
HStem: 26 50<91 177 91 177 230 261>
VStem: 179 51
LayerCount: 2
Back
Fore
SplineSet
177 -25 m 1
 177 26 l 1
 35 26 l 1
 35 72 l 1
 111 287 l 1
 169 287 l 1
 91 76 l 1
 177 76 l 1
 181 163 l 1
 230 163 l 1
 230 76 l 1
 261 76 l 1
 261 26 l 1
 230 26 l 1
 230 -25 l 1
 177 -25 l 1
EndSplineSet
Substitution2: "'frac' Diagonal Fractions in Latin lookup 1 subtable" foursuperior
EndChar
StartChar: fiveinferior
Encoding: 8325 8325 427
Width: 280
Flags: MW
HStem: -34 49<113.5 147.5 111.5 167.5> 125 48<128.5 151.5> 238 49<93 229 93 93>
VStem: 42 48 185 57<53.5 93>
LayerCount: 2
Back
Fore
SplineSet
47 287 m 1
 229 287 l 1
 229 238 l 1
 93 238 l 1
 87 155 l 1
 87 155 110 173 147 173 c 0
 200 173 242 149 242 73 c 0
 242 2 198 -34 137 -34 c 0
 90 -34 33 -21 33 -21 c 1
 37 26 l 1
 37 26 91 15 132 15 c 0
 163 15 185 34 185 73 c 0
 185 113 164 125 139 125 c 0
 107 125 80 107 80 107 c 1
 37 112 l 1
 47 287 l 1
EndSplineSet
Substitution2: "'frac' Diagonal Fractions in Latin lookup 1 subtable" fivesuperior
EndChar
StartChar: sixinferior
Encoding: 8326 8326 428
Width: 280
Flags: MW
HStem: -35 49<119.5 160.5 119.5 175> 132 47<137 161> 248 48<128.5 168.5>
VStem: 27 56<82 113 82 189> 195 55<58.5 96.5>
LayerCount: 2
Back
Fore
SplineSet
236 287 m 1
 233 241 l 1
 233 241 186 248 151 248 c 0
 106 248 84 224 83 163 c 1
 99 169 126 179 148 179 c 0
 218 179 250 142 250 77 c 0
 250 8 208 -35 142 -35 c 0
 63 -35 27 13 27 129 c 0
 27 249 68 296 150 296 c 0
 187 296 236 287 236 287 c 1
142 132 m 0
 121 132 98 121 83 113 c 1
 83 51 99 14 140 14 c 0
 181 14 195 41 195 76 c 0
 195 117 180 132 142 132 c 0
EndSplineSet
Substitution2: "'frac' Diagonal Fractions in Latin lookup 1 subtable" sixsuperior
EndChar
StartChar: seveninferior
Encoding: 8327 8327 429
Width: 280
Flags: MW
HStem: 235 52<39 241 39 182>
VStem: 182 59<216 235 235 235>
LayerCount: 2
Back
Fore
SplineSet
39 235 m 1
 39 287 l 1
 241 287 l 1
 241 216 l 1
 134 -34 l 1
 75 -22 l 1
 182 213 l 1
 182 235 l 1
 39 235 l 1
EndSplineSet
Substitution2: "'frac' Diagonal Fractions in Latin lookup 1 subtable" sevensuperior
EndChar
StartChar: eightinferior
Encoding: 8328 8328 430
Width: 280
Flags: MW
HStem: -35 47<121 159 121 176> 114 46<125 155 125 155> 250 46<119.5 160.5>
VStem: 23 56<44 77.5 44 86> 28 55<195 222.5 195 241.5> 197 55<194.5 222> 201 56<44 76>
LayerCount: 2
Back
Fore
SplineSet
140 296 m 0xec
 213 296 252 270 252 212 c 0xf4
 252 169 236 148 204 138 c 1
 234 129 257 113 257 60 c 0
 257 -10 212 -35 140 -35 c 0
 67 -35 23 -10 23 60 c 0xf2
 23 112 48 127 77 139 c 1
 48 149 28 168 28 213 c 0
 28 270 66 296 140 296 c 0xec
140 12 m 0xf2
 178 12 201 28 201 60 c 0
 201 92 187 105 155 114 c 1
 125 114 l 1
 95 105 79 95 79 60 c 0
 79 28 102 12 140 12 c 0xf2
140 250 m 0xec
 99 250 83 236 83 209 c 0
 83 181 95 170 125 160 c 1
 155 160 l 1
 186 170 197 181 197 208 c 0
 197 236 181 250 140 250 c 0xec
EndSplineSet
Substitution2: "'frac' Diagonal Fractions in Latin lookup 1 subtable" eightsuperior
EndChar
StartChar: nineinferior
Encoding: 8329 8329 431
Width: 280
Flags: MW
HStem: -35 50<107 147.5 104.5 168.5> 84 46<115.5 141.5> 248 48<119 157.5>
VStem: 25 55<172 208.5 172 223.5> 195 54<146 146>
LayerCount: 2
Back
Fore
SplineSet
38 -24 m 1
 42 21 l 1
 42 21 86 15 123 15 c 0
 172 15 193 43 194 98 c 1
 194 98 157 84 126 84 c 0
 63 84 25 124 25 189 c 0
 25 258 72 296 135 296 c 0
 213 296 249 243 249 129 c 0
 249 8 210 -35 127 -35 c 0
 87 -35 38 -24 38 -24 c 1
132 130 m 0
 159 130 195 146 195 146 c 1
 194 209 179 248 136 248 c 0
 102 248 80 228 80 189 c 0
 80 155 99 130 132 130 c 0
EndSplineSet
Substitution2: "'frac' Diagonal Fractions in Latin lookup 1 subtable" ninesuperior
EndChar
StartChar: Euro
Encoding: 8364 8364 246
Width: 560
Flags: MW
HStem: -10 54<275 359 275 359.5> 216 50<55 101 55 105 55 101 167 167 167 444> 381 50<55 101 55 104 165 444> 618 53<272.5 361.5>
VStem: 101 61<266 266>
LayerCount: 2
Back
Fore
SplineSet
484 60 m 1
 488 10 l 1
 488 10 396 -10 323 -10 c 0
 175 -10 120 74 105 216 c 1
 55 216 l 1
 55 266 l 1
 101 266 l 1
 100 286 100 307 100 329 c 0
 100 347 100 364 101 381 c 1
 55 381 l 1
 55 431 l 1
 104 431 l 1
 119 579 176 671 323 671 c 0
 404 671 488 651 488 651 c 1
 484 600 l 1
 484 600 395 618 328 618 c 0
 217 618 177 546 165 431 c 1
 444 431 l 1
 444 381 l 1
 162 381 l 1
 161 364 161 347 161 329 c 0
 161 307 161 286 162 266 c 1
 444 266 l 1
 444 216 l 1
 167 216 l 1
 180 110 221 44 329 44 c 0
 389 44 484 60 484 60 c 1
EndSplineSet
EndChar
StartChar: trademark
Encoding: 8482 8482 159
Width: 667
Flags: MW
HStem: 568 59<364 364 551 551> 584 43<87 287 87 167 214 214 214 287>
VStem: 167 47<332 584 332 584> 319 45<331 568 331 627> 551 44<331 568 568 568>
LayerCount: 2
Back
Fore
SplineSet
87 584 m 1x78
 87 627 l 1
 287 627 l 1
 287 584 l 1
 214 584 l 1
 214 332 l 1
 167 332 l 1
 167 584 l 1
 87 584 l 1x78
319 331 m 1
 319 627 l 1
 382 627 l 1x78
 456 406 l 1
 532 627 l 1
 595 627 l 1
 595 331 l 1
 551 331 l 1
 551 568 l 1xb8
 476 344 l 1
 436 344 l 1
 364 568 l 1
 364 331 l 1
 319 331 l 1
EndSplineSet
EndChar
StartChar: Omega
Encoding: 8486 8486 279
Width: 560
Flags: MW
HStem: -9 54<44 175 44 237 44 175 384 516> 615 55<212.5 346.5>
VStem: 63 64<307.5 443 303.5 471.5> 433 64<307.5 443>
LayerCount: 2
Back
Fore
SplineSet
44 45 m 1
 175 45 l 1
 175 45 63 241 63 374 c 0
 63 569 107 670 280 670 c 0
 453 670 497 569 497 374 c 0
 497 241 384 45 384 45 c 1
 516 45 l 1
 516 -9 l 1
 322 -9 l 1
 322 37 l 1
 322 37 433 250 433 357 c 0
 433 529 413 615 280 615 c 0
 145 615 127 529 127 357 c 0
 127 250 237 37 237 37 c 1
 237 -9 l 1
 44 -9 l 1
 44 45 l 1
EndSplineSet
EndChar
StartChar: partialdiff
Encoding: 8706 8706 413
Width: 560
Flags: MW
HStem: -9 54<218.5 327.5 218.5 350> 374 54<215 299.5 193.5 303.5> 678 54<222.5 318.5>
VStem: 50 63<160 261 160 279> 432 63<342 342 397 397>
LayerCount: 2
Back
Fore
SplineSet
98 631 m 1
 94 680 l 1
 94 680 179 732 266 732 c 0
 422 732 495 627 495 365 c 0
 495 113 430 -9 270 -9 c 0
 130 -9 50 58 50 214 c 0
 50 344 129 428 258 428 c 0
 341 428 432 397 432 397 c 1
 427 593 381 678 256 678 c 0
 184 678 98 631 98 631 c 1
264 374 m 0
 166 374 113 308 113 214 c 0
 113 106 167 45 270 45 c 0
 385 45 431 144 432 342 c 1
 432 342 343 374 264 374 c 0
EndSplineSet
EndChar
StartChar: Delta
Encoding: 8710 8710 278
Width: 560
Flags: MW
HStem: 0 54<119 440 119 505> 606 54<267 292 267 267>
VStem: 56 449<0 45 0 45>
LayerCount: 2
Back
Fore
SplineSet
56 45 m 1
 223 660 l 1
 337 660 l 1
 504 45 l 1
 505 0 l 1
 56 0 l 1
 56 45 l 1
292 606 m 1
 267 606 l 1
 119 54 l 1
 440 54 l 1
 292 606 l 1
EndSplineSet
EndChar
StartChar: summation
Encoding: 8721 8721 146
Width: 560
Flags: MW
HStem: -158 55<112 511 112 511> 696 56<112 511 112 112>
VStem: 48 64<-103 -75 -103 -67 -103 -67 672 696>
LayerCount: 2
Back
Fore
SplineSet
322 310 m 1
 48 662 l 1
 48 752 l 1
 511 752 l 1
 511 696 l 1
 112 696 l 1
 112 672 l 1
 379 332 l 1
 379 286 l 1
 112 -75 l 1
 112 -103 l 1
 511 -103 l 1
 511 -158 l 1
 48 -158 l 1
 48 -67 l 1
 322 310 l 1
EndSplineSet
EndChar
StartChar: minus
Encoding: 8722 8722 182
Width: 560
Flags: MW
HStem: 223 56<67 493 67 493>
VStem: 67 426<223 279 223 279>
LayerCount: 2
Back
Fore
SplineSet
67 223 m 1
 67 279 l 1
 493 279 l 1
 493 223 l 1
 67 223 l 1
EndSplineSet
EndChar
StartChar: radical
Encoding: 8730 8730 408
Width: 560
Flags: MW
HStem: -138 53<253 262 253 305 207 262> 392 55<4 116 4 65>
VStem: 4 562<392 774 447 774>
LayerCount: 2
Back
Fore
SplineSet
4 392 m 1
 4 447 l 1
 116 447 l 1
 253 -85 l 1
 262 -85 l 1
 504 774 l 1
 566 774 l 1
 305 -138 l 1
 207 -138 l 1
 65 392 l 1
 4 392 l 1
EndSplineSet
EndChar
StartChar: integral
Encoding: 8747 8747 412
Width: 560
Flags: MW
HStem: -184 55<158 196 150.5 220.5> 725 54<364 402.5 337 409>
VStem: 248 61<-3 571>
LayerCount: 2
Back
Fore
SplineSet
309 -4 m 2
 309 -140 265 -184 176 -184 c 0
 140 -184 91 -177 91 -177 c 1
 93 -125 l 1
 93 -125 135 -129 166 -129 c 0
 226 -129 248 -98 248 -3 c 2
 248 571 l 2
 248 729 293 779 381 779 c 0
 424 779 469 771 469 771 c 1
 467 720 l 1
 467 720 428 725 390 725 c 0
 338 725 309 688 309 571 c 2
 309 -4 l 2
EndSplineSet
EndChar
StartChar: approxequal
Encoding: 8776 8776 363
Width: 560
Flags: MW
HStem: 95 56<357.5 399 357.5 406.5> 161 56<160.5 201.5> 271 56<357.5 399 357.5 406.5> 337 56<160.5 201.5>
VStem: 65 428<149 163 149 339>
LayerCount: 2
Back
Fore
SplineSet
483 375 m 1
 493 325 l 1
 493 325 433 271 380 271 c 0xa8
 324 271 223 337 180 337 c 0
 141 337 75 288 75 288 c 1
 65 339 l 1
 65 339 128 393 180 393 c 0xb8
 237 393 335 327 380 327 c 0
 418 327 483 375 483 375 c 1
483 199 m 1
 493 149 l 1
 493 149 433 95 380 95 c 0xa8
 324 95 223 161 180 161 c 0
 141 161 75 112 75 112 c 1
 65 163 l 1
 65 163 128 217 180 217 c 0xe8
 237 217 335 151 380 151 c 0
 418 151 483 199 483 199 c 1
EndSplineSet
EndChar
StartChar: notequal
Encoding: 8800 8800 222
Width: 560
Flags: MW
HStem: -1 21G<131 131> 133 56<64 189 64 214 272 493 64 248> 312 56<64 292 64 267 64 326 350 493> 484 20G<410 410>
VStem: 64 429<133 189 133 189 312 368 133 368>
LayerCount: 2
Back
Fore
SplineSet
64 312 m 1
 64 368 l 1
 292 368 l 1
 360 524 l 1
 410 504 l 1
 350 368 l 1
 493 368 l 1
 493 312 l 1
 326 312 l 1
 272 189 l 1
 493 189 l 1
 493 133 l 1
 248 133 l 1
 181 -21 l 1
 131 -1 l 1
 189 133 l 1
 64 133 l 1
 64 189 l 1
 214 189 l 1
 267 312 l 1
 64 312 l 1
EndSplineSet
EndChar
StartChar: lessequal
Encoding: 8804 8804 275
Width: 560
Flags: MW
HStem: 23 55<65 488 65 488>
VStem: 65 423<23 78 23 78 23 342 23 342>
LayerCount: 2
Back
Fore
SplineSet
488 431 m 1
 137 316 l 1
 488 191 l 1
 488 130 l 1
 65 286 l 1
 65 342 l 1
 488 493 l 1
 488 431 l 1
65 23 m 1
 65 78 l 1
 488 78 l 1
 488 23 l 1
 65 23 l 1
EndSplineSet
EndChar
StartChar: dotlessj
Encoding: 63166 63166 406
Width: 198
Flags: MW
HStem: -237 21G<-23 -23> 480 20G<69 129 129 129>
VStem: 69 60<0 500>
LayerCount: 2
Back
Fore
SplineSet
69 0 m 2
 69 500 l 1
 129 500 l 1
 129 0 l 2
 129 -134 116 -158 -23 -237 c 1
 -47 -189 l 1
 65 -121 69 -105 69 0 c 2
EndSplineSet
EndChar
StartChar: commaaccent
Encoding: 63171 63171 7
Width: 161
Flags: MW
HStem: -276 203<29 122 66 76>
VStem: 29 93
LayerCount: 2
Back
Fore
SplineSet
29 -276 m 1
 66 -73 l 1
 122 -73 l 1
 76 -276 l 1
 29 -276 l 1
EndSplineSet
EndChar
StartChar: acute.cap.001
Encoding: 65593 -1 452
Width: 499
Flags: MW
HStem: 790 140
VStem: 126 217<833 878>
LayerCount: 2
Back
Fore
SplineSet
145 790 m 1
 126 833 l 1
 323 930 l 1
 343 878 l 1
 145 790 l 1
EndSplineSet
EndChar
StartChar: at.cap
Encoding: 65581 -1 420
Width: 922
Flags: MW
HStem: -107 52<331.5 489 331.5 492.5> 88 53<392 468.5> 549 53<405 480.5> 759 52<347 613>
VStem: 48 58<217 503.5 217 521.5> 267 62<279.5 395 279.5 415> 576 60<254 539 539 539> 823 58<289 497>
LayerCount: 2
Back
Fore
SplineSet
474 811 m 0
 784 811 881 667 881 358 c 0
 881 220 845 88 707 88 c 0
 633 88 597 115 585 188 c 1
 576 172 512 88 425 88 c 0
 309 88 267 182 267 334 c 0
 267 496 305 602 466 602 c 0
 519 602 636 585 636 585 c 1
 636 220 l 2
 636 166 657 140 707 140 c 0
 767 140 823 180 823 358 c 0
 823 636 752 759 474 759 c 0
 220 759 106 651 106 356 c 0
 106 78 193 -55 470 -55 c 0
 508 -55 605 -45 605 -45 c 1
 608 -97 l 1
 608 -97 515 -107 470 -107 c 0
 157 -107 48 43 48 356 c 0
 48 687 186 811 474 811 c 0
435 141 m 0
 517 141 576 254 576 254 c 1
 576 539 l 2
 575 539 494 549 467 549 c 0
 343 549 329 451 329 339 c 0
 329 220 349 141 435 141 c 0
EndSplineSet
Position2: "'cpsp' Capital Spacing in Latin lookup 0 subtable" dx=5 dy=0 dh=10 dv=0
EndChar
StartChar: braceleft.cap
Encoding: 65559 -1 288
Width: 332
Flags: MW
HStem: -96 56<291 293> 726 55<291 293>
VStem: 116 59<28 82 597 646> 122 60<437.5 489.5>
LayerCount: 2
Back
Fore
SplineSet
182 208 m 0xe0
 182 178 175 100 175 65 c 0
 175 -9 227 -39 293 -40 c 1
 291 -96 l 1
 191 -95 116 -51 116 66 c 0
 116 98 123 175 123 204 c 0
 123 287 59 301 27 314 c 1xe0
 27 366 l 1
 61 372 122 401 122 470 c 0xd0
 122 509 116 571 116 604 c 0
 116 726 166 780 291 781 c 1
 293 726 l 1
 198 724 175 686 175 606 c 0xe0
 175 588 182 503 182 481 c 0
 182 394 155 365 93 341 c 1xd0
 152 320 182 279 182 208 c 0xe0
EndSplineSet
Position2: "'cpsp' Capital Spacing in Latin lookup 0 subtable" dx=5 dy=0 dh=10 dv=0
EndChar
StartChar: braceright.cap
Encoding: 65560 -1 289
Width: 332
Flags: MW
HStem: -97 55<40 42> 724 56<40 42>
VStem: 151 60<194.5 246.5> 158 59<38 87 602 656>
LayerCount: 2
Back
Fore
SplineSet
151 476 m 0xd0
 151 506 158 584 158 619 c 0
 158 693 106 723 40 724 c 1
 42 780 l 1
 142 779 217 735 217 618 c 0
 217 586 210 509 210 480 c 0
 210 397 274 383 306 370 c 1xd0
 306 318 l 1
 272 312 211 283 211 214 c 0xe0
 211 175 217 113 217 80 c 0
 217 -42 167 -96 42 -97 c 1
 40 -42 l 1
 135 -40 158 -2 158 78 c 0xd0
 158 96 151 181 151 203 c 0
 151 290 178 319 240 343 c 1xe0
 181 364 151 405 151 476 c 0xd0
EndSplineSet
Position2: "'cpsp' Capital Spacing in Latin lookup 0 subtable" dx=5 dy=0 dh=10 dv=0
EndChar
StartChar: bracketleft.cap
Encoding: 65557 -1 286
Width: 303
Flags: MW
HStem: -92 53<132 263 132 263> 724 53<132 263 132 132>
VStem: 75 57<-39 724 -39 777 -39 777>
LayerCount: 2
Back
Fore
SplineSet
75 777 m 1
 263 777 l 1
 263 724 l 1
 132 724 l 1
 132 -39 l 1
 263 -39 l 1
 263 -92 l 1
 75 -92 l 1
 75 777 l 1
EndSplineSet
Position2: "'cpsp' Capital Spacing in Latin lookup 0 subtable" dx=5 dy=0 dh=10 dv=0
EndChar
StartChar: bracketright.cap
Encoding: 65558 -1 287
Width: 303
Flags: MW
HStem: -92 53<40 171 40 228 40 171> 724 53<40 171 40 228>
VStem: 171 57<-39 724 724 724>
LayerCount: 2
Back
Fore
SplineSet
228 -92 m 1
 40 -92 l 1
 40 -39 l 1
 171 -39 l 1
 171 724 l 1
 40 724 l 1
 40 777 l 1
 228 777 l 1
 228 -92 l 1
EndSplineSet
Position2: "'cpsp' Capital Spacing in Latin lookup 0 subtable" dx=5 dy=0 dh=10 dv=0
EndChar
StartChar: breve.cap
Encoding: 65566 -1 295
Width: 433
Flags: MW
HStem: 799 48<185.5 232 185.5 253.5>
VStem: 74 55<898 922 898 922> 290 54<898 922>
LayerCount: 2
Back
Fore
SplineSet
74 922 m 1
 129 922 l 1
 129 874 162 847 209 847 c 0
 255 847 290 874 290 922 c 1
 344 922 l 1
 344 855 298 799 209 799 c 0
 121 799 74 855 74 922 c 1
EndSplineSet
EndChar
StartChar: caron.cap
Encoding: 65562 -1 291
Width: 433
Flags: MW
HStem: 796 134<62 226 62 191>
VStem: 62 293<930 930>
LayerCount: 2
Back
Fore
SplineSet
355 930 m 1
 226 796 l 1
 191 796 l 1
 62 930 l 1
 125 930 l 1
 209 843 l 1
 292 930 l 1
 355 930 l 1
EndSplineSet
EndChar
StartChar: circumflex.cap.001
Encoding: 65594 -1 453
Width: 433
Flags: MW
HStem: 797 134<63 224 63 224 192 295 192 355>
VStem: 63 292<797 797>
LayerCount: 2
Back
Fore
SplineSet
63 797 m 1
 192 931 l 1
 224 931 l 1
 355 797 l 1
 295 797 l 1
 209 882 l 1
 122 797 l 1
 63 797 l 1
EndSplineSet
EndChar
StartChar: dieresis.cap
Encoding: 65564 -1 293
Width: 381
Flags: MW
HStem: 820 83<99 147 99 147 283 331>
VStem: 99 48<820 903 820 903> 283 48<820 903 820 903>
LayerCount: 2
Back
Fore
SplineSet
99 820 m 1
 99 903 l 1
 147 903 l 1
 147 820 l 1
 99 820 l 1
283 820 m 1
 283 903 l 1
 331 903 l 1
 331 820 l 1
 283 820 l 1
EndSplineSet
EndChar
StartChar: dotaccent.cap
Encoding: 65569 -1 298
Width: 217
Flags: MW
HStem: 798 78<81 133 81 133>
VStem: 81 52<798 876 798 876>
LayerCount: 2
Back
Fore
SplineSet
81 798 m 1
 81 876 l 1
 133 876 l 1
 133 798 l 1
 81 798 l 1
EndSplineSet
EndChar
StartChar: eight.dnom
Encoding: 65590 -1 440
Width: 280
Flags: MW
HStem: -110 47<121 159 121 176> 39 46<125 155 125 155> 175 46<119.5 160.5>
VStem: 23 56<-31 2.5 -31 11> 28 55<120 147.5 120 166.5> 197 55<119.5 147> 201 56<-31 1>
LayerCount: 2
Back
Fore
SplineSet
140 221 m 0xec
 213 221 252 195 252 137 c 0xf4
 252 94 236 73 204 63 c 1
 234 54 257 38 257 -15 c 0
 257 -85 212 -110 140 -110 c 0
 67 -110 23 -85 23 -15 c 0xf2
 23 37 48 52 77 64 c 1
 48 74 28 93 28 138 c 0
 28 195 66 221 140 221 c 0xec
140 -63 m 0xf2
 178 -63 201 -47 201 -15 c 0
 201 17 187 30 155 39 c 1
 125 39 l 1
 95 30 79 20 79 -15 c 0
 79 -47 102 -63 140 -63 c 0xf2
140 175 m 0xec
 99 175 83 161 83 134 c 0
 83 106 95 95 125 85 c 1
 155 85 l 1
 186 95 197 106 197 133 c 0
 197 161 181 175 140 175 c 0xec
EndSplineSet
Substitution2: "'frac' Diagonal Fractions in Latin lookup 1 subtable" eightsuperior
EndChar
StartChar: eight.numr
Encoding: 65578 -1 378
Width: 280
Flags: MW
HStem: 368 47<121 159 121 176> 517 46<125 155 125 155> 653 46<119.5 160.5>
VStem: 23 56<447 480.5 447 489> 28 55<598 625.5 598 644.5> 197 55<597.5 625> 201 56<447 479>
LayerCount: 2
Back
Fore
SplineSet
140 699 m 0xec
 213 699 252 673 252 615 c 0xf4
 252 572 236 551 204 541 c 1
 234 532 257 516 257 463 c 0
 257 393 212 368 140 368 c 0
 67 368 23 393 23 463 c 0xf2
 23 515 48 530 77 542 c 1
 48 552 28 571 28 616 c 0
 28 673 66 699 140 699 c 0xec
140 415 m 0xf2
 178 415 201 431 201 463 c 0
 201 495 187 508 155 517 c 1
 125 517 l 1
 95 508 79 498 79 463 c 0
 79 431 102 415 140 415 c 0xf2
140 653 m 0xec
 99 653 83 639 83 612 c 0
 83 584 95 573 125 563 c 1
 155 563 l 1
 186 573 197 584 197 611 c 0
 197 639 181 653 140 653 c 0xec
EndSplineSet
Substitution2: "'frac' Diagonal Fractions in Latin lookup 1 subtable" eightsuperior
EndChar
StartChar: eight.pnum
Encoding: 65548 -1 202
Width: 504
Flags: MW
HStem: -10 56<212 290.5 212 309.5> 234 54<205 297 205 297> 456 53<212.5 289.5>
VStem: 52 63<100 165.5 100 169.5> 61 63<350.5 406.5 350.5 423.5> 380 63<350.5 406.5> 387 64<100 165.5>
LayerCount: 2
Back
Fore
SplineSet
251 509 m 0xec
 367 509 443 469 443 378 c 0xf4
 443 317 419 286 353 263 c 1
 414 241 451 213 451 131 c 0
 451 26 368 -10 251 -10 c 0
 135 -10 52 29 52 131 c 0xf2
 52 208 94 239 152 263 c 1
 94 285 61 317 61 378 c 0
 61 469 136 509 251 509 c 0xec
251 46 m 0xf2
 330 46 387 65 387 135 c 0
 387 196 356 221 297 234 c 1
 205 234 l 1
 146 221 115 196 115 135 c 0
 115 65 173 46 251 46 c 0xf2
251 456 m 0xec
 174 456 124 438 124 375 c 0
 124 326 148 305 205 288 c 1
 297 288 l 1
 359 303 380 326 380 375 c 0
 380 438 328 456 251 456 c 0xec
EndSplineSet
Substitution2: "'frac' Diagonal Fractions in Latin lookup 1 subtable" eightsuperior
EndChar
StartChar: emdash.cap
Encoding: 65552 -1 270
Width: 1132
Flags: MW
HStem: 271 54<66 1066 66 1066>
VStem: 66 1000<271 325 271 325>
LayerCount: 2
Back
Fore
SplineSet
66 325 m 1
 1066 325 l 1
 1066 271 l 1
 66 271 l 1
 66 325 l 1
EndSplineSet
Position2: "'cpsp' Capital Spacing in Latin lookup 0 subtable" dx=5 dy=0 dh=10 dv=0
EndChar
StartChar: endash.cap
Encoding: 65551 -1 269
Width: 632
Flags: MW
HStem: 271 54<66 566 66 566>
VStem: 66 500<271 325 271 325>
LayerCount: 2
Back
Fore
SplineSet
66 325 m 1
 566 325 l 1
 566 271 l 1
 66 271 l 1
 66 325 l 1
EndSplineSet
Position2: "'cpsp' Capital Spacing in Latin lookup 0 subtable" dx=5 dy=0 dh=10 dv=0
EndChar
StartChar: exclamdown.cap
Encoding: 65554 -1 282
Width: 222
Flags: MW
HStem: -3 21G<80 141 80 80> 597 100<80 141 80 141>
VStem: 82 58
LayerCount: 2
Back
Fore
SplineSet
139 474 m 1
 141 -3 l 1
 80 -3 l 1
 84 474 l 1
 139 474 l 1
141 697 m 1
 141 597 l 1
 80 597 l 1
 80 697 l 1
 141 697 l 1
EndSplineSet
EndChar
StartChar: five.dnom
Encoding: 65587 -1 437
Width: 280
Flags: MW
HStem: -109 49<114.5 148.5 112.5 168.5> 50 48<129.5 152.5> 163 49<94 230 94 94>
VStem: 43 48 186 57<-21.5 18>
LayerCount: 2
Back
Fore
SplineSet
48 212 m 1
 230 212 l 1
 230 163 l 1
 94 163 l 1
 88 80 l 1
 88 80 111 98 148 98 c 0
 201 98 243 74 243 -2 c 0
 243 -73 199 -109 138 -109 c 0
 91 -109 34 -96 34 -96 c 1
 38 -49 l 1
 38 -49 92 -60 133 -60 c 0
 164 -60 186 -41 186 -2 c 0
 186 38 165 50 140 50 c 0
 108 50 81 32 81 32 c 1
 38 37 l 1
 48 212 l 1
EndSplineSet
Substitution2: "'frac' Diagonal Fractions in Latin lookup 1 subtable" fivesuperior
EndChar
StartChar: five.numr
Encoding: 65575 -1 375
Width: 280
Flags: MW
HStem: 369 49<120.5 154.5 118.5 174.5> 528 48<135.5 158.5> 641 49<100 236 100 100>
VStem: 49 48 192 57<456.5 496>
LayerCount: 2
Back
Fore
SplineSet
54 690 m 1
 236 690 l 1
 236 641 l 1
 100 641 l 1
 94 558 l 1
 94 558 117 576 154 576 c 0
 207 576 249 552 249 476 c 0
 249 405 205 369 144 369 c 0
 97 369 40 382 40 382 c 1
 44 429 l 1
 44 429 98 418 139 418 c 0
 170 418 192 437 192 476 c 0
 192 516 171 528 146 528 c 0
 114 528 87 510 87 510 c 1
 44 515 l 1
 54 690 l 1
EndSplineSet
Substitution2: "'frac' Diagonal Fractions in Latin lookup 1 subtable" fivesuperior
EndChar
StartChar: five.pnum
Encoding: 65545 -1 199
Width: 468
Flags: MW
HStem: -9 21G<206.5 294.5> -9 54<208 275.5 208 294.5> 262 53<217 275.5> 444 57<131 398 131 131>
VStem: 68.5 55.5 362 60<121.5 201>
LayerCount: 2
Back
Fore
SplineSet
77 501 m 1x7c
 398 501 l 1
 398 444 l 1
 131 444 l 1
 117 280 l 1
 117 280 188 315 246 315 c 0
 347 315 422 271 422 164 c 0
 422 50 347 -9 242 -9 c 0x7c
 171 -9 55 13 55 13 c 1xbc
 62 67 l 1
 62 67 175 45 241 45 c 0
 310 45 362 81 362 162 c 0
 362 240 310 262 241 262 c 0
 179 262 104 223 104 223 c 1
 60 234 l 1
 77 501 l 1x7c
EndSplineSet
Substitution2: "'frac' Diagonal Fractions in Latin lookup 1 subtable" fivesuperior
EndChar
StartChar: four.dnom
Encoding: 65586 -1 436
Width: 280
Flags: MW
HStem: -49 50<90 176 90 176 229 260>
VStem: 178 51
LayerCount: 2
Back
Fore
SplineSet
176 -100 m 1
 176 -49 l 1
 34 -49 l 1
 34 -3 l 1
 110 212 l 1
 168 212 l 1
 90 1 l 1
 176 1 l 1
 180 88 l 1
 229 88 l 1
 229 1 l 1
 260 1 l 1
 260 -49 l 1
 229 -49 l 1
 229 -100 l 1
 176 -100 l 1
EndSplineSet
Substitution2: "'frac' Diagonal Fractions in Latin lookup 1 subtable" foursuperior
EndChar
StartChar: four.numr
Encoding: 65574 -1 374
Width: 280
Flags: MW
HStem: 429 50<83 169 83 169 222 253>
VStem: 171 51
LayerCount: 2
Back
Fore
SplineSet
169 378 m 1
 169 429 l 1
 27 429 l 1
 27 475 l 1
 103 690 l 1
 161 690 l 1
 83 479 l 1
 169 479 l 1
 173 566 l 1
 222 566 l 1
 222 479 l 1
 253 479 l 1
 253 429 l 1
 222 429 l 1
 222 378 l 1
 169 378 l 1
EndSplineSet
Substitution2: "'frac' Diagonal Fractions in Latin lookup 1 subtable" foursuperior
EndChar
StartChar: four.pnum
Encoding: 65544 -1 198
Width: 469
Flags: MW
HStem: 97 56<105 312 105 312 373 434> 480 20G<206 271 271 271>
VStem: 312 61<-25 97 -25 97 153 294>
LayerCount: 2
Back
Fore
SplineSet
312 -25 m 1
 312 97 l 1
 36 97 l 1
 36 148 l 1
 206 500 l 1
 271 500 l 1
 105 153 l 1
 312 153 l 1
 312 294 l 1
 373 294 l 1
 373 153 l 1
 434 153 l 1
 434 97 l 1
 373 97 l 1
 373 -25 l 1
 312 -25 l 1
EndSplineSet
Substitution2: "'frac' Diagonal Fractions in Latin lookup 1 subtable" foursuperior
EndChar
StartChar: grave.cap
Encoding: 65561 -1 290
Width: 484
Flags: MW
HStem: 787 140
VStem: 129 216<831 875>
LayerCount: 2
Back
Fore
SplineSet
149 927 m 1
 345 831 l 1
 327 787 l 1
 129 875 l 1
 149 927 l 1
EndSplineSet
EndChar
StartChar: hungarumlaut.cap
Encoding: 65568 -1 297
Width: 660
Flags: MW
HStem: 759 143<281 349>
VStem: 129 375<786 873>
LayerCount: 2
Back
Fore
SplineSet
349 759 m 1
 316 786 l 1
 467 901 l 1
 504 873 l 1
 349 759 l 1
163 760 m 1
 129 786 l 1
 281 902 l 1
 318 873 l 1
 163 760 l 1
EndSplineSet
EndChar
StartChar: hyphen.cap
Encoding: 65592 -1 449
Width: 379
Flags: MW
HStem: 270 56<66 314 66 314>
VStem: 66 248<270 326 270 326>
LayerCount: 2
Back
Fore
SplineSet
66 270 m 1
 66 326 l 1
 314 326 l 1
 314 270 l 1
 66 270 l 1
EndSplineSet
EndChar
StartChar: macron.cap
Encoding: 65565 -1 294
Width: 433
Flags: MW
HStem: 828 46<71 356 71 356>
VStem: 71 285<828 874 828 874>
LayerCount: 2
Back
Fore
SplineSet
71 828 m 1
 71 874 l 1
 356 874 l 1
 356 828 l 1
 71 828 l 1
EndSplineSet
EndChar
StartChar: nine.dnom
Encoding: 65591 -1 441
Width: 280
Flags: MW
HStem: -110 50<108 148.5 105.5 169.5> 9 46<116.5 142.5> 173 48<120 158.5>
VStem: 26 55<97 133.5 97 148.5> 196 54<71 71>
LayerCount: 2
Back
Fore
SplineSet
39 -99 m 1
 43 -54 l 1
 43 -54 87 -60 124 -60 c 0
 173 -60 194 -32 195 23 c 1
 195 23 158 9 127 9 c 0
 64 9 26 49 26 114 c 0
 26 183 73 221 136 221 c 0
 214 221 250 168 250 54 c 0
 250 -67 211 -110 128 -110 c 0
 88 -110 39 -99 39 -99 c 1
133 55 m 0
 160 55 196 71 196 71 c 1
 195 134 180 173 137 173 c 0
 103 173 81 153 81 114 c 0
 81 80 100 55 133 55 c 0
EndSplineSet
Substitution2: "'frac' Diagonal Fractions in Latin lookup 1 subtable" ninesuperior
EndChar
StartChar: nine.numr
Encoding: 65579 -1 379
Width: 280
Flags: MW
HStem: 368 50<111 151.5 108.5 172.5> 487 46<119.5 145.5> 651 48<123 161.5>
VStem: 29 55<575 611.5 575 626.5> 199 54<549 549>
LayerCount: 2
Back
Fore
SplineSet
42 379 m 1
 46 424 l 1
 46 424 90 418 127 418 c 0
 176 418 197 446 198 501 c 1
 198 501 161 487 130 487 c 0
 67 487 29 527 29 592 c 0
 29 661 76 699 139 699 c 0
 217 699 253 646 253 532 c 0
 253 411 214 368 131 368 c 0
 91 368 42 379 42 379 c 1
136 533 m 0
 163 533 199 549 199 549 c 1
 198 612 183 651 140 651 c 0
 106 651 84 631 84 592 c 0
 84 558 103 533 136 533 c 0
EndSplineSet
Substitution2: "'frac' Diagonal Fractions in Latin lookup 1 subtable" ninesuperior
EndChar
StartChar: nine.pnum
Encoding: 65549 -1 203
Width: 487
Flags: MW
HStem: -10 56<188.5 270 188 309.5> 187 51<185.5 252> 458 52<194 276.5>
VStem: 45 61<307 383.5 307 397> 374 60<180.5 226>
LayerCount: 2
Back
Fore
SplineSet
71 7 m 1
 77 60 l 1
 77 60 154 46 222 46 c 0
 318 46 374 89 374 226 c 1
 331 206 279 187 225 187 c 0
 102 187 45 237 45 344 c 0
 45 450 112 510 239 510 c 0
 389 510 434 396 434 252 c 0
 434 109 397 -10 222 -10 c 0
 155 -10 71 7 71 7 c 1
230 238 m 0
 297 238 375 277 375 277 c 1
 375 296 373 314 371 330 c 0
 360 415 314 458 239 458 c 0
 149 458 106 423 106 344 c 0
 106 270 141 238 230 238 c 0
EndSplineSet
Substitution2: "'frac' Diagonal Fractions in Latin lookup 1 subtable" ninesuperior
EndChar
StartChar: one.dnom
Encoding: 65583 -1 433
Width: 280
Flags: MW
HStem: -100 312<153 204 153 204 150 204>
VStem: 150 54<-100 153 153 153>
LayerCount: 2
Back
Fore
SplineSet
52 143 m 1
 153 212 l 1
 204 212 l 1
 204 -100 l 1
 150 -100 l 1
 150 153 l 1
 77 103 l 1
 52 143 l 1
EndSplineSet
Substitution2: "'frac' Diagonal Fractions in Latin lookup 1 subtable" onesuperior
EndChar
StartChar: one.numr
Encoding: 65571 -1 371
Width: 280
Flags: MW
HStem: 378 312<146 197 146 197 143 197>
VStem: 143 54<378 631 631 631>
LayerCount: 2
Back
Fore
SplineSet
45 621 m 1
 146 690 l 1
 197 690 l 1
 197 378 l 1
 143 378 l 1
 143 631 l 1
 70 581 l 1
 45 621 l 1
EndSplineSet
Substitution2: "'frac' Diagonal Fractions in Latin lookup 1 subtable" onesuperior
EndChar
StartChar: one.pnum
Encoding: 65541 -1 195
Width: 335
Flags: MW
HStem: 0 21G<202 263 202 202> 480 20G<205 263 263 263>
VStem: 202 61<0 431 431 431>
LayerCount: 2
Back
Fore
SplineSet
27 386 m 1
 205 500 l 1
 263 500 l 1
 263 0 l 1
 202 0 l 1
 202 431 l 1
 56 338 l 1
 27 386 l 1
EndSplineSet
Substitution2: "'frac' Diagonal Fractions in Latin lookup 1 subtable" onesuperior
EndChar
StartChar: parenleft.cap
Encoding: 65555 -1 284
Width: 238
Flags: MW
HStem: -94 872<145 202 145 202>
VStem: 50 61<238 424 238 433.5>
LayerCount: 2
Back
Fore
SplineSet
145 778 m 1
 202 778 l 1
 202 778 111 517 111 331 c 0
 111 145 202 -94 202 -94 c 1
 145 -94 l 1
 145 -94 50 126 50 331 c 0
 50 536 145 778 145 778 c 1
EndSplineSet
Position2: "'cpsp' Capital Spacing in Latin lookup 0 subtable" dx=5 dy=0 dh=10 dv=0
EndChar
StartChar: parenright.cap
Encoding: 65556 -1 285
Width: 239
Flags: MW
HStem: -88 872<37 94 37 94>
VStem: 128 61<266 452>
LayerCount: 2
Back
Fore
SplineSet
94 -88 m 1
 37 -88 l 1
 37 -88 128 173 128 359 c 0
 128 545 37 784 37 784 c 1
 94 784 l 1
 94 784 189 564 189 359 c 0
 189 154 94 -88 94 -88 c 1
EndSplineSet
Position2: "'cpsp' Capital Spacing in Latin lookup 0 subtable" dx=5 dy=0 dh=10 dv=0
EndChar
StartChar: periodcentered.cap
Encoding: 65553 -1 272
Width: 194
Flags: MW
HStem: 287 104<66 128 66 128>
VStem: 66 62<287 391 287 391>
LayerCount: 2
Back
Fore
SplineSet
66 287 m 1
 66 391 l 1
 128 391 l 1
 128 287 l 1
 66 287 l 1
EndSplineSet
Position2: "'cpsp' Capital Spacing in Latin lookup 0 subtable" dx=5 dy=0 dh=10 dv=0
EndChar
StartChar: questiondown.cap
Encoding: 65550 -1 267
Width: 405
Flags: MW
HStem: -7 56<180 250> 485 20G<203 261 261 261> 593 104<203 266 203 266>
VStem: 35 64<114 180.5 114 188> 203 63<593 697 593 697>
LayerCount: 2
Back
Fore
SplineSet
35 158 m 0
 35 218 59 255 140 347 c 0
 179 392 203 426 203 465 c 2
 203 505 l 1
 261 505 l 1
 261 505 265 477 265 458 c 0
 265 403 240 372 183 306 c 0
 120 230 99 203 99 158 c 0
 99 70 136 49 224 49 c 0
 281 49 365 70 365 70 c 1
 373 19 l 1
 373 19 280 -7 220 -7 c 0
 95 -7 35 34 35 158 c 0
266 697 m 1
 266 593 l 1
 203 593 l 1
 203 697 l 1
 266 697 l 1
EndSplineSet
EndChar
StartChar: ring.cap
Encoding: 65567 -1 296
Width: 309
Flags: MW
HStem: 697 43<131.5 167 131.5 178> 845 43<131.5 167>
VStem: 52 40<775 809 775 824> 205 42<775 809>
LayerCount: 2
Back
Fore
SplineSet
247 792 m 0
 247 728 207 697 149 697 c 0
 89 697 52 728 52 792 c 0
 52 856 89 888 149 888 c 0
 207 888 247 856 247 792 c 0
92 792 m 0
 92 758 114 740 149 740 c 0
 185 740 205 758 205 792 c 0
 205 826 185 845 149 845 c 0
 114 845 92 826 92 792 c 0
EndSplineSet
EndChar
StartChar: seven.dnom
Encoding: 65589 -1 439
Width: 280
Flags: MW
HStem: 160 52<40 242 40 183>
VStem: 183 59<141 160 160 160>
LayerCount: 2
Back
Fore
SplineSet
40 160 m 1
 40 212 l 1
 242 212 l 1
 242 141 l 1
 135 -109 l 1
 76 -97 l 1
 183 138 l 1
 183 160 l 1
 40 160 l 1
EndSplineSet
Substitution2: "'frac' Diagonal Fractions in Latin lookup 1 subtable" sevensuperior
EndChar
StartChar: seven.numr
Encoding: 65577 -1 377
Width: 280
Flags: MW
HStem: 638 52<40 242 40 183>
VStem: 183 59<619 638 638 638>
LayerCount: 2
Back
Fore
SplineSet
40 638 m 1
 40 690 l 1
 242 690 l 1
 242 619 l 1
 135 369 l 1
 76 381 l 1
 183 616 l 1
 183 638 l 1
 40 638 l 1
EndSplineSet
Substitution2: "'frac' Diagonal Fractions in Latin lookup 1 subtable" sevensuperior
EndChar
StartChar: seven.pnum
Encoding: 65547 -1 201
Width: 407
Flags: MW
HStem: 444 57<35 374 35 312>
VStem: 312 62<424 444 444 444>
LayerCount: 2
Back
Fore
SplineSet
35 444 m 1
 35 501 l 1
 374 501 l 1
 374 422 l 1
 159 -13 l 1
 104 7 l 1
 312 424 l 1
 312 444 l 1
 35 444 l 1
EndSplineSet
Substitution2: "'frac' Diagonal Fractions in Latin lookup 1 subtable" sevensuperior
EndChar
StartChar: six.dnom
Encoding: 65588 -1 438
Width: 280
Flags: MW
HStem: -110 49<119.5 160.5 119.5 175> 57 47<137 161> 173 48<128.5 168.5>
VStem: 27 56<7 38 7 114> 195 55<-16.5 21.5>
LayerCount: 2
Back
Fore
SplineSet
236 212 m 1
 233 166 l 1
 233 166 186 173 151 173 c 0
 106 173 84 149 83 88 c 1
 99 94 126 104 148 104 c 0
 218 104 250 67 250 2 c 0
 250 -67 208 -110 142 -110 c 0
 63 -110 27 -62 27 54 c 0
 27 174 68 221 150 221 c 0
 187 221 236 212 236 212 c 1
142 57 m 0
 121 57 98 46 83 38 c 1
 83 -24 99 -61 140 -61 c 0
 181 -61 195 -34 195 1 c 0
 195 42 180 57 142 57 c 0
EndSplineSet
Substitution2: "'frac' Diagonal Fractions in Latin lookup 1 subtable" sixsuperior
EndChar
StartChar: six.numr
Encoding: 65576 -1 376
Width: 280
Flags: MW
HStem: 368 49<121.5 162.5 121.5 177> 535 47<139 163> 651 48<130.5 170.5>
VStem: 29 56<485 516 485 592> 197 55<461.5 499.5>
LayerCount: 2
Back
Fore
SplineSet
238 690 m 1
 235 644 l 1
 235 644 188 651 153 651 c 0
 108 651 86 627 85 566 c 1
 101 572 128 582 150 582 c 0
 220 582 252 545 252 480 c 0
 252 411 210 368 144 368 c 0
 65 368 29 416 29 532 c 0
 29 652 70 699 152 699 c 0
 189 699 238 690 238 690 c 1
144 535 m 0
 123 535 100 524 85 516 c 1
 85 454 101 417 142 417 c 0
 183 417 197 444 197 479 c 0
 197 520 182 535 144 535 c 0
EndSplineSet
Substitution2: "'frac' Diagonal Fractions in Latin lookup 1 subtable" sixsuperior
EndChar
StartChar: six.pnum
Encoding: 65546 -1 200
Width: 491
Flags: MW
HStem: -10 52<212.5 295 212.5 314> 263 51<235.5 303.5> 454 56<219 300.5 179.5 301>
VStem: 52 60<213.5 224 275 319.5> 386 61<117.5 194>
LayerCount: 2
Back
Fore
SplineSet
420 493 m 1
 415 439 l 1
 415 439 335 454 267 454 c 0
 171 454 112 412 112 275 c 1
 152 294 207 314 264 314 c 0
 388 314 447 264 447 157 c 0
 447 51 378 -10 250 -10 c 0
 101 -10 52 104 52 248 c 0
 52 391 92 510 267 510 c 0
 334 510 420 493 420 493 c 1
259 263 m 0
 192 263 112 224 112 224 c 1
 112 203 114 184 117 166 c 0
 131 85 175 42 250 42 c 0
 340 42 386 78 386 157 c 0
 386 231 348 263 259 263 c 0
EndSplineSet
Substitution2: "'frac' Diagonal Fractions in Latin lookup 1 subtable" sixsuperior
EndChar
StartChar: three.dnom
Encoding: 65585 -1 435
Width: 280
Flags: MW
HStem: -110 50<118.5 157 115 176> 36 47<76 140 140 141 76 140> 172 49<115 151.5>
VStem: 184 55<119.5 146.5> 192 56<-27 6>
LayerCount: 2
Back
Fore
SplineSet
37 211 m 1xe8
 37 211 93 221 137 221 c 0
 206 221 239 196 239 139 c 0xf0
 239 86 201 66 196 63 c 1
 228 53 248 40 248 -14 c 0
 248 -80 209 -110 143 -110 c 0
 94 -110 33 -99 33 -99 c 1
 36 -52 l 1
 36 -52 92 -60 138 -60 c 0
 176 -60 192 -41 192 -13 c 0
 192 25 171 36 141 36 c 2xe8
 76 36 l 1
 76 83 l 1
 140 83 l 2
 160 83 184 105 184 134 c 0
 184 159 170 172 133 172 c 0xf0
 90 172 40 164 40 164 c 1
 37 211 l 1xe8
EndSplineSet
Substitution2: "'frac' Diagonal Fractions in Latin lookup 1 subtable" threesuperior
EndChar
StartChar: three.numr
Encoding: 65573 -1 373
Width: 280
Flags: MW
HStem: 368 50<121.5 160 118 179> 514 47<79 143 143 144 79 143> 650 49<118 154.5>
VStem: 187 55<597.5 624.5> 195 56<451 484>
LayerCount: 2
Back
Fore
SplineSet
40 689 m 1xe8
 40 689 96 699 140 699 c 0
 209 699 242 674 242 617 c 0xf0
 242 564 204 544 199 541 c 1
 231 531 251 518 251 464 c 0
 251 398 212 368 146 368 c 0
 97 368 36 379 36 379 c 1
 39 426 l 1
 39 426 95 418 141 418 c 0
 179 418 195 437 195 465 c 0
 195 503 174 514 144 514 c 2xe8
 79 514 l 1
 79 561 l 1
 143 561 l 2
 163 561 187 583 187 612 c 0
 187 637 173 650 136 650 c 0xf0
 93 650 43 642 43 642 c 1
 40 689 l 1xe8
EndSplineSet
Substitution2: "'frac' Diagonal Fractions in Latin lookup 1 subtable" threesuperior
EndChar
StartChar: three.pnum
Encoding: 65543 -1 197
Width: 473
Flags: MW
HStem: -9 21G<199 302> -9 56<199.5 238 199.5 302> 235 54<121 243 121 244 121 243> 453 56<196 273.5>
VStem: 347 60<343 405.5> 362 60<107 177.5>
LayerCount: 2
Back
Fore
SplineSet
57 489 m 1x74
 57 489 156 509 233 509 c 0
 353 509 407 470 407 380 c 0x78
 407 306 349 274 318 267 c 1
 375 255 422 220 422 143 c 0
 422 44 362 -9 242 -9 c 0x74
 156 -9 50 10 50 10 c 1xb4
 57 63 l 1
 57 63 161 47 238 47 c 0
 320 48 362 74 362 140 c 0x74
 362 215 306 232 244 235 c 2
 121 235 l 1
 121 289 l 1
 243 289 l 2
 298 291 347 311 347 375 c 0x78
 347 436 313 453 234 453 c 0
 158 453 63 436 63 436 c 1
 57 489 l 1x74
EndSplineSet
Substitution2: "'frac' Diagonal Fractions in Latin lookup 1 subtable" threesuperior
EndChar
StartChar: tilde.cap
Encoding: 65563 -1 292
Width: 427
Flags: MW
HStem: 816 53<286.5 310 286.5 315> 875 52<136 163>
VStem: 59 324<867 875>
LayerCount: 2
Back
Fore
SplineSet
370 916 m 1
 383 875 l 1
 383 875 331 816 299 816 c 0xa0
 257 816 179 875 147 875 c 0
 125 875 71 825 71 825 c 1
 59 867 l 1
 59 867 115 927 149 927 c 0x60
 194 927 272 869 301 869 c 0
 319 869 370 916 370 916 c 1
EndSplineSet
EndChar
StartChar: two.dnom
Encoding: 65584 -1 434
Width: 280
Flags: MW
HStem: -100 49<111 246 111 246> 170 51<122.5 149>
VStem: 186 55<112 144>
LayerCount: 2
Back
Fore
SplineSet
246 -100 m 1
 42 -100 l 1
 42 -52 l 1
 134 41 l 2
 164 71 186 95 186 129 c 0
 186 159 164 170 134 170 c 0
 103 170 47 160 47 160 c 1
 45 209 l 1
 45 209 101 221 144 221 c 0
 210 221 241 193 241 133 c 0
 241 86 217 55 178 17 c 2
 111 -51 l 1
 246 -51 l 1
 246 -100 l 1
EndSplineSet
Substitution2: "'frac' Diagonal Fractions in Latin lookup 1 subtable" twosuperior
EndChar
StartChar: two.numr
Encoding: 65572 -1 372
Width: 280
Flags: MW
HStem: 378 49<106 241 106 241> 648 51<117.5 144>
VStem: 181 55<590 622>
LayerCount: 2
Back
Fore
SplineSet
241 378 m 1
 37 378 l 1
 37 426 l 1
 129 519 l 2
 159 549 181 573 181 607 c 0
 181 637 159 648 129 648 c 0
 98 648 42 638 42 638 c 1
 40 687 l 1
 40 687 96 699 139 699 c 0
 205 699 236 671 236 611 c 0
 236 564 212 533 173 495 c 2
 106 427 l 1
 241 427 l 1
 241 378 l 1
EndSplineSet
Substitution2: "'frac' Diagonal Fractions in Latin lookup 1 subtable" twosuperior
EndChar
StartChar: two.pnum
Encoding: 65542 -1 196
Width: 464
Flags: MW
HStem: 0 56<139 418 139 418> 452 57<188 260>
VStem: 335 65<335.5 395.5>
LayerCount: 2
Back
Fore
SplineSet
418 0 m 1
 51 0 l 1
 51 55 l 1
 224 204 l 2
 287 259 335 308 335 363 c 0
 335 428 303 452 217 452 c 0
 156 452 55 434 55 433 c 2
 51 487 l 1
 51 487 150 509 226 509 c 0
 350 509 400 455 400 366 c 0
 400 288 359 241 302 193 c 2
 139 56 l 1
 418 56 l 1
 418 0 l 1
EndSplineSet
Substitution2: "'frac' Diagonal Fractions in Latin lookup 1 subtable" twosuperior
EndChar
StartChar: zero.dnom
Encoding: 65582 -1 432
Width: 280
Flags: MW
HStem: -110 50<120.5 155.5> 172 49<123.5 160.5>
VStem: 23 55<11 91.5> 201 55<20.5 97.5>
LayerCount: 2
Back
Fore
SplineSet
139 221 m 0
 213 221 256 180 256 56 c 0
 256 -15 241 -58 216 -83 c 0
 196 -102 171 -110 140 -110 c 0
 69 -110 23 -70 23 56 c 0
 23 127 38 171 64 195 c 0
 83 214 108 221 139 221 c 0
139 172 m 0
 98 172 78 142 78 56 c 0
 78 -34 101 -60 140 -60 c 0
 179 -60 201 -35 201 56 c 0
 201 139 182 172 139 172 c 0
EndSplineSet
Substitution2: "'frac' Diagonal Fractions in Latin lookup 1 subtable" zerosuperior
EndChar
StartChar: zero.numr
Encoding: 65570 -1 370
Width: 280
Flags: MW
HStem: 368 50<120.5 155.5> 650 49<123.5 160.5>
VStem: 23 55<489 569.5> 201 55<498.5 575.5>
LayerCount: 2
Back
Fore
SplineSet
139 699 m 0
 213 699 256 658 256 534 c 0
 256 463 241 420 216 395 c 0
 196 376 171 368 140 368 c 0
 69 368 23 408 23 534 c 0
 23 605 38 649 64 673 c 0
 83 692 108 699 139 699 c 0
139 650 m 0
 98 650 78 620 78 534 c 0
 78 444 101 418 140 418 c 0
 179 418 201 443 201 534 c 0
 201 617 182 650 139 650 c 0
EndSplineSet
Substitution2: "'frac' Diagonal Fractions in Latin lookup 1 subtable" zerosuperior
EndChar
StartChar: zero.pnum
Encoding: 65540 -1 194
Width: 527
Flags: MW
HStem: -9 56<219.5 281> 453 56<244.5 309>
VStem: 51 64<166 312.5> 412 63<178 324.5>
LayerCount: 2
Back
Fore
SplineSet
262 509 m 0
 385 509 475 457 475 242 c 0
 475 114 432 46 370 14 c 0
 339 -2 300 -9 262 -9 c 0
 158 -9 51 46 51 242 c 0
 51 383 99 457 164 489 c 0
 194 503 227 509 262 509 c 0
263 453 m 0
 176 453 115 405 115 242 c 0
 115 90 176 47 263 47 c 0
 354 47 412 91 412 242 c 0
 412 407 355 453 263 453 c 0
EndSplineSet
Substitution2: "'frac' Diagonal Fractions in Latin lookup 1 subtable" zerosuperior
EndChar
StartChar: zero.slash
Encoding: 65580 -1 411
Width: 541
Flags: MW
HStem: -10 57<253.5 345.5 253.5 368.5> 613 57<215 284>
VStem: 36 66<282.5 435 282.5 458> 438 66<253 382.5>
LayerCount: 2
Back
Fore
SplineSet
270 670 m 0
 305 670 338 665 366 654 c 1
 424 798 l 1
 472 781 l 1
 411 629 l 1
 470 583 504 490 504 319 c 0
 504 157 467 -10 270 -10 c 0
 227 -10 192 -2 163 12 c 1
 111 -117 l 1
 65 -101 l 1
 121 40 l 1
 54 100 36 207 36 318 c 0
 36 598 131 670 270 670 c 0
438 318 m 0
 438 447 420 524 386 567 c 1
 186 69 l 1
 208 55 236 47 271 47 c 0
 420 47 438 188 438 318 c 0
270 613 m 0
 160 613 102 553 102 317 c 0
 102 248 107 161 147 105 c 1
 344 599 l 1
 323 609 298 613 270 613 c 0
EndSplineSet
EndChar
